*
G04 Mass Parameters ***
*
G04 Image ***
*
%INE:\00.LAVORI IN CORSO\METALTRONICA\25-336-0\25-336-0.SMT*%
%ICAS*%
%MOIN*%
%IPPOS*%
%ASAXBY*%
G74*%FSLAN2X34Y34*%
*
G04 Aperture Definitions ***
*
%ADD10C,0.1378*%
%ADD11R,0.0380X0.0320*%
%ADD12C,0.0610*%
%ADD13R,0.0610X0.0610*%
%ADD14R,0.0400X0.0710*%
%ADD15R,0.0472X0.2047*%
%ADD16R,0.0510X0.1024*%
%ADD17R,0.0886X0.0905*%
%ADD18R,0.0320X0.0380*%
%ADD19R,0.0404X0.0501*%
%ADD20R,0.0710X0.0400*%
%ADD21C,0.0800*%
%ADD22R,0.0850X0.1080*%
%ADD23R,0.1080X0.0850*%
%ADD24R,0.0480X0.0354*%
%ADD25R,0.0500X0.0400*%
%ADD26R,0.0787X0.0787*%
%ADD27R,0.0501X0.0404*%
%ADD28R,0.1669X0.1500*%
%ADD29C,0.1000*%
%ADD30O,0.1181X0.0787*%
%ADD31C,0.0669*%
%ADD32R,0.0669X0.0669*%
%ADD33C,0.1200*%
%ADD34R,0.1200X0.1200*%
%ADD35C,0.0787*%
%ADD36C,0.0630*%
%ADD37R,0.0800X0.0800*%
%ADD38C,0.0866*%
%ADD39R,0.0866X0.0866*%
%ADD40R,0.0512X0.0236*%
%ADD41R,0.1968X0.1338*%
%ADD42R,0.0413X0.0236*%
%ADD43C,0.0187*%
%ADD44R,0.0236X0.0354*%
%ADD45R,0.0275X0.0453*%
%ADD46R,0.0400X0.0500*%
%ADD47R,0.1024X0.0510*%
%ADD48R,0.0760X0.1200*%
%ADD49C,0.1968*%
%ADD50R,0.1736X0.0787*%
%ADD51R,0.0236X0.0787*%
%ADD52R,0.0650X0.1120*%
%ADD53R,0.0354X0.0165*%
%ADD54R,0.0354X0.0512*%
%ADD55R,0.0138X0.0400*%
%ADD56O,0.0650X0.0256*%
%ADD57R,0.0680X0.1580*%
%ADD58R,0.0680X0.0550*%
%ADD59O,0.0110X0.0700*%
%ADD60R,0.0110X0.0700*%
%ADD61O,0.0700X0.0110*%
%ADD62R,0.0700X0.0110*%
%ADD63C,0.0276*%
%ADD64C,0.0394*%
%ADD65C,0.0000*%
%ADD66C,0.0050*%
%ADD67C,0.0100*%
%ADD68C,0.0800*%
%ADD69C,0.0250*%
%ADD70C,0.0276*%
%ADD71C,0.0500*%
%ADD72C,0.0197*%
%ADD73C,0.0200*%
%ADD74C,0.0150*%
%ADD75C,0.0276*%
%ADD76C,0.0060*%
%ADD77C,0.0080*%
%ADD78C,0.0276*%
%ADD79R,0.0334X0.0512*%
%ADD80C,0.0590*%
%ADD81C,0.0010*%
*
G04 Plot Data ***
*
G54D66*
G01X0033223Y0020320D02*
X0032971D01*
X0033223Y0020275D02*
X0032989D01*
X0033223Y0020230D02*
X0033005D01*
X0033223Y0020185D02*
X0033018D01*
X0033223Y0020140D02*
X0033028D01*
X0033223Y0020095D02*
X0033035D01*
X0033223Y0020050D02*
X0033040D01*
X0033223Y0020005D02*
X0033043D01*
X0033223Y0019960D02*
X0033042D01*
X0033223Y0019915D02*
X0033039D01*
X0033223Y0019870D02*
X0033033D01*
X0033223Y0019825D02*
X0033024D01*
X0033223Y0019780D02*
X0033013D01*
X0033223Y0019735D02*
X0032998D01*
X0033223Y0019690D02*
X0032981D01*
X0033223Y0019645D02*
X0032960D01*
X0033223Y0019600D02*
X0032935D01*
X0033223Y0019555D02*
X0032906D01*
X0033223Y0019510D02*
X0032873D01*
X0033223Y0019465D02*
X0032834D01*
X0033223Y0019420D02*
X0032789D01*
X0033223Y0019375D02*
X0032734D01*
X0033223Y0019330D02*
X0032668D01*
X0033223Y0019285D02*
X0032603D01*
X0033223Y0019240D02*
X0032603D01*
X0033223Y0019195D02*
X0032603D01*
X0033223Y0019150D02*
X0032603D01*
X0033223Y0019105D02*
X0032603D01*
X0033183Y0020970D02*
Y0019030D01*
X0033138Y0020980D02*
Y0019020D01*
X0033093Y0020980D02*
Y0019020D01*
X0033048Y0020980D02*
Y0019020D01*
X0033003Y0019748D02*
Y0019020D01*
X0032958Y0019641D02*
Y0019020D01*
X0032913Y0019564D02*
Y0019020D01*
X0032868Y0019503D02*
Y0019020D01*
X0032823Y0019453D02*
Y0019020D01*
X0032778Y0019410D02*
Y0019020D01*
X0032733Y0019374D02*
Y0019020D01*
X0032688Y0019342D02*
Y0019020D01*
X0032643Y0019315D02*
Y0019020D01*
Y0020980D02*
Y0020687D01*
X0033206Y0020950D02*
X0032603D01*
X0033223Y0020905D02*
X0032603D01*
X0033223Y0020860D02*
X0032603D01*
X0033223Y0020815D02*
X0032603D01*
X0033223Y0020770D02*
X0032603D01*
X0033223Y0020725D02*
X0032603D01*
X0033223Y0020680D02*
X0032655D01*
X0033223Y0020635D02*
X0032721D01*
X0033223Y0020590D02*
X0032775D01*
X0033223Y0020545D02*
X0032820D01*
X0033223Y0020500D02*
X0032860D01*
X0033223Y0020455D02*
X0032894D01*
X0033223Y0020410D02*
X0032923D01*
X0033223Y0020365D02*
X0032949D01*
X0033003Y0020980D02*
Y0020236D01*
X0032958Y0020980D02*
Y0020347D01*
X0032913Y0020980D02*
Y0020426D01*
X0032868Y0020980D02*
Y0020490D01*
X0032823Y0020980D02*
Y0020542D01*
X0032778Y0020980D02*
Y0020587D01*
X0032733Y0020980D02*
Y0020625D01*
X0032688Y0020980D02*
Y0020659D01*
X0033213Y0019060D02*
X0032603D01*
X0032613Y0019300D02*
X0032603Y0019290D01*
Y0019020D01*
X0033143D02*
X0032603D01*
X0033145D02*
X0033143D01*
X0033223Y0020900D02*
Y0019100D01*
Y0020902D02*
Y0020900D01*
X0033143Y0020980D02*
X0032603D01*
Y0020710D01*
X0033043Y0020000D02*
Y0019994D01*
X0031518Y0020316D02*
X0031271D01*
X0031499Y0020271D02*
X0031271D01*
X0031484Y0020226D02*
X0031271D01*
X0031472Y0020181D02*
X0031271D01*
X0031463Y0020136D02*
X0031271D01*
X0031456Y0020091D02*
X0031271D01*
X0031452Y0020046D02*
X0031271D01*
X0031451Y0020001D02*
X0031271D01*
X0031453Y0019956D02*
X0031271D01*
X0031457Y0019911D02*
X0031271D01*
X0031464Y0019866D02*
X0031271D01*
X0031474Y0019821D02*
X0031271D01*
X0031486Y0019776D02*
X0031271D01*
X0031501Y0019731D02*
X0031271D01*
X0031519Y0019686D02*
X0031271D01*
X0031540Y0019641D02*
X0031271D01*
X0031565Y0019596D02*
X0031271D01*
X0031594Y0019551D02*
X0031271D01*
X0031627Y0019506D02*
X0031271D01*
X0031665Y0019461D02*
X0031271D01*
X0031709Y0019416D02*
X0031271D01*
X0031761Y0019371D02*
X0031271D01*
X0031823Y0019326D02*
X0031271D01*
X0031891Y0019281D02*
X0031271D01*
X0031891Y0019236D02*
X0031271D01*
X0031891Y0019191D02*
X0031271D01*
X0031891Y0019146D02*
X0031271D01*
X0031891Y0019101D02*
X0031271D01*
X0031851Y0019309D02*
Y0019017D01*
X0031806Y0019338D02*
Y0019017D01*
X0031761Y0019371D02*
Y0019017D01*
X0031716Y0019409D02*
Y0019017D01*
X0031671Y0019454D02*
Y0019017D01*
X0031626Y0019507D02*
Y0019017D01*
X0031581Y0019570D02*
Y0019017D01*
X0031536Y0019649D02*
Y0019017D01*
X0031491Y0019760D02*
Y0019017D01*
X0031446Y0020977D02*
Y0019017D01*
X0031401Y0020977D02*
Y0019017D01*
X0031356Y0020977D02*
Y0019017D01*
X0031311Y0020967D02*
Y0019026D01*
X0031491Y0020977D02*
Y0020248D01*
X0031891Y0020946D02*
X0031288D01*
X0031891Y0020901D02*
X0031271D01*
X0031891Y0020856D02*
X0031271D01*
X0031891Y0020811D02*
X0031271D01*
X0031891Y0020766D02*
X0031271D01*
X0031891Y0020721D02*
X0031271D01*
X0031843Y0020676D02*
X0031271D01*
X0031773Y0020631D02*
X0031271D01*
X0031716Y0020586D02*
X0031271D01*
X0031669Y0020541D02*
X0031271D01*
X0031629Y0020496D02*
X0031271D01*
X0031594Y0020451D02*
X0031271D01*
X0031565Y0020406D02*
X0031271D01*
X0031539Y0020361D02*
X0031271D01*
X0031851Y0020977D02*
Y0020681D01*
X0031806Y0020977D02*
Y0020654D01*
X0031761Y0020977D02*
Y0020623D01*
X0031716Y0020977D02*
Y0020586D01*
X0031671Y0020977D02*
Y0020543D01*
X0031626Y0020977D02*
Y0020493D01*
X0031581Y0020977D02*
Y0020432D01*
X0031536Y0020977D02*
Y0020355D01*
X0031891Y0019056D02*
X0031281D01*
X0031451Y0020002D02*
Y0019997D01*
X0031891Y0019287D02*
Y0019017D01*
X0031351D01*
X0031350Y0019016D01*
X0031271Y0020897D02*
Y0019097D01*
Y0020898D02*
Y0020897D01*
X0031891Y0020977D02*
X0031351D01*
X0031891D02*
Y0020707D01*
X0031881Y0020697D01*
G01X0033145Y0019020D02*
G03X0033223Y0019098I0000000J0000078D01*
G03X0033223Y0019100I0000078J0000000D01*
Y0020902D02*
G03X0033145Y0020980I0000078J0000000D01*
G03X0033143Y0020980I0000000J0000078D01*
G01X0033043Y0020000D02*
G03X0032603Y0020710I0000820J0000017D01*
G01X0032613Y0019300D02*
G03X0033042Y0019994I0000346J0000694D01*
G01X0031881Y0020697D02*
G03X0031451Y0020002I0000346J0000695D01*
Y0019997D02*
G03X0031891Y0019287I0000821J0000017D01*
G01X0031271Y0019095D02*
G03X0031350Y0019016I0000079J0000000D01*
G01X0031271Y0019097D02*
G03X0031271Y0019095I0000079J0000002D01*
G01X0031350Y0020977D02*
G03X0031271Y0020898I0000000J0000079D01*
G01X0031351Y0020977D02*
G03X0031350Y0020977I0000001J0000079D01*
G54D67*
G01X0016050Y0007530D02*
X0014950D01*
X0016050Y0007440D02*
X0014950D01*
X0016050Y0007350D02*
X0014950D01*
X0016050Y0007260D02*
X0014950D01*
X0016050Y0007170D02*
X0014950D01*
X0016050Y0007080D02*
X0014950D01*
X0016050Y0006990D02*
X0014950D01*
X0016050Y0006900D02*
X0014950D01*
X0016050Y0006810D02*
X0014950D01*
X0016050Y0006720D02*
X0014950D01*
X0016050Y0006630D02*
X0014950D01*
X0016050Y0006540D02*
X0014890D01*
X0016050Y0006450D02*
X0014800D01*
X0016050Y0006360D02*
X0014710D01*
X0016050Y0006270D02*
X0014620D01*
X0016050Y0006180D02*
X0014530D01*
X0016050Y0006090D02*
X0014440D01*
X0016050Y0006000D02*
X0014350D01*
X0016050Y0005910D02*
X0014350D01*
X0016050Y0005820D02*
X0014350D01*
X0016050Y0005730D02*
X0014350D01*
X0016050Y0005640D02*
X0014350D01*
X0016050Y0005550D02*
X0014350D01*
X0016050Y0005460D02*
X0014350D01*
X0016050Y0005370D02*
X0014350D01*
X0016050Y0005280D02*
X0014350D01*
X0016050Y0005190D02*
X0014350D01*
X0016050Y0005100D02*
X0014350D01*
X0016050Y0005010D02*
X0014350D01*
X0016050Y0004920D02*
X0014350D01*
X0016050Y0004830D02*
X0014350D01*
X0016050Y0004740D02*
X0014350D01*
X0016050Y0004650D02*
X0014350D01*
X0016050Y0004560D02*
X0014350D01*
X0016050Y0004470D02*
X0014350D01*
X0016050Y0004380D02*
X0014350D01*
X0016050Y0004290D02*
X0014350D01*
X0016050Y0004200D02*
X0014350D01*
X0016050Y0004110D02*
X0014350D01*
X0016050Y0004020D02*
X0014350D01*
X0016050Y0003930D02*
X0014350D01*
X0016050Y0003840D02*
X0014350D01*
X0014950Y0008000D02*
Y0006600D01*
X0016050Y0008000D02*
X0014950D01*
X0016050D02*
Y0003800D01*
X0014350D01*
Y0006000D02*
Y0003800D01*
X0014950Y0006600D02*
X0014350Y0006000D01*
X0016010Y0008000D02*
Y0003800D01*
X0015920Y0008000D02*
Y0003800D01*
X0015830Y0008000D02*
Y0003800D01*
X0015740Y0008000D02*
Y0003800D01*
X0015650Y0008000D02*
Y0003800D01*
X0015560Y0008000D02*
Y0003800D01*
X0015470Y0008000D02*
Y0003800D01*
X0015380Y0008000D02*
Y0003800D01*
X0015290Y0008000D02*
Y0003800D01*
X0015200Y0008000D02*
Y0003800D01*
X0015110Y0008000D02*
Y0003800D01*
X0015020Y0008000D02*
Y0003800D01*
X0014930Y0006580D02*
Y0003800D01*
X0014840Y0006490D02*
Y0003800D01*
X0014750Y0006400D02*
Y0003800D01*
X0014660Y0006310D02*
Y0003800D01*
X0014570Y0006220D02*
Y0003800D01*
X0014480Y0006130D02*
Y0003800D01*
X0014390Y0006040D02*
Y0003800D01*
X0016050Y0007980D02*
X0014950D01*
X0016050Y0007890D02*
X0014950D01*
X0016050Y0007800D02*
X0014950D01*
X0016050Y0007710D02*
X0014950D01*
X0016050Y0007620D02*
X0014950D01*
X0005050Y0013700D02*
Y0011900D01*
X0004960Y0013700D02*
Y0011900D01*
X0004870Y0013700D02*
Y0011900D01*
X0004780Y0013700D02*
Y0011900D01*
X0004690Y0013700D02*
Y0011900D01*
X0004600Y0013700D02*
Y0011900D01*
X0004510Y0013700D02*
Y0011900D01*
X0004420Y0013700D02*
Y0011900D01*
X0004330Y0014600D02*
Y0011900D01*
X0004240Y0014600D02*
Y0011900D01*
X0004150Y0014600D02*
Y0011900D01*
X0004060Y0014600D02*
Y0011900D01*
X0003970Y0014600D02*
Y0011900D01*
X0003880Y0014600D02*
Y0011900D01*
X0003790Y0014600D02*
Y0011900D01*
X0004350Y0014550D02*
X0003750D01*
X0004350Y0014460D02*
X0003750D01*
X0004350Y0014370D02*
X0003750D01*
X0004350Y0014280D02*
X0003750D01*
X0004350Y0014190D02*
X0003750D01*
X0004350Y0014100D02*
X0003750D01*
X0004350Y0014010D02*
X0003750D01*
X0004350Y0013920D02*
X0003750D01*
X0004350Y0013830D02*
X0003750D01*
X0004350Y0013740D02*
X0003750D01*
X0006600Y0013650D02*
X0003750D01*
X0006600Y0013560D02*
X0003750D01*
X0006600Y0013470D02*
X0003750D01*
X0006600Y0013380D02*
X0003750D01*
X0006600Y0013290D02*
X0003750D01*
X0006600Y0013200D02*
X0003750D01*
X0006600Y0013110D02*
X0003750D01*
X0006600Y0013020D02*
X0003750D01*
X0006600Y0012930D02*
X0003750D01*
X0006600Y0012840D02*
X0003750D01*
X0006600Y0012750D02*
X0003750D01*
X0006600Y0012660D02*
X0003750D01*
X0006600Y0012570D02*
X0003750D01*
X0006600Y0012480D02*
X0003750D01*
X0006600Y0012390D02*
X0003750D01*
X0006600Y0012300D02*
X0003750D01*
X0006600Y0012210D02*
X0003750D01*
X0006600Y0012120D02*
X0003750D01*
X0006600Y0012030D02*
X0003750D01*
X0006600Y0011940D02*
X0003750D01*
Y0014600D02*
Y0011900D01*
X0004350Y0014600D02*
X0003750D01*
X0004350D02*
Y0013700D01*
X0006600D02*
X0004350D01*
X0006600D02*
Y0011900D01*
X0003750D01*
X0006580Y0013700D02*
Y0011900D01*
X0006490Y0013700D02*
Y0011900D01*
X0006400Y0013700D02*
Y0011900D01*
X0006310Y0013700D02*
Y0011900D01*
X0006220Y0013700D02*
Y0011900D01*
X0006130Y0013700D02*
Y0011900D01*
X0006040Y0013700D02*
Y0011900D01*
X0005950Y0013700D02*
Y0011900D01*
X0005860Y0013700D02*
Y0011900D01*
X0005770Y0013700D02*
Y0011900D01*
X0005680Y0013700D02*
Y0011900D01*
X0005590Y0013700D02*
Y0011900D01*
X0005500Y0013700D02*
Y0011900D01*
X0005410Y0013700D02*
Y0011900D01*
X0005320Y0013700D02*
Y0011900D01*
X0005230Y0013700D02*
Y0011900D01*
X0005140Y0013700D02*
Y0011900D01*
X-0000560Y0017540D02*
Y0016050D01*
X0001110Y0017540D02*
X-0000560D01*
X0001200Y0017450D02*
X-0000600D01*
X0001290Y0017360D02*
X-0000600D01*
X0001300Y0017270D02*
X-0000600D01*
X0001300Y0017180D02*
X-0000600D01*
X0001300Y0017090D02*
X-0000600D01*
X0001300Y0017000D02*
X-0000600D01*
X0001300Y0016910D02*
X-0000600D01*
X0001300Y0016820D02*
X-0000600D01*
X0001300Y0016730D02*
X-0000600D01*
X0001300Y0016640D02*
X-0000600D01*
X0001000Y0016550D02*
X-0000600D01*
X0001000Y0016460D02*
X-0000600D01*
X0001000Y0016370D02*
X-0000600D01*
X0001000Y0016280D02*
X-0000600D01*
X0001000Y0016190D02*
X-0000600D01*
X0001000Y0016100D02*
X-0000600D01*
X0001000Y0016010D02*
X0000050D01*
X0001000Y0015920D02*
X0000050D01*
X0001000Y0015830D02*
X0000050D01*
X0001000Y0015740D02*
X0000050D01*
X0001000Y0015650D02*
X0000050D01*
X0001000Y0015560D02*
X0000050D01*
X0001000Y0015470D02*
X0000050D01*
X0001000Y0015380D02*
X0000050D01*
X0001000Y0015290D02*
X0000050D01*
X0001000Y0015200D02*
X0000350D01*
X0001000Y0015110D02*
X0000350D01*
X0001000Y0015020D02*
X0000350D01*
X0001000Y0014930D02*
X0000350D01*
X0001000Y0014840D02*
X0000350D01*
X0001000Y0014750D02*
X0000350D01*
X0001000Y0014660D02*
X0000350D01*
X0001000Y0014570D02*
X0000350D01*
X0001000Y0014480D02*
X0000350D01*
X0001000Y0014390D02*
X0000350D01*
X0001000Y0014300D02*
X0000350D01*
X0001000Y0014210D02*
X0000350D01*
X0001000Y0014120D02*
X0000350D01*
X0001000Y0014030D02*
X0000350D01*
X0001000Y0013940D02*
X0000350D01*
X0001000Y0013850D02*
X0000350D01*
X0001000Y0013760D02*
X0000350D01*
X0001000Y0013670D02*
X0000350D01*
X0001000Y0013580D02*
X0000350D01*
X0001000Y0013490D02*
X0000350D01*
X0001000Y0013400D02*
X0000350D01*
X0001000Y0013310D02*
X0000350D01*
X0001000Y0013220D02*
X-0000150D01*
X0001000Y0013130D02*
X-0000150D01*
X0001000Y0013040D02*
X-0000150D01*
X0001000Y0012950D02*
X-0000150D01*
X0001000Y0012860D02*
X0000200D01*
X0001000Y0012770D02*
X0000200D01*
X0001000Y0012680D02*
X0000200D01*
X0001000Y0012590D02*
X0000200D01*
X0001000Y0012500D02*
X0000200D01*
X0001000Y0012410D02*
X0000200D01*
X0001000Y0012320D02*
X0000200D01*
X0001000Y0012230D02*
X0000200D01*
X0001000Y0012140D02*
X0000200D01*
X0001000Y0012050D02*
X0000200D01*
X0001000Y0011960D02*
X0000200D01*
X0000920Y0011870D02*
X0000200D01*
X0000830Y0011780D02*
X0000200D01*
X0000340Y0017550D02*
Y0015250D01*
X0000250Y0017550D02*
Y0015250D01*
X0000160Y0017550D02*
Y0015250D01*
X0000070Y0017550D02*
Y0015250D01*
X-0000020Y0017550D02*
Y0016050D01*
X-0000110Y0017550D02*
Y0016050D01*
X0000740Y0011690D02*
X0000200D01*
X0000050Y0016050D02*
X-0000600D01*
X0000050D02*
Y0015250D01*
X0000350D02*
X0000050D01*
X0000350D02*
Y0013300D01*
X-0000150D01*
Y0012900D01*
X0000200D02*
X-0000150D01*
X0000200D02*
Y0011650D01*
X0000700D02*
X0000200D01*
X0001000Y0011950D02*
X0000700Y0011650D01*
X0001000Y0016600D02*
Y0011950D01*
X0001300Y0016600D02*
X0001000D01*
X0001300Y0017350D02*
Y0016600D01*
X0001100Y0017550D02*
X0001300Y0017350D01*
X0001100Y0017550D02*
X-0000550D01*
X-0000600Y0017500D01*
Y0016050D01*
X0001240Y0017410D02*
Y0016600D01*
X0001150Y0017500D02*
Y0016600D01*
X0001060Y0017550D02*
Y0016600D01*
X0000970Y0017550D02*
Y0011920D01*
X0000880Y0017550D02*
Y0011830D01*
X0000790Y0017550D02*
Y0011740D01*
X0000700Y0017550D02*
Y0011650D01*
X0000610Y0017550D02*
Y0011650D01*
X0000520Y0017550D02*
Y0011650D01*
X0000430Y0017550D02*
Y0011650D01*
X0000340Y0013300D02*
Y0011650D01*
X0000250Y0013300D02*
Y0011650D01*
X0000160Y0013300D02*
Y0012900D01*
X0000070Y0013300D02*
Y0012900D01*
X-0000020Y0013300D02*
Y0012900D01*
X-0000110Y0013300D02*
Y0012900D01*
X-0000200Y0017550D02*
Y0016050D01*
X-0000290Y0017550D02*
Y0016050D01*
X-0000380Y0017550D02*
Y0016050D01*
X-0000470Y0017550D02*
Y0016050D01*
X0002500Y0004410D02*
X-0001400D01*
X0001850Y0002000D02*
X-0001400D01*
X0001850D02*
Y-0001300D01*
X0002500D02*
X0001850D01*
X0002500Y0004950D02*
Y-0001300D01*
X0004750Y0007200D02*
X0002500Y0004950D01*
X0008450Y0007200D02*
X0004750D01*
X0008450Y0009900D02*
Y0007200D01*
Y0009900D02*
X0007050D01*
Y0009500D01*
X-0001400D01*
Y0002000D01*
X0008450Y0007290D02*
X-0001400D01*
X0008360Y0009900D02*
Y0007200D01*
X0008270Y0009900D02*
Y0007200D01*
X0008180Y0009900D02*
Y0007200D01*
X0008090Y0009900D02*
Y0007200D01*
X0008000Y0009900D02*
Y0007200D01*
X0007910Y0009900D02*
Y0007200D01*
X0007820Y0009900D02*
Y0007200D01*
X0007730Y0009900D02*
Y0007200D01*
X0007640Y0009900D02*
Y0007200D01*
X0007550Y0009900D02*
Y0007200D01*
X0007460Y0009900D02*
Y0007200D01*
X0007370Y0009900D02*
Y0007200D01*
X0007280Y0009900D02*
Y0007200D01*
X0007190Y0009900D02*
Y0007200D01*
X0007100Y0009900D02*
Y0007200D01*
X0007010Y0009500D02*
Y0007200D01*
X0006920Y0009500D02*
Y0007200D01*
X0006830Y0009500D02*
Y0007200D01*
X0006740Y0009500D02*
Y0007200D01*
X0006650Y0009500D02*
Y0007200D01*
X0006560Y0009500D02*
Y0007200D01*
X0006470Y0009500D02*
Y0007200D01*
X0006380Y0009500D02*
Y0007200D01*
X0006290Y0009500D02*
Y0007200D01*
X0006200Y0009500D02*
Y0007200D01*
X0006110Y0009500D02*
Y0007200D01*
X0006020Y0009500D02*
Y0007200D01*
X0005930Y0009500D02*
Y0007200D01*
X0005840Y0009500D02*
Y0007200D01*
X0005750Y0009500D02*
Y0007200D01*
X0005660Y0009500D02*
Y0007200D01*
X0005570Y0009500D02*
Y0007200D01*
X0005480Y0009500D02*
Y0007200D01*
X0005390Y0009500D02*
Y0007200D01*
X0005300Y0009500D02*
Y0007200D01*
X0005210Y0009500D02*
Y0007200D01*
X0005120Y0009500D02*
Y0007200D01*
X0005030Y0009500D02*
Y0007200D01*
X0004940Y0009500D02*
Y0007200D01*
X0004850Y0009500D02*
Y0007200D01*
X0004760Y0009500D02*
Y0007200D01*
X0004670Y0009500D02*
Y0007120D01*
X0004580Y0009500D02*
Y0007030D01*
X0004490Y0009500D02*
Y0006940D01*
X0004400Y0009500D02*
Y0006850D01*
X0004310Y0009500D02*
Y0006760D01*
X0004220Y0009500D02*
Y0006670D01*
X0004130Y0009500D02*
Y0006580D01*
X0004040Y0009500D02*
Y0006490D01*
X0003950Y0009500D02*
Y0006400D01*
X0003860Y0009500D02*
Y0006310D01*
X0003770Y0009500D02*
Y0006220D01*
X0003680Y0009500D02*
Y0006130D01*
X0003590Y0009500D02*
Y0006040D01*
X0003500Y0009500D02*
Y0005950D01*
X0003410Y0009500D02*
Y0005860D01*
X0003320Y0009500D02*
Y0005770D01*
X0003230Y0009500D02*
Y0005680D01*
X0003140Y0009500D02*
Y0005590D01*
X0003050Y0009500D02*
Y0005500D01*
X0002960Y0009500D02*
Y0005410D01*
X0002870Y0009500D02*
Y0005320D01*
X0002780Y0009500D02*
Y0005230D01*
X0002690Y0009500D02*
Y0005140D01*
X0002600Y0009500D02*
Y0005050D01*
X0002510Y0009500D02*
Y0004960D01*
X0002420Y0009500D02*
Y-0001300D01*
X0002330Y0009500D02*
Y-0001300D01*
X0002240Y0009500D02*
Y-0001300D01*
X0002150Y0009500D02*
Y-0001300D01*
X0002060Y0009500D02*
Y-0001300D01*
X0001970Y0009500D02*
Y-0001300D01*
X0001880Y0009500D02*
Y-0001300D01*
X0001790Y0009500D02*
Y0002000D01*
X0001700Y0009500D02*
Y0002000D01*
X0001610Y0009500D02*
Y0002000D01*
X0001520Y0009500D02*
Y0002000D01*
X0001430Y0009500D02*
Y0002000D01*
X0001340Y0009500D02*
Y0002000D01*
X0001250Y0009500D02*
Y0002000D01*
X0001160Y0009500D02*
Y0002000D01*
X0001070Y0009500D02*
Y0002000D01*
X0000980Y0009500D02*
Y0002000D01*
X0000890Y0009500D02*
Y0002000D01*
X0000800Y0009500D02*
Y0002000D01*
X0000710Y0009500D02*
Y0002000D01*
X0000620Y0009500D02*
Y0002000D01*
X0000530Y0009500D02*
Y0002000D01*
X0000440Y0009500D02*
Y0002000D01*
X0000350Y0009500D02*
Y0002000D01*
X0000260Y0009500D02*
Y0002000D01*
X0000170Y0009500D02*
Y0002000D01*
X0000080Y0009500D02*
Y0002000D01*
X-0000010Y0009500D02*
Y0002000D01*
X-0000100Y0009500D02*
Y0002000D01*
X-0000190Y0009500D02*
Y0002000D01*
X-0000280Y0009500D02*
Y0002000D01*
X-0000370Y0009500D02*
Y0002000D01*
X-0000460Y0009500D02*
Y0002000D01*
X-0000550Y0009500D02*
Y0002000D01*
X-0000640Y0009500D02*
Y0002000D01*
X-0000730Y0009500D02*
Y0002000D01*
X-0000820Y0009500D02*
Y0002000D01*
X-0000910Y0009500D02*
Y0002000D01*
X-0001000Y0009500D02*
Y0002000D01*
X-0001090Y0009500D02*
Y0002000D01*
X-0001180Y0009500D02*
Y0002000D01*
X-0001270Y0009500D02*
Y0002000D01*
X0002500Y-0001260D02*
X0001850D01*
X0008450Y0009810D02*
X0007050D01*
X0008450Y0009720D02*
X0007050D01*
X0008450Y0009630D02*
X0007050D01*
X0008450Y0009540D02*
X0007050D01*
X0008450Y0009450D02*
X-0001400D01*
X0008450Y0009360D02*
X-0001400D01*
X0008450Y0009270D02*
X-0001400D01*
X0008450Y0009180D02*
X-0001400D01*
X0008450Y0009090D02*
X-0001400D01*
X0008450Y0009000D02*
X-0001400D01*
X0008450Y0008910D02*
X-0001400D01*
X0008450Y0008820D02*
X-0001400D01*
X0008450Y0008730D02*
X-0001400D01*
X0008450Y0008640D02*
X-0001400D01*
X0008450Y0008550D02*
X-0001400D01*
X0008450Y0008460D02*
X-0001400D01*
X0008450Y0008370D02*
X-0001400D01*
X0008450Y0008280D02*
X-0001400D01*
X0008450Y0008190D02*
X-0001400D01*
X0008450Y0008100D02*
X-0001400D01*
X0008450Y0008010D02*
X-0001400D01*
X0008450Y0007920D02*
X-0001400D01*
X0008450Y0007830D02*
X-0001400D01*
X0008450Y0007740D02*
X-0001400D01*
X0008450Y0007650D02*
X-0001400D01*
X0008450Y0007560D02*
X-0001400D01*
X0008450Y0007470D02*
X-0001400D01*
X0008450Y0007380D02*
X-0001400D01*
X0004750Y0007200D02*
X-0001400D01*
X0004660Y0007110D02*
X-0001400D01*
X0004570Y0007020D02*
X-0001400D01*
X0004480Y0006930D02*
X-0001400D01*
X0004390Y0006840D02*
X-0001400D01*
X0004300Y0006750D02*
X-0001400D01*
X0004210Y0006660D02*
X-0001400D01*
X0004120Y0006570D02*
X-0001400D01*
X0004030Y0006480D02*
X-0001400D01*
X0003940Y0006390D02*
X-0001400D01*
X0003850Y0006300D02*
X-0001400D01*
X0003760Y0006210D02*
X-0001400D01*
X0003670Y0006120D02*
X-0001400D01*
X0003580Y0006030D02*
X-0001400D01*
X0003490Y0005940D02*
X-0001400D01*
X0003400Y0005850D02*
X-0001400D01*
X0003310Y0005760D02*
X-0001400D01*
X0003220Y0005670D02*
X-0001400D01*
X0003130Y0005580D02*
X-0001400D01*
X0003040Y0005490D02*
X-0001400D01*
X0002950Y0005400D02*
X-0001400D01*
X0002860Y0005310D02*
X-0001400D01*
X0002770Y0005220D02*
X-0001400D01*
X0002680Y0005130D02*
X-0001400D01*
X0002590Y0005040D02*
X-0001400D01*
X0002500Y0004950D02*
X-0001400D01*
X0002500Y0004860D02*
X-0001400D01*
X0002500Y0004770D02*
X-0001400D01*
X0002500Y0004680D02*
X-0001400D01*
X0002500Y0004590D02*
X-0001400D01*
X0002500Y0004500D02*
X-0001400D01*
X-0001360Y0009500D02*
Y0002000D01*
X0002500Y0004320D02*
X-0001400D01*
X0002500Y0004230D02*
X-0001400D01*
X0002500Y0004140D02*
X-0001400D01*
X0002500Y0004050D02*
X-0001400D01*
X0002500Y0003960D02*
X-0001400D01*
X0002500Y0003870D02*
X-0001400D01*
X0002500Y0003780D02*
X-0001400D01*
X0002500Y0003690D02*
X-0001400D01*
X0002500Y0003600D02*
X-0001400D01*
X0002500Y0003510D02*
X-0001400D01*
X0002500Y0003420D02*
X-0001400D01*
X0002500Y0003330D02*
X-0001400D01*
X0002500Y0003240D02*
X-0001400D01*
X0002500Y0003150D02*
X-0001400D01*
X0002500Y0003060D02*
X-0001400D01*
X0002500Y0002970D02*
X-0001400D01*
X0002500Y0002880D02*
X-0001400D01*
X0002500Y0002790D02*
X-0001400D01*
X0002500Y0002700D02*
X-0001400D01*
X0002500Y0002610D02*
X-0001400D01*
X0002500Y0002520D02*
X-0001400D01*
X0002500Y0002430D02*
X-0001400D01*
X0002500Y0002340D02*
X-0001400D01*
X0002500Y0002250D02*
X-0001400D01*
X0002500Y0002160D02*
X-0001400D01*
X0002500Y0002070D02*
X-0001400D01*
X0002500Y0001980D02*
X0001850D01*
X0002500Y0001890D02*
X0001850D01*
X0002500Y0001800D02*
X0001850D01*
X0002500Y0001710D02*
X0001850D01*
X0002500Y0001620D02*
X0001850D01*
X0002500Y0001530D02*
X0001850D01*
X0002500Y0001440D02*
X0001850D01*
X0002500Y0001350D02*
X0001850D01*
X0002500Y0001260D02*
X0001850D01*
X0002500Y0001170D02*
X0001850D01*
X0002500Y0001080D02*
X0001850D01*
X0002500Y0000990D02*
X0001850D01*
X0002500Y0000900D02*
X0001850D01*
X0002500Y0000810D02*
X0001850D01*
X0002500Y0000720D02*
X0001850D01*
X0002500Y0000630D02*
X0001850D01*
X0002500Y0000540D02*
X0001850D01*
X0002500Y0000450D02*
X0001850D01*
X0002500Y0000360D02*
X0001850D01*
X0002500Y0000270D02*
X0001850D01*
X0002500Y0000180D02*
X0001850D01*
X0002500Y0000090D02*
X0001850D01*
X0002500Y0000000D02*
X0001850D01*
X0002500Y-0000090D02*
X0001850D01*
X0002500Y-0000180D02*
X0001850D01*
X0002500Y-0000270D02*
X0001850D01*
X0002500Y-0000360D02*
X0001850D01*
X0002500Y-0000450D02*
X0001850D01*
X0002500Y-0000540D02*
X0001850D01*
X0002500Y-0000630D02*
X0001850D01*
X0002500Y-0000720D02*
X0001850D01*
X0002500Y-0000810D02*
X0001850D01*
X0002500Y-0000900D02*
X0001850D01*
X0002500Y-0000990D02*
X0001850D01*
X0002500Y-0001080D02*
X0001850D01*
X0002500Y-0001170D02*
X0001850D01*
X0009080Y0009650D02*
Y0007200D01*
X0008990Y0009650D02*
Y0007200D01*
X0010900Y0014530D02*
X0008950D01*
X0010900Y0014440D02*
X0008950D01*
X0010900Y0014350D02*
X0008950D01*
X0010900Y0014260D02*
X0008950D01*
X0010900Y0014170D02*
X0008950D01*
X0010900Y0014080D02*
X0008950D01*
X0010900Y0013990D02*
X0008950D01*
X0010900Y0013900D02*
X0008950D01*
X0010900Y0013810D02*
X0008950D01*
X0010900Y0013720D02*
X0008950D01*
X0010900Y0013630D02*
X0008950D01*
X0010900Y0013540D02*
X0008950D01*
X0010900Y0013450D02*
X0008950D01*
X0010900Y0013360D02*
X0008950D01*
X0010900Y0013270D02*
X0008950D01*
X0010900Y0013180D02*
X0008950D01*
X0010900Y0013090D02*
X0008950D01*
X0010900Y0013000D02*
X0008950D01*
X0010900Y0012910D02*
X0008950D01*
X0010900Y0012820D02*
X0008950D01*
X0010900Y0012730D02*
X0008950D01*
X0010900Y0012640D02*
X0008950D01*
X0010900Y0012550D02*
X0008950D01*
X0010900Y0012460D02*
X0008950D01*
X0010900Y0012370D02*
X0008950D01*
X0010900Y0012280D02*
X0008950D01*
X0010900Y0012190D02*
X0008950D01*
X0010900Y0012100D02*
X0008950D01*
X0010900Y0012010D02*
X0008950D01*
X0010900Y0011920D02*
X0008950D01*
X0010900Y0011830D02*
X0008950D01*
X0010900Y0011740D02*
X0008950D01*
X0010900Y0011650D02*
X0008950D01*
X0010900Y0011560D02*
X0008950D01*
X0010900Y0011470D02*
X0008950D01*
X0010900Y0011380D02*
X0008950D01*
X0010900Y0011290D02*
X0008950D01*
X0010900Y0011200D02*
X0008950D01*
X0010900Y0011110D02*
X0008950D01*
X0010900Y0011020D02*
X0008950D01*
X0010900Y0010930D02*
X0008950D01*
X0010900Y0010840D02*
X0008950D01*
X0010900Y0010750D02*
X0009250D01*
X0010900Y0010660D02*
X0009250D01*
X0010900Y0010570D02*
X0009250D01*
X0010900Y0010480D02*
X0009250D01*
X0010900Y0010390D02*
X0009250D01*
X0010900Y0010300D02*
X0009250D01*
X0010900Y0010210D02*
X0009250D01*
X0010900Y0010120D02*
X0009250D01*
X0010900Y0010030D02*
X0009250D01*
X0010900Y0009940D02*
X0009250D01*
X0010900Y0009850D02*
X0009250D01*
X0010900Y0009760D02*
X0009250D01*
X0010900Y0009670D02*
X0009250D01*
X0010900Y0009580D02*
X0008950D01*
X0010900Y0009490D02*
X0008950D01*
X0010900Y0009400D02*
X0008950D01*
X0010900Y0009310D02*
X0008950D01*
X0010900Y0009220D02*
X0008950D01*
X0010900Y0009130D02*
X0008950D01*
X0010900Y0009040D02*
X0008950D01*
X0010900Y0008950D02*
X0008950D01*
X0010900Y0008860D02*
X0008950D01*
X0010900Y0008770D02*
X0008950D01*
X0010900Y0008680D02*
X0008950D01*
X0010900Y0008590D02*
X0008950D01*
X0010900Y0008500D02*
X0008950D01*
X0010900Y0008410D02*
X0008950D01*
X0010900Y0008320D02*
X0008950D01*
X0010900Y0008230D02*
X0008950D01*
X0010900Y0008140D02*
X0008950D01*
X0010900Y0008050D02*
X0008950D01*
X0010900Y0007960D02*
X0008950D01*
X0010900Y0007870D02*
X0008950D01*
X0010900Y0007780D02*
X0008950D01*
X0010900Y0007690D02*
X0008950D01*
X0010900Y0007600D02*
X0008950D01*
X0010900Y0007510D02*
X0008950D01*
X0010900Y0007420D02*
X0008950D01*
X0010900Y0007330D02*
X0008950D01*
X0009170Y0014550D02*
Y0010800D01*
X0009080Y0014550D02*
Y0010800D01*
X0008990Y0014550D02*
Y0010800D01*
X0010900Y0007240D02*
X0008950D01*
Y0009650D02*
Y0007200D01*
X0009250Y0009650D02*
X0008950D01*
X0009250Y0010800D02*
Y0009650D01*
Y0010800D02*
X0008950D01*
Y0014550D02*
Y0010800D01*
X0010900Y0014550D02*
X0008950D01*
X0010900D02*
Y0007200D01*
X0008950D01*
X0010880Y0014550D02*
Y0007200D01*
X0010790Y0014550D02*
Y0007200D01*
X0010700Y0014550D02*
Y0007200D01*
X0010610Y0014550D02*
Y0007200D01*
X0010520Y0014550D02*
Y0007200D01*
X0010430Y0014550D02*
Y0007200D01*
X0010340Y0014550D02*
Y0007200D01*
X0010250Y0014550D02*
Y0007200D01*
X0010160Y0014550D02*
Y0007200D01*
X0010070Y0014550D02*
Y0007200D01*
X0009980Y0014550D02*
Y0007200D01*
X0009890Y0014550D02*
Y0007200D01*
X0009800Y0014550D02*
Y0007200D01*
X0009710Y0014550D02*
Y0007200D01*
X0009620Y0014550D02*
Y0007200D01*
X0009530Y0014550D02*
Y0007200D01*
X0009440Y0014550D02*
Y0007200D01*
X0009350Y0014550D02*
Y0007200D01*
X0009260Y0014550D02*
Y0007200D01*
X0009170Y0009650D02*
Y0007200D01*
X0008440Y0005850D02*
Y0001400D01*
X0008400Y0002600D02*
Y0001400D01*
X0009850D02*
X0008400D01*
X0009850Y0002950D02*
Y0001400D01*
X0011150Y0002950D02*
X0009850D01*
X0011150D02*
Y0001400D01*
X0012650D02*
X0011150D01*
X0012650Y0004400D02*
Y0001400D01*
Y0004400D02*
X0011400D01*
Y0005850D02*
Y0004400D01*
Y0005850D02*
X0008400D01*
Y0002600D01*
X0012580Y0004400D02*
Y0001400D01*
X0012490Y0004400D02*
Y0001400D01*
X0012400Y0004400D02*
Y0001400D01*
X0012310Y0004400D02*
Y0001400D01*
X0012220Y0004400D02*
Y0001400D01*
X0012130Y0004400D02*
Y0001400D01*
X0012040Y0004400D02*
Y0001400D01*
X0011950Y0004400D02*
Y0001400D01*
X0011860Y0004400D02*
Y0001400D01*
X0011770Y0004400D02*
Y0001400D01*
X0011680Y0004400D02*
Y0001400D01*
X0011590Y0004400D02*
Y0001400D01*
X0011500Y0004400D02*
Y0001400D01*
X0011410Y0004400D02*
Y0001400D01*
X0011320Y0005850D02*
Y0001400D01*
X0011230Y0005850D02*
Y0001400D01*
X0011140Y0005850D02*
Y0002950D01*
X0011050Y0005850D02*
Y0002950D01*
X0010960Y0005850D02*
Y0002950D01*
X0010870Y0005850D02*
Y0002950D01*
X0010780Y0005850D02*
Y0002950D01*
X0010690Y0005850D02*
Y0002950D01*
X0010600Y0005850D02*
Y0002950D01*
X0010510Y0005850D02*
Y0002950D01*
X0010420Y0005850D02*
Y0002950D01*
X0010330Y0005850D02*
Y0002950D01*
X0010240Y0005850D02*
Y0002950D01*
X0010150Y0005850D02*
Y0002950D01*
X0010060Y0005850D02*
Y0002950D01*
X0009970Y0005850D02*
Y0002950D01*
X0009880Y0005850D02*
Y0002950D01*
X0009790Y0005850D02*
Y0001400D01*
X0009700Y0005850D02*
Y0001400D01*
X0009610Y0005850D02*
Y0001400D01*
X0009520Y0005850D02*
Y0001400D01*
X0009430Y0005850D02*
Y0001400D01*
X0009340Y0005850D02*
Y0001400D01*
X0009250Y0005850D02*
Y0001400D01*
X0009160Y0005850D02*
Y0001400D01*
X0009070Y0005850D02*
Y0001400D01*
X0008980Y0005850D02*
Y0001400D01*
X0008890Y0005850D02*
Y0001400D01*
X0008800Y0005850D02*
Y0001400D01*
X0008710Y0005850D02*
Y0001400D01*
X0008620Y0005850D02*
Y0001400D01*
X0008530Y0005850D02*
Y0001400D01*
X0009850Y0001440D02*
X0008400D01*
X0011400Y0005760D02*
X0008400D01*
X0011400Y0005670D02*
X0008400D01*
X0011400Y0005580D02*
X0008400D01*
X0011400Y0005490D02*
X0008400D01*
X0011400Y0005400D02*
X0008400D01*
X0011400Y0005310D02*
X0008400D01*
X0011400Y0005220D02*
X0008400D01*
X0011400Y0005130D02*
X0008400D01*
X0011400Y0005040D02*
X0008400D01*
X0011400Y0004950D02*
X0008400D01*
X0011400Y0004860D02*
X0008400D01*
X0011400Y0004770D02*
X0008400D01*
X0011400Y0004680D02*
X0008400D01*
X0011400Y0004590D02*
X0008400D01*
X0011400Y0004500D02*
X0008400D01*
X0011400Y0004410D02*
X0008400D01*
X0012650Y0004320D02*
X0008400D01*
X0012650Y0004230D02*
X0008400D01*
X0012650Y0004140D02*
X0008400D01*
X0012650Y0004050D02*
X0008400D01*
X0012650Y0003960D02*
X0008400D01*
X0012650Y0003870D02*
X0008400D01*
X0012650Y0003780D02*
X0008400D01*
X0012650Y0003690D02*
X0008400D01*
X0012650Y0003600D02*
X0008400D01*
X0012650Y0003510D02*
X0008400D01*
X0012650Y0003420D02*
X0008400D01*
X0012650Y0003330D02*
X0008400D01*
X0012650Y0003240D02*
X0008400D01*
X0012650Y0003150D02*
X0008400D01*
X0012650Y0003060D02*
X0008400D01*
X0012650Y0002970D02*
X0008400D01*
X0009850Y0002880D02*
X0008400D01*
X0009850Y0002790D02*
X0008400D01*
X0009850Y0002700D02*
X0008400D01*
X0009850Y0002610D02*
X0008400D01*
X0009850Y0002520D02*
X0008400D01*
X0009850Y0002430D02*
X0008400D01*
X0009850Y0002340D02*
X0008400D01*
X0009850Y0002250D02*
X0008400D01*
X0009850Y0002160D02*
X0008400D01*
X0009850Y0002070D02*
X0008400D01*
X0009850Y0001980D02*
X0008400D01*
X0009850Y0001890D02*
X0008400D01*
X0009850Y0001800D02*
X0008400D01*
X0009850Y0001710D02*
X0008400D01*
X0009850Y0001620D02*
X0008400D01*
X0009850Y0001530D02*
X0008400D01*
X0012650Y0002880D02*
X0011150D01*
X0012650Y0002790D02*
X0011150D01*
X0012650Y0002700D02*
X0011150D01*
X0012650Y0002610D02*
X0011150D01*
X0012650Y0002520D02*
X0011150D01*
X0012650Y0002430D02*
X0011150D01*
X0012650Y0002340D02*
X0011150D01*
X0012650Y0002250D02*
X0011150D01*
X0012650Y0002160D02*
X0011150D01*
X0012650Y0002070D02*
X0011150D01*
X0012650Y0001980D02*
X0011150D01*
X0012650Y0001890D02*
X0011150D01*
X0012650Y0001800D02*
X0011150D01*
X0012650Y0001710D02*
X0011150D01*
X0012650Y0001620D02*
X0011150D01*
X0012650Y0001530D02*
X0011150D01*
X0012650Y0001440D02*
X0011150D01*
X0005750Y0005900D02*
Y0003750D01*
X0005660Y0005900D02*
Y0003750D01*
X0005570Y0005900D02*
Y0003750D01*
X0005480Y0005900D02*
Y0003750D01*
X0005390Y0005900D02*
Y0003750D01*
X0005300Y0005900D02*
Y0003750D01*
X0005210Y0005900D02*
Y0003750D01*
X0005120Y0005900D02*
Y0003750D01*
X0005030Y0005830D02*
Y0003750D01*
X0004940Y0005740D02*
Y0003750D01*
X0004850Y0005650D02*
Y0003750D01*
X0004760Y0005560D02*
Y0003750D01*
X0004670Y0005470D02*
Y0003750D01*
X0004580Y0005380D02*
Y0003750D01*
X0004490Y0005290D02*
Y0003750D01*
X0007600Y0005860D02*
X0005060D01*
X0007600Y0005770D02*
X0004970D01*
X0007600Y0005680D02*
X0004880D01*
X0007600Y0005590D02*
X0004790D01*
X0007600Y0005500D02*
X0004700D01*
X0007600Y0005410D02*
X0004610D01*
X0007600Y0005320D02*
X0004520D01*
X0007600Y0005230D02*
X0004450D01*
X0007600Y0005140D02*
X0004450D01*
X0007600Y0005050D02*
X0004450D01*
X0007600Y0004960D02*
X0004450D01*
X0007600Y0004870D02*
X0004450D01*
X0007600Y0004780D02*
X0004450D01*
X0007600Y0004690D02*
X0004450D01*
X0007600Y0004600D02*
X0004450D01*
X0007600Y0004510D02*
X0004450D01*
X0007600Y0004420D02*
X0004450D01*
X0007600Y0004330D02*
X0004450D01*
X0007600Y0004240D02*
X0004450D01*
X0007600Y0004150D02*
X0004450D01*
X0007600Y0004060D02*
X0004450D01*
X0007600Y0003970D02*
X0004450D01*
X0007600Y0003880D02*
X0004450D01*
X0007600Y0003790D02*
X0004450D01*
Y0005250D02*
Y0003750D01*
X0005100Y0005900D02*
X0004450Y0005250D01*
X0007600Y0005900D02*
X0005100D01*
X0007600D02*
Y0003750D01*
X0004450D01*
X0007550Y0005900D02*
Y0003750D01*
X0007460Y0005900D02*
Y0003750D01*
X0007370Y0005900D02*
Y0003750D01*
X0007280Y0005900D02*
Y0003750D01*
X0007190Y0005900D02*
Y0003750D01*
X0007100Y0005900D02*
Y0003750D01*
X0007010Y0005900D02*
Y0003750D01*
X0006920Y0005900D02*
Y0003750D01*
X0006830Y0005900D02*
Y0003750D01*
X0006740Y0005900D02*
Y0003750D01*
X0006650Y0005900D02*
Y0003750D01*
X0006560Y0005900D02*
Y0003750D01*
X0006470Y0005900D02*
Y0003750D01*
X0006380Y0005900D02*
Y0003750D01*
X0006290Y0005900D02*
Y0003750D01*
X0006200Y0005900D02*
Y0003750D01*
X0006110Y0005900D02*
Y0003750D01*
X0006020Y0005900D02*
Y0003750D01*
X0005930Y0005900D02*
Y0003750D01*
X0005840Y0005900D02*
Y0003750D01*
X0008220Y0014700D02*
Y0010700D01*
X0008130Y0014700D02*
Y0010700D01*
X0008040Y0014700D02*
Y0010700D01*
X0007950Y0014700D02*
Y0010700D01*
X0007860Y0014700D02*
Y0010700D01*
X0007770Y0014700D02*
Y0010700D01*
X0007680Y0014700D02*
Y0010700D01*
X0007590Y0014700D02*
Y0010700D01*
X0007500Y0014700D02*
Y0010700D01*
X0007410Y0014700D02*
Y0010700D01*
X0007320Y0014700D02*
Y0010700D01*
X0007230Y0014700D02*
Y0010700D01*
X0007140Y0014700D02*
Y0014250D01*
X0007050Y0014700D02*
Y0014250D01*
X0006960Y0014700D02*
Y0014250D01*
X0006870Y0014700D02*
Y0014250D01*
X0006780Y0014700D02*
Y0014250D01*
X0006690Y0014700D02*
Y0014250D01*
X0006600Y0014700D02*
Y0014250D01*
X0006510Y0014700D02*
Y0014250D01*
X0006420Y0014700D02*
Y0014250D01*
X0006330Y0014700D02*
Y0014250D01*
X0006240Y0014700D02*
Y0014250D01*
X0006150Y0014700D02*
Y0014250D01*
X0006060Y0014700D02*
Y0014250D01*
X0005970Y0014700D02*
Y0014250D01*
X0005880Y0014700D02*
Y0014250D01*
X0005790Y0014700D02*
Y0014250D01*
X0005700Y0014700D02*
Y0014250D01*
X0005610Y0014700D02*
Y0014250D01*
X0005520Y0014700D02*
Y0014250D01*
X0005430Y0014700D02*
Y0014250D01*
X0005340Y0014700D02*
Y0014250D01*
X0005250Y0014700D02*
Y0014250D01*
X0005160Y0014700D02*
Y0014250D01*
X0005070Y0014700D02*
Y0014250D01*
X0004980Y0014700D02*
Y0014250D01*
X0008450Y0010740D02*
X0007150D01*
X0004890Y0014700D02*
Y0014250D01*
X0008450Y0014610D02*
X0004850D01*
X0008450Y0014520D02*
X0004850D01*
X0008450Y0014430D02*
X0004850D01*
X0008450Y0014250D02*
X0007150D01*
X0008450Y0014160D02*
X0007150D01*
X0008450Y0014070D02*
X0007150D01*
X0008450Y0013980D02*
X0007150D01*
X0008450Y0013890D02*
X0007150D01*
X0008450Y0013800D02*
X0007150D01*
X0008450Y0013710D02*
X0007150D01*
X0008450Y0013620D02*
X0007150D01*
X0008450Y0013530D02*
X0007150D01*
X0008450Y0013440D02*
X0007150D01*
X0008450Y0013350D02*
X0007150D01*
X0008450Y0013260D02*
X0007150D01*
X0008450Y0013170D02*
X0007150D01*
X0008450Y0013080D02*
X0007150D01*
X0008450Y0012990D02*
X0007150D01*
X0008450Y0012900D02*
X0007150D01*
X0008450Y0012810D02*
X0007150D01*
X0008450Y0012720D02*
X0007150D01*
X0008450Y0012630D02*
X0007150D01*
X0008450Y0012540D02*
X0007150D01*
X0008450Y0012450D02*
X0007150D01*
X0008450Y0012360D02*
X0007150D01*
X0008450Y0012270D02*
X0007150D01*
X0008450Y0012180D02*
X0007150D01*
X0008450Y0012090D02*
X0007150D01*
X0008450Y0012000D02*
X0007150D01*
X0008450Y0011910D02*
X0007150D01*
X0008450Y0011820D02*
X0007150D01*
X0008450Y0011730D02*
X0007150D01*
X0008450Y0011640D02*
X0007150D01*
X0008450Y0011550D02*
X0007150D01*
X0008450Y0011460D02*
X0007150D01*
X0008450Y0011370D02*
X0007150D01*
X0008450Y0011280D02*
X0007150D01*
X0008450Y0011190D02*
X0007150D01*
X0008450Y0011100D02*
X0007150D01*
X0008450Y0011010D02*
X0007150D01*
X0008450Y0010920D02*
X0007150D01*
X0008450Y0010830D02*
X0007150D01*
X0008450Y0014340D02*
X0004850D01*
Y0014700D02*
Y0014250D01*
X0008450Y0014700D02*
X0004850D01*
X0008450D02*
Y0010700D01*
X0007150D01*
Y0014250D02*
Y0010700D01*
Y0014250D02*
X0004850D01*
X0008400Y0014700D02*
Y0010700D01*
X0008310Y0014700D02*
Y0010700D01*
G54D81*
G01X0003608Y0009714D02*
Y0008494D01*
Y0009714D02*
X0001892D01*
Y0008490D01*
X0001793D01*
Y0007840D01*
X0003707D02*
X0001793D01*
X0003707Y0008494D02*
Y0007840D01*
Y0008494D02*
X0003608D01*
X0003696D02*
Y0007840D01*
X0003687Y0008494D02*
Y0007840D01*
X0003678Y0008494D02*
Y0007840D01*
X0003669Y0008494D02*
Y0007840D01*
X0003660Y0008494D02*
Y0007840D01*
X0003651Y0008494D02*
Y0007840D01*
X0003642Y0008494D02*
Y0007840D01*
X0003633Y0008494D02*
Y0007840D01*
X0003624Y0008494D02*
Y0007840D01*
X0003615Y0008494D02*
Y0007840D01*
X0003606Y0009714D02*
Y0007840D01*
X0003597Y0009714D02*
Y0007840D01*
X0003588Y0009714D02*
Y0007840D01*
X0003579Y0009714D02*
Y0007840D01*
X0003570Y0009714D02*
Y0007840D01*
X0003561Y0009714D02*
Y0007840D01*
X0003552Y0009714D02*
Y0007840D01*
X0003543Y0009714D02*
Y0007840D01*
X0003534Y0009714D02*
Y0007840D01*
X0003525Y0009714D02*
Y0007840D01*
X0003516Y0009714D02*
Y0007840D01*
X0003507Y0009714D02*
Y0007840D01*
X0003498Y0009714D02*
Y0007840D01*
X0003489Y0009714D02*
Y0007840D01*
X0003480Y0009714D02*
Y0007840D01*
X0003471Y0009714D02*
Y0007840D01*
X0003462Y0009714D02*
Y0007840D01*
X0003453Y0009714D02*
Y0007840D01*
X0003444Y0009714D02*
Y0007840D01*
X0003435Y0009714D02*
Y0007840D01*
X0003426Y0009714D02*
Y0007840D01*
X0003417Y0009714D02*
Y0007840D01*
X0003408Y0009714D02*
Y0007840D01*
X0003399Y0009714D02*
Y0007840D01*
X0003390Y0009714D02*
Y0007840D01*
X0003381Y0009714D02*
Y0007840D01*
X0003372Y0009714D02*
Y0007840D01*
X0003363Y0009714D02*
Y0007840D01*
X0003354Y0009714D02*
Y0007840D01*
X0003345Y0009714D02*
Y0007840D01*
X0003336Y0009714D02*
Y0007840D01*
X0003327Y0009714D02*
Y0007840D01*
X0003318Y0009714D02*
Y0007840D01*
X0003309Y0009714D02*
Y0007840D01*
X0003300Y0009714D02*
Y0007840D01*
X0003291Y0009714D02*
Y0007840D01*
X0003282Y0009714D02*
Y0007840D01*
X0003273Y0009714D02*
Y0007840D01*
X0003264Y0009714D02*
Y0007840D01*
X0003255Y0009714D02*
Y0007840D01*
X0003246Y0009714D02*
Y0007840D01*
X0003237Y0009714D02*
Y0007840D01*
X0003228Y0009714D02*
Y0007840D01*
X0003219Y0009714D02*
Y0007840D01*
X0003210Y0009714D02*
Y0007840D01*
X0003201Y0009714D02*
Y0007840D01*
X0003192Y0009714D02*
Y0007840D01*
X0003183Y0009714D02*
Y0007840D01*
X0003174Y0009714D02*
Y0007840D01*
X0003165Y0009714D02*
Y0007840D01*
X0003156Y0009714D02*
Y0007840D01*
X0003147Y0009714D02*
Y0007840D01*
X0003138Y0009714D02*
Y0007840D01*
X0003129Y0009714D02*
Y0007840D01*
X0003120Y0009714D02*
Y0007840D01*
X0003111Y0009714D02*
Y0007840D01*
X0003102Y0009714D02*
Y0007840D01*
X0003093Y0009714D02*
Y0007840D01*
X0003084Y0009714D02*
Y0007840D01*
X0003075Y0009714D02*
Y0007840D01*
X0003066Y0009714D02*
Y0007840D01*
X0003057Y0009714D02*
Y0007840D01*
X0003048Y0009714D02*
Y0007840D01*
X0003039Y0009714D02*
Y0007840D01*
X0003030Y0009714D02*
Y0007840D01*
X0003021Y0009714D02*
Y0007840D01*
X0003012Y0009714D02*
Y0007840D01*
X0003003Y0009714D02*
Y0007840D01*
X0002994Y0009714D02*
Y0007840D01*
X0002985Y0009714D02*
Y0007840D01*
X0002976Y0009714D02*
Y0007840D01*
X0002967Y0009714D02*
Y0007840D01*
X0002958Y0009714D02*
Y0007840D01*
X0002949Y0009714D02*
Y0007840D01*
X0002940Y0009714D02*
Y0007840D01*
X0002931Y0009714D02*
Y0007840D01*
X0002922Y0009714D02*
Y0007840D01*
X0002913Y0009714D02*
Y0007840D01*
X0002904Y0009714D02*
Y0007840D01*
X0002895Y0009714D02*
Y0007840D01*
X0002886Y0009714D02*
Y0007840D01*
X0002877Y0009714D02*
Y0007840D01*
X0002868Y0009714D02*
Y0007840D01*
X0002859Y0009714D02*
Y0007840D01*
X0002850Y0009714D02*
Y0007840D01*
X0002841Y0009714D02*
Y0007840D01*
X0002832Y0009714D02*
Y0007840D01*
X0002823Y0009714D02*
Y0007840D01*
X0002814Y0009714D02*
Y0007840D01*
X0002805Y0009714D02*
Y0007840D01*
X0002796Y0009714D02*
Y0007840D01*
X0002787Y0009714D02*
Y0007840D01*
X0002778Y0009714D02*
Y0007840D01*
X0002769Y0009714D02*
Y0007840D01*
X0002760Y0009714D02*
Y0007840D01*
X0002751Y0009714D02*
Y0007840D01*
X0002742Y0009714D02*
Y0007840D01*
X0002733Y0009714D02*
Y0007840D01*
X0002724Y0009714D02*
Y0007840D01*
X0002715Y0009714D02*
Y0007840D01*
X0002706Y0009714D02*
Y0007840D01*
X0002697Y0009714D02*
Y0007840D01*
X0002688Y0009714D02*
Y0007840D01*
X0002679Y0009714D02*
Y0007840D01*
X0002670Y0009714D02*
Y0007840D01*
X0002661Y0009714D02*
Y0007840D01*
X0002652Y0009714D02*
Y0007840D01*
X0002643Y0009714D02*
Y0007840D01*
X0002634Y0009714D02*
Y0007840D01*
X0002625Y0009714D02*
Y0007840D01*
X0002616Y0009714D02*
Y0007840D01*
X0002607Y0009714D02*
Y0007840D01*
X0002598Y0009714D02*
Y0007840D01*
X0002589Y0009714D02*
Y0007840D01*
X0002580Y0009714D02*
Y0007840D01*
X0002571Y0009714D02*
Y0007840D01*
X0002562Y0009714D02*
Y0007840D01*
X0002553Y0009714D02*
Y0007840D01*
X0002544Y0009714D02*
Y0007840D01*
X0002535Y0009714D02*
Y0007840D01*
X0002526Y0009714D02*
Y0007840D01*
X0002517Y0009714D02*
Y0007840D01*
X0002508Y0009714D02*
Y0007840D01*
X0002499Y0009714D02*
Y0007840D01*
X0002490Y0009714D02*
Y0007840D01*
X0002481Y0009714D02*
Y0007840D01*
X0002472Y0009714D02*
Y0007840D01*
X0002463Y0009714D02*
Y0007840D01*
X0002454Y0009714D02*
Y0007840D01*
X0002445Y0009714D02*
Y0007840D01*
X0002436Y0009714D02*
Y0007840D01*
X0002427Y0009714D02*
Y0007840D01*
X0002418Y0009714D02*
Y0007840D01*
X0002409Y0009714D02*
Y0007840D01*
X0002400Y0009714D02*
Y0007840D01*
X0002391Y0009714D02*
Y0007840D01*
X0002382Y0009714D02*
Y0007840D01*
X0002373Y0009714D02*
Y0007840D01*
X0002364Y0009714D02*
Y0007840D01*
X0002355Y0009714D02*
Y0007840D01*
X0002346Y0009714D02*
Y0007840D01*
X0002337Y0009714D02*
Y0007840D01*
X0002328Y0009714D02*
Y0007840D01*
X0002319Y0009714D02*
Y0007840D01*
X0002310Y0009714D02*
Y0007840D01*
X0002301Y0009714D02*
Y0007840D01*
X0002292Y0009714D02*
Y0007840D01*
X0002283Y0009714D02*
Y0007840D01*
X0002274Y0009714D02*
Y0007840D01*
X0002265Y0009714D02*
Y0007840D01*
X0002256Y0009714D02*
Y0007840D01*
X0002247Y0009714D02*
Y0007840D01*
X0002238Y0009714D02*
Y0007840D01*
X0002229Y0009714D02*
Y0007840D01*
X0002220Y0009714D02*
Y0007840D01*
X0002211Y0009714D02*
Y0007840D01*
X0002202Y0009714D02*
Y0007840D01*
X0002193Y0009714D02*
Y0007840D01*
X0002184Y0009714D02*
Y0007840D01*
X0002175Y0009714D02*
Y0007840D01*
X0002166Y0009714D02*
Y0007840D01*
X0002157Y0009714D02*
Y0007840D01*
X0002148Y0009714D02*
Y0007840D01*
X0002139Y0009714D02*
Y0007840D01*
X0002130Y0009714D02*
Y0007840D01*
X0002121Y0009714D02*
Y0007840D01*
X0002112Y0009714D02*
Y0007840D01*
X0002103Y0009714D02*
Y0007840D01*
X0002094Y0009714D02*
Y0007840D01*
X0002085Y0009714D02*
Y0007840D01*
X0002076Y0009714D02*
Y0007840D01*
X0002067Y0009714D02*
Y0007840D01*
X0002058Y0009714D02*
Y0007840D01*
X0002049Y0009714D02*
Y0007840D01*
X0002040Y0009714D02*
Y0007840D01*
X0002031Y0009714D02*
Y0007840D01*
X0002022Y0009714D02*
Y0007840D01*
X0002013Y0009714D02*
Y0007840D01*
X0002004Y0009714D02*
Y0007840D01*
X0001995Y0009714D02*
Y0007840D01*
X0001986Y0009714D02*
Y0007840D01*
X0001977Y0009714D02*
Y0007840D01*
X0001968Y0009714D02*
Y0007840D01*
X0001959Y0009714D02*
Y0007840D01*
X0001950Y0009714D02*
Y0007840D01*
X0001941Y0009714D02*
Y0007840D01*
X0001932Y0009714D02*
Y0007840D01*
X0001923Y0009714D02*
Y0007840D01*
X0001914Y0009714D02*
Y0007840D01*
X0001905Y0009714D02*
Y0007840D01*
X0001896Y0009714D02*
Y0007840D01*
X0001887Y0008490D02*
Y0007840D01*
X0001878Y0008490D02*
Y0007840D01*
X0001869Y0008490D02*
Y0007840D01*
X0001860Y0008490D02*
Y0007840D01*
X0001851Y0008490D02*
Y0007840D01*
X0001842Y0008490D02*
Y0007840D01*
X0001833Y0008490D02*
Y0007840D01*
X0001824Y0008490D02*
Y0007840D01*
X0001815Y0008490D02*
Y0007840D01*
X0001806Y0008490D02*
Y0007840D01*
X0003608Y0009707D02*
X0001892D01*
X0003608Y0009698D02*
X0001892D01*
X0003608Y0009689D02*
X0001892D01*
X0003608Y0009680D02*
X0001892D01*
X0003608Y0009671D02*
X0001892D01*
X0003608Y0009662D02*
X0001892D01*
X0003608Y0009653D02*
X0001892D01*
X0003608Y0009644D02*
X0001892D01*
X0003608Y0009635D02*
X0001892D01*
X0003608Y0009626D02*
X0001892D01*
X0003608Y0009617D02*
X0001892D01*
X0003608Y0009608D02*
X0001892D01*
X0003608Y0009599D02*
X0001892D01*
X0003608Y0009590D02*
X0001892D01*
X0003608Y0009581D02*
X0001892D01*
X0003608Y0009572D02*
X0001892D01*
X0003608Y0009563D02*
X0001892D01*
X0003608Y0009554D02*
X0001892D01*
X0003608Y0009545D02*
X0001892D01*
X0003608Y0009536D02*
X0001892D01*
X0003608Y0009527D02*
X0001892D01*
X0003608Y0009518D02*
X0001892D01*
X0003608Y0009509D02*
X0001892D01*
X0003608Y0009500D02*
X0001892D01*
X0003608Y0009491D02*
X0001892D01*
X0003608Y0009482D02*
X0001892D01*
X0003608Y0009473D02*
X0001892D01*
X0003608Y0009464D02*
X0001892D01*
X0003608Y0009455D02*
X0001892D01*
X0003608Y0009446D02*
X0001892D01*
X0003608Y0009437D02*
X0001892D01*
X0003608Y0009428D02*
X0001892D01*
X0003608Y0009419D02*
X0001892D01*
X0003608Y0009410D02*
X0001892D01*
X0003608Y0009401D02*
X0001892D01*
X0003608Y0009392D02*
X0001892D01*
X0003608Y0009383D02*
X0001892D01*
X0003608Y0009374D02*
X0001892D01*
X0003608Y0009365D02*
X0001892D01*
X0003608Y0009356D02*
X0001892D01*
X0003608Y0009347D02*
X0001892D01*
X0003608Y0009338D02*
X0001892D01*
X0003608Y0009329D02*
X0001892D01*
X0003608Y0009320D02*
X0001892D01*
X0003608Y0009311D02*
X0001892D01*
X0003608Y0009302D02*
X0001892D01*
X0003608Y0009293D02*
X0001892D01*
X0003608Y0009284D02*
X0001892D01*
X0003608Y0009275D02*
X0001892D01*
X0003608Y0009266D02*
X0001892D01*
X0003608Y0009257D02*
X0001892D01*
X0003608Y0009248D02*
X0001892D01*
X0003608Y0009239D02*
X0001892D01*
X0003608Y0009230D02*
X0001892D01*
X0003608Y0009221D02*
X0001892D01*
X0003608Y0009212D02*
X0001892D01*
X0003608Y0009203D02*
X0001892D01*
X0003608Y0009194D02*
X0001892D01*
X0003608Y0009185D02*
X0001892D01*
X0003608Y0009176D02*
X0001892D01*
X0003608Y0009167D02*
X0001892D01*
X0003608Y0009158D02*
X0001892D01*
X0003608Y0009149D02*
X0001892D01*
X0003608Y0009140D02*
X0001892D01*
X0003608Y0009131D02*
X0001892D01*
X0003608Y0009122D02*
X0001892D01*
X0003608Y0009113D02*
X0001892D01*
X0003608Y0009104D02*
X0001892D01*
X0003608Y0009095D02*
X0001892D01*
X0003608Y0009086D02*
X0001892D01*
X0003608Y0009077D02*
X0001892D01*
X0003608Y0009068D02*
X0001892D01*
X0003608Y0009059D02*
X0001892D01*
X0003608Y0009050D02*
X0001892D01*
X0003608Y0009041D02*
X0001892D01*
X0003608Y0009032D02*
X0001892D01*
X0003608Y0009023D02*
X0001892D01*
X0003608Y0009014D02*
X0001892D01*
X0003608Y0009005D02*
X0001892D01*
X0003608Y0008996D02*
X0001892D01*
X0003608Y0008987D02*
X0001892D01*
X0003608Y0008978D02*
X0001892D01*
X0003608Y0008969D02*
X0001892D01*
X0003608Y0008960D02*
X0001892D01*
X0003608Y0008951D02*
X0001892D01*
X0003608Y0008942D02*
X0001892D01*
X0003608Y0008933D02*
X0001892D01*
X0003608Y0008924D02*
X0001892D01*
X0003608Y0008915D02*
X0001892D01*
X0003608Y0008906D02*
X0001892D01*
X0003608Y0008897D02*
X0001892D01*
X0003608Y0008888D02*
X0001892D01*
X0003608Y0008879D02*
X0001892D01*
X0003608Y0008870D02*
X0001892D01*
X0003608Y0008861D02*
X0001892D01*
X0003608Y0008852D02*
X0001892D01*
X0003608Y0008843D02*
X0001892D01*
X0003608Y0008834D02*
X0001892D01*
X0003608Y0008825D02*
X0001892D01*
X0003608Y0008816D02*
X0001892D01*
X0003608Y0008807D02*
X0001892D01*
X0003608Y0008798D02*
X0001892D01*
X0003608Y0008789D02*
X0001892D01*
X0003608Y0008780D02*
X0001892D01*
X0003608Y0008771D02*
X0001892D01*
X0003608Y0008762D02*
X0001892D01*
X0003608Y0008753D02*
X0001892D01*
X0003608Y0008744D02*
X0001892D01*
X0003608Y0008735D02*
X0001892D01*
X0003608Y0008726D02*
X0001892D01*
X0003608Y0008717D02*
X0001892D01*
X0003608Y0008708D02*
X0001892D01*
X0003608Y0008699D02*
X0001892D01*
X0003608Y0008690D02*
X0001892D01*
X0003608Y0008681D02*
X0001892D01*
X0003608Y0008672D02*
X0001892D01*
X0003608Y0008663D02*
X0001892D01*
X0003608Y0008654D02*
X0001892D01*
X0003608Y0008645D02*
X0001892D01*
X0003608Y0008636D02*
X0001892D01*
X0003608Y0008627D02*
X0001892D01*
X0003608Y0008618D02*
X0001892D01*
X0003608Y0008609D02*
X0001892D01*
X0003608Y0008600D02*
X0001892D01*
X0003608Y0008591D02*
X0001892D01*
X0003608Y0008582D02*
X0001892D01*
X0003608Y0008573D02*
X0001892D01*
X0003608Y0008564D02*
X0001892D01*
X0003608Y0008555D02*
X0001892D01*
X0003608Y0008546D02*
X0001892D01*
X0003608Y0008537D02*
X0001892D01*
X0003608Y0008528D02*
X0001892D01*
X0003608Y0008519D02*
X0001892D01*
X0003608Y0008510D02*
X0001892D01*
X0003608Y0008501D02*
X0001892D01*
X0003707Y0008492D02*
X0001892D01*
X0003707Y0008483D02*
X0001793D01*
X0003707Y0008474D02*
X0001793D01*
X0003707Y0008465D02*
X0001793D01*
X0003707Y0008456D02*
X0001793D01*
X0003707Y0008447D02*
X0001793D01*
X0003707Y0008438D02*
X0001793D01*
X0003707Y0008429D02*
X0001793D01*
X0003707Y0008420D02*
X0001793D01*
X0003707Y0008411D02*
X0001793D01*
X0003707Y0008402D02*
X0001793D01*
X0003707Y0008393D02*
X0001793D01*
X0003707Y0008384D02*
X0001793D01*
X0003707Y0008375D02*
X0001793D01*
X0003707Y0008366D02*
X0001793D01*
X0003707Y0008357D02*
X0001793D01*
X0003707Y0008348D02*
X0001793D01*
X0003707Y0008339D02*
X0001793D01*
X0003707Y0008330D02*
X0001793D01*
X0003707Y0008321D02*
X0001793D01*
X0003707Y0008312D02*
X0001793D01*
X0003707Y0008303D02*
X0001793D01*
X0003707Y0008294D02*
X0001793D01*
X0003707Y0008285D02*
X0001793D01*
X0003707Y0008276D02*
X0001793D01*
X0003707Y0008267D02*
X0001793D01*
X0003707Y0008258D02*
X0001793D01*
X0003707Y0008249D02*
X0001793D01*
X0003707Y0008240D02*
X0001793D01*
X0003707Y0008231D02*
X0001793D01*
X0003707Y0008222D02*
X0001793D01*
X0003707Y0008213D02*
X0001793D01*
X0003707Y0008204D02*
X0001793D01*
X0003707Y0008195D02*
X0001793D01*
X0003707Y0008186D02*
X0001793D01*
X0003707Y0008177D02*
X0001793D01*
X0003707Y0008168D02*
X0001793D01*
X0003707Y0008159D02*
X0001793D01*
X0003707Y0008150D02*
X0001793D01*
X0003707Y0008141D02*
X0001793D01*
X0003707Y0008132D02*
X0001793D01*
X0003707Y0008123D02*
X0001793D01*
X0003707Y0008114D02*
X0001793D01*
X0003707Y0008105D02*
X0001793D01*
X0003707Y0008096D02*
X0001793D01*
X0003707Y0008087D02*
X0001793D01*
X0003707Y0008078D02*
X0001793D01*
X0003707Y0008069D02*
X0001793D01*
X0003707Y0008060D02*
X0001793D01*
X0003707Y0008051D02*
X0001793D01*
X0003707Y0008042D02*
X0001793D01*
X0003707Y0008033D02*
X0001793D01*
X0003707Y0008024D02*
X0001793D01*
X0003707Y0008015D02*
X0001793D01*
X0003707Y0008006D02*
X0001793D01*
X0003707Y0007997D02*
X0001793D01*
X0003707Y0007988D02*
X0001793D01*
X0003707Y0007979D02*
X0001793D01*
X0003707Y0007970D02*
X0001793D01*
X0003707Y0007961D02*
X0001793D01*
X0003707Y0007952D02*
X0001793D01*
X0003707Y0007943D02*
X0001793D01*
X0003707Y0007934D02*
X0001793D01*
X0003707Y0007925D02*
X0001793D01*
X0003707Y0007916D02*
X0001793D01*
X0003707Y0007907D02*
X0001793D01*
X0003707Y0007898D02*
X0001793D01*
X0003707Y0007889D02*
X0001793D01*
X0003707Y0007880D02*
X0001793D01*
X0003707Y0007871D02*
X0001793D01*
X0003707Y0007862D02*
X0001793D01*
X0003707Y0007853D02*
X0001793D01*
G54D11*
X0020500Y0022780D03*
Y0022220D03*
X0018750Y0022780D03*
Y0022220D03*
X0017000Y0022780D03*
Y0022220D03*
X0015250Y0022780D03*
Y0022220D03*
X0013500Y0022780D03*
Y0022220D03*
X0011750Y0022780D03*
Y0022220D03*
X0021500Y0026280D03*
Y0025720D03*
X0019500Y0026280D03*
Y0025720D03*
X0018000Y0026280D03*
Y0025720D03*
X0016250Y0026280D03*
Y0025720D03*
X0014500Y0026280D03*
Y0025720D03*
X0012750Y0026280D03*
Y0025720D03*
X0011000Y0022780D03*
Y0022220D03*
Y0026280D03*
Y0025720D03*
X0009000D03*
Y0026280D03*
X0010250Y0022220D03*
Y0022780D03*
X0004250Y0023220D03*
Y0023780D03*
X0028750Y0013720D03*
Y0014280D03*
X0024000Y0013720D03*
Y0014280D03*
X0037750Y0014470D03*
Y0015030D03*
X0032500Y0014470D03*
Y0015030D03*
X0029500Y0016780D03*
Y0016220D03*
X0034000Y0022220D03*
Y0022780D03*
X0030250Y0024220D03*
Y0024780D03*
X0023000D03*
Y0024220D03*
X0029500Y0024780D03*
Y0024220D03*
X0022250D03*
Y0024780D03*
X0023000Y0025470D03*
Y0026030D03*
X0022250D03*
Y0025470D03*
X0026750Y0026780D03*
Y0026220D03*
X0017250Y0018030D03*
Y0017470D03*
X0020500Y0014720D03*
Y0015280D03*
X0017250Y0016220D03*
Y0016780D03*
X0019500D03*
Y0016220D03*
X0019000Y0020470D03*
Y0021030D03*
X0018250Y0012220D03*
Y0012780D03*
X0018750Y0016220D03*
Y0016780D03*
X0017500Y0020470D03*
Y0021030D03*
X0014250D03*
Y0020470D03*
X0015250Y0016220D03*
Y0016780D03*
X0016750Y0021030D03*
Y0020470D03*
X0014500Y0012030D03*
Y0011470D03*
X0012500Y0012030D03*
Y0011470D03*
X0016000Y0016220D03*
Y0016780D03*
Y0020470D03*
Y0021030D03*
X0001500Y0016220D03*
Y0016780D03*
X-0000250Y0011970D03*
Y0012530D03*
X0013750Y0005530D03*
Y0004970D03*
X0012000Y0005530D03*
Y0004970D03*
X-0001000Y0013720D03*
Y0014280D03*
Y0014970D03*
Y0015530D03*
X0020750Y0012780D03*
Y0012220D03*
X0022250D03*
Y0012780D03*
X0019000D03*
Y0012220D03*
X0013750Y0012030D03*
Y0011470D03*
X0009500Y0022780D03*
Y0022220D03*
X0007500Y0023220D03*
Y0023780D03*
X0006500Y0023220D03*
Y0023780D03*
X0005750Y0016780D03*
Y0016220D03*
X0010500Y0018280D03*
Y0017720D03*
X0010250Y0020970D03*
Y0021530D03*
X0028500Y0017970D03*
Y0018530D03*
X0034000Y0017220D03*
Y0017780D03*
X0025750Y0019720D03*
Y0020280D03*
X0029500Y0022970D03*
Y0023530D03*
Y0026030D03*
Y0025470D03*
X0023750Y0024780D03*
Y0024220D03*
X0018000Y0016220D03*
Y0016780D03*
X0018250Y0021030D03*
Y0020470D03*
X0020000Y0017470D03*
Y0018030D03*
X0016500Y0017470D03*
Y0018030D03*
X0015000Y0021030D03*
Y0020470D03*
X-0001000Y0012530D03*
Y0011970D03*
Y0016780D03*
Y0016220D03*
X0020000Y0012780D03*
Y0012220D03*
X0021500Y0012780D03*
Y0012220D03*
G54D12*
X0020250Y0003500D03*
Y0000000D03*
G54D13*
X0018750Y0003500D03*
Y0000000D03*
G54D14*
X0017160Y0006500D03*
X0015840D03*
X0018340Y0006000D03*
X0019660D03*
X0017160Y0007750D03*
X0015840D03*
G54D15*
X0017023Y0004750D03*
X0014976D03*
G54D16*
X0002600Y0013750D03*
X0003900D03*
G54D17*
X0022750Y0018464D03*
Y0016535D03*
X0027250Y0018214D03*
Y0016285D03*
X0031000Y0018214D03*
Y0016285D03*
X0032750Y0018214D03*
Y0016285D03*
G54D18*
X0043030Y0016000D03*
X0042470D03*
X0002720Y0014750D03*
X0003280D03*
X0002220Y0020250D03*
X0002780D03*
X0002220Y0022000D03*
X0002780D03*
Y0019500D03*
X0002220D03*
X0001280Y0021500D03*
X0000720D03*
G54D19*
X0002900Y0021250D03*
X0002100D03*
G54D20*
X0039250Y0009910D03*
Y0008590D03*
X0001750Y0012660D03*
Y0011340D03*
X0003000Y0012660D03*
Y0011340D03*
X0009000Y0023590D03*
Y0024910D03*
G54D21*
X0028500Y0021250D03*
X0027500D03*
X0038000Y0011500D03*
Y0009500D03*
Y0008500D03*
X0011500Y0002250D03*
X0010500D03*
X0009500D03*
G54D22*
X0007880Y0012750D03*
X0009620D03*
G54D23*
X0007750Y0011120D03*
Y0009380D03*
G54D24*
X0013750Y0006354D03*
Y0007646D03*
X0012000Y0006354D03*
Y0007646D03*
G54D25*
X0030700Y0014000D03*
X0029800Y0014400D03*
Y0013600D03*
X0025950Y0014000D03*
X0025050Y0014400D03*
Y0013600D03*
X0034200Y0014750D03*
X0033300Y0015150D03*
Y0014350D03*
X0002300Y0016250D03*
X0003200Y0015850D03*
Y0016650D03*
X0031050Y0024500D03*
X0031950Y0024100D03*
Y0024900D03*
G54D26*
X0029500Y0021250D03*
X0006250Y0026500D03*
X0040345Y0002933D03*
X0028463Y0012500D03*
X0030037D03*
X0023463D03*
X0025037D03*
X0033537D03*
X0031963D03*
G54D27*
X0020750Y0025350D03*
Y0026150D03*
X0018750Y0025350D03*
Y0026150D03*
X0017250Y0025350D03*
Y0026150D03*
X0015500Y0025350D03*
Y0026150D03*
X0013750Y0025350D03*
Y0026150D03*
X0012000Y0025350D03*
Y0026150D03*
X0010250Y0025350D03*
Y0026150D03*
X0029500Y0017600D03*
Y0018400D03*
X0034000Y0021400D03*
Y0020600D03*
G54D28*
X0042754Y0019250D03*
X0040246D03*
G54D29*
X0035766Y0021734D03*
Y0019766D03*
X0036750Y0018781D03*
X0037734Y0019766D03*
Y0021734D03*
X0036750Y0020750D03*
G54D30*
X0034128Y0024403D03*
Y0027096D03*
X0038128Y0024403D03*
Y0027096D03*
G54D31*
X0033258Y0026242D03*
Y0025258D03*
X0034242Y0026242D03*
X0037258D03*
Y0025258D03*
X0038242Y0026242D03*
G54D32*
X0034242Y0025258D03*
X0038242D03*
G54D33*
X0040667Y0022000D03*
G54D34*
X0042833D03*
G54D35*
X0005250Y0026500D03*
X0004250D03*
Y0025500D03*
X0005250D03*
X0006250D03*
X0042155Y0007067D03*
X0040345D03*
Y0005689D03*
Y0004311D03*
X0042155Y0002933D03*
Y0004311D03*
Y0005689D03*
G54D37*
X0038000Y0012500D03*
G54D38*
X-0000750Y0021500D03*
X0021000Y0020500D03*
X0025000Y0018250D03*
X0017250Y0015000D03*
X0014500D03*
X0041250Y0012750D03*
X0022500Y-0001000D03*
X0028500Y0007000D03*
Y0004000D03*
X0031500D03*
Y0011000D03*
X0023500Y0007000D03*
Y0004000D03*
X0026500D03*
Y0011000D03*
X0033500Y0007000D03*
Y0004000D03*
X0036500D03*
Y0011000D03*
G54D39*
X0028500D03*
X0023500D03*
X0033500D03*
G54D40*
X0040852Y0015000D03*
Y0016000D03*
X0038648D03*
Y0015000D03*
G54D41*
X0005894Y0004793D03*
X0010106D03*
Y0007707D03*
X0005894D03*
G54D42*
X0027650Y0024303D03*
X0028850D03*
Y0024697D03*
X0027650D03*
G54D46*
X0021000Y0024450D03*
X0020600Y0023550D03*
X0021400D03*
X0019250Y0024450D03*
X0018850Y0023550D03*
X0019650D03*
X0017500Y0024450D03*
X0017100Y0023550D03*
X0017900D03*
X0015750Y0024450D03*
X0015350Y0023550D03*
X0016150D03*
X0014000Y0024450D03*
X0013600Y0023550D03*
X0014400D03*
X0012250Y0024450D03*
X0011850Y0023550D03*
X0012650D03*
X0010500Y0024450D03*
X0010100Y0023550D03*
X0010900D03*
G54D47*
X0004750Y0010516D03*
Y0012484D03*
X0006000Y0010516D03*
Y0012484D03*
G54D48*
X0042930Y0009500D03*
X0040570D03*
X0042930Y0011250D03*
X0040570D03*
G54D49*
X0005499Y0000750D03*
X0015504D03*
G54D50*
X0019000Y0007419D03*
X0021000D03*
G54D51*
X0021750Y0011081D03*
X0021250D03*
X0020750D03*
X0020250D03*
X0019750D03*
X0019250D03*
X0018750D03*
X0018250D03*
G54D52*
X0000750Y0014250D03*
G54D53*
X-0000077Y0014890D03*
Y0014634D03*
Y0014378D03*
Y0014122D03*
Y0013866D03*
Y0013610D03*
X0001577D03*
Y0013866D03*
Y0014122D03*
Y0014378D03*
Y0014634D03*
Y0014890D03*
G54D54*
X0013750Y0008260D03*
X0014250D03*
Y0010740D03*
X0013750D03*
X0012000Y0008260D03*
X0012500D03*
Y0010740D03*
X0012000D03*
G54D55*
X0019000Y0019750D03*
X0018744D03*
X0018488D03*
X0018232D03*
Y0017533D03*
X0018488D03*
X0018744D03*
X0019000D03*
X0015500Y0019750D03*
X0015244D03*
X0014988D03*
X0014732D03*
Y0017533D03*
X0014988D03*
X0015244D03*
X0015500D03*
G54D56*
X0024500Y0025250D03*
Y0024750D03*
Y0024250D03*
Y0023750D03*
X0026900D03*
Y0024250D03*
Y0024750D03*
Y0025250D03*
G54D57*
X0022200Y0020500D03*
G54D58*
X0024800Y0019600D03*
Y0020500D03*
Y0021400D03*
G54D59*
X0005280Y0017765D03*
X0005477D03*
X0005674D03*
X0006068D03*
X0006265D03*
X0006462D03*
X0006659D03*
X0006856D03*
X0007053D03*
X0007250D03*
X0007447D03*
X0007644D03*
X0008038D03*
X0008235D03*
Y0022280D03*
X0007841D03*
X0007644D03*
X0007447D03*
X0007250D03*
X0007053D03*
X0006856D03*
X0006659D03*
X0006462D03*
X0006265D03*
X0005871D03*
X0005674D03*
X0005477D03*
X0005280D03*
G54D60*
X0005871Y0017765D03*
X0007841D03*
X0008038Y0022280D03*
X0006068D03*
G54D61*
X0004500Y0021303D03*
Y0021106D03*
Y0020909D03*
Y0020712D03*
Y0020515D03*
Y0020318D03*
Y0020121D03*
Y0019924D03*
Y0019530D03*
Y0019333D03*
Y0019136D03*
Y0018939D03*
Y0018742D03*
Y0018545D03*
X0009015D03*
Y0018742D03*
Y0018939D03*
Y0019136D03*
Y0019333D03*
Y0019530D03*
Y0019727D03*
Y0020121D03*
Y0020318D03*
Y0020515D03*
Y0020712D03*
Y0020909D03*
Y0021106D03*
Y0021303D03*
Y0021500D03*
G54D62*
X0004500D03*
Y0019727D03*
X0009015Y0019924D03*
G54D79*
X0003500Y0010323D03*
X0003000D03*
X0002500D03*
X0002000D03*
G54D80*
X-0001250Y0001000D03*
X0040000Y-0001000D03*
X0043000Y0027000D03*
M02*
