*
G04 Mass Parameters ***
*
G04 Image ***
*
%INE:\00.LAVORI IN CORSO\METALTRONICA\25-336-0\25-336-0.SST*%
%ICAS*%
%MOIN*%
%IPPOS*%
%ASAXBY*%
G74*%FSLAN2X34Y34*%
*
G04 Aperture Definitions ***
*
%ADD10C,0.1378*%
%ADD11R,0.0380X0.0320*%
%ADD12C,0.0610*%
%ADD13R,0.0610X0.0610*%
%ADD14R,0.0400X0.0710*%
%ADD15R,0.0472X0.2047*%
%ADD16R,0.0510X0.1024*%
%ADD17R,0.0886X0.0905*%
%ADD18R,0.0320X0.0380*%
%ADD19R,0.0404X0.0501*%
%ADD20R,0.0710X0.0400*%
%ADD21C,0.0800*%
%ADD22R,0.0850X0.1080*%
%ADD23R,0.1080X0.0850*%
%ADD24R,0.0480X0.0354*%
%ADD25R,0.0500X0.0400*%
%ADD26R,0.0787X0.0787*%
%ADD27R,0.0501X0.0404*%
%ADD28R,0.1669X0.1500*%
%ADD29C,0.1000*%
%ADD30O,0.1181X0.0787*%
%ADD31C,0.0669*%
%ADD32R,0.0669X0.0669*%
%ADD33C,0.1200*%
%ADD34R,0.1200X0.1200*%
%ADD35C,0.0787*%
%ADD36C,0.0630*%
%ADD37R,0.0800X0.0800*%
%ADD38C,0.0866*%
%ADD39R,0.0866X0.0866*%
%ADD40R,0.0512X0.0236*%
%ADD41R,0.1968X0.1338*%
%ADD42R,0.0413X0.0236*%
%ADD43C,0.0187*%
%ADD44R,0.0236X0.0354*%
%ADD45R,0.0275X0.0453*%
%ADD46R,0.0400X0.0500*%
%ADD47R,0.1024X0.0510*%
%ADD48R,0.0760X0.1200*%
%ADD49C,0.1968*%
%ADD50R,0.1736X0.0787*%
%ADD51R,0.0236X0.0787*%
%ADD52R,0.0650X0.1120*%
%ADD53R,0.0354X0.0165*%
%ADD54R,0.0354X0.0512*%
%ADD55R,0.0138X0.0400*%
%ADD56O,0.0650X0.0256*%
%ADD57R,0.0680X0.1580*%
%ADD58R,0.0680X0.0550*%
%ADD59O,0.0110X0.0700*%
%ADD60R,0.0110X0.0700*%
%ADD61O,0.0700X0.0110*%
%ADD62R,0.0700X0.0110*%
%ADD63C,0.0276*%
%ADD64C,0.0394*%
%ADD65C,0.0000*%
%ADD66C,0.0050*%
%ADD67C,0.0100*%
%ADD68C,0.0800*%
%ADD69C,0.0250*%
%ADD70C,0.0276*%
%ADD71C,0.0500*%
%ADD72C,0.0197*%
%ADD73C,0.0200*%
%ADD74C,0.0150*%
%ADD75C,0.0276*%
%ADD76C,0.0060*%
%ADD77C,0.0080*%
%ADD78C,0.0276*%
%ADD79R,0.0334X0.0512*%
%ADD80C,0.0590*%
%ADD81C,0.0010*%
%ADD82R,0.0236X0.0413*%
%ADD83C,0.0079*%
*
G04 Plot Data ***
*
G54D66*
G01X0033353Y0021120D02*
X0031123D01*
Y0018900D01*
X0033353D01*
Y0021120D01*
G54D67*
G01X0035208Y0024258D02*
Y0024425D01*
Y0024342D02*
X0035708D01*
X0035625Y0024425D01*
X0042608Y0023258D02*
Y0023425D01*
Y0023342D02*
X0043108D01*
X0043025Y0023425D01*
X0039208Y0024258D02*
Y0024425D01*
Y0024342D02*
X0039708D01*
X0039625Y0024425D01*
G01X0041250Y0012198D02*
G03X0041802Y0012750I0000000J0000552D01*
G01X0040698D02*
G03X0041250Y0012198I0000552J0000000D01*
Y0013302D02*
G03X0040698Y0012750I0000000J0000552D01*
G01X0041802D02*
G03X0041250Y0013302I0000552J0000000D01*
G01X0022500Y-0001552D02*
G03X0023052Y-0001000I0000000J0000552D01*
G01X0021948D02*
G03X0022500Y-0001552I0000552J0000000D01*
Y-0000448D02*
G03X0021948Y-0001000I0000000J0000552D01*
G01X0023052D02*
G03X0022500Y-0000448I0000552J0000000D01*
G01X-0000750Y0020948D02*
G03X-0000198Y0021500I0000000J0000552D01*
G01X-0001302D02*
G03X-0000750Y0020948I0000552J0000000D01*
Y0022052D02*
G03X-0001302Y0021500I0000000J0000552D01*
G01X-0000198D02*
G03X-0000750Y0022052I0000552J0000000D01*
G01X0021000Y0019948D02*
G03X0021552Y0020500I0000000J0000552D01*
G01X0020448D02*
G03X0021000Y0019948I0000552J0000000D01*
Y0021052D02*
G03X0020448Y0020500I0000000J0000552D01*
G01X0021552D02*
G03X0021000Y0021052I0000552J0000000D01*
G01X0014500Y0014448D02*
G03X0015052Y0015000I0000000J0000552D01*
G01X0013948D02*
G03X0014500Y0014448I0000552J0000000D01*
Y0015552D02*
G03X0013948Y0015000I0000000J0000552D01*
G01X0015052D02*
G03X0014500Y0015552I0000552J0000000D01*
G01X0017250Y0014448D02*
G03X0017802Y0015000I0000000J0000552D01*
G01X0016698D02*
G03X0017250Y0014448I0000552J0000000D01*
Y0015552D02*
G03X0016698Y0015000I0000000J0000552D01*
G01X0017802D02*
G03X0017250Y0015552I0000552J0000000D01*
G01X0025000Y0017698D02*
G03X0025552Y0018250I0000000J0000552D01*
G01X0024448D02*
G03X0025000Y0017698I0000552J0000000D01*
Y0018802D02*
G03X0024448Y0018250I0000000J0000552D01*
G01X0025552D02*
G03X0025000Y0018802I0000552J0000000D01*
G54D69*
G01X0029725Y0000200D02*
Y-0000750D01*
X0029500Y0000200D02*
Y-0000750D01*
X0029275Y0000200D02*
Y-0000750D01*
X0029050Y0000200D02*
Y-0000750D01*
X0028825Y0000200D02*
Y-0000750D01*
X0028600Y0000200D02*
Y-0000750D01*
X0028375Y0000200D02*
Y-0000750D01*
X0033800Y0000100D02*
X0028200D01*
X0033800Y-0000125D02*
X0028200D01*
X0033800Y-0000350D02*
X0028200D01*
X0032200Y0000200D02*
Y-0000750D01*
X0031975Y0000200D02*
Y-0000750D01*
X0031750Y0000200D02*
Y-0000750D01*
X0031525Y0000200D02*
Y-0000750D01*
X0031300Y0000200D02*
Y-0000750D01*
X0031075Y0000200D02*
Y-0000750D01*
X0030850Y0000200D02*
Y-0000750D01*
X0030625Y0000200D02*
Y-0000750D01*
X0030400Y0000200D02*
Y-0000750D01*
X0030175Y0000200D02*
Y-0000750D01*
X0029950Y0000200D02*
Y-0000750D01*
X0033800Y0000200D02*
Y-0000750D01*
Y0000200D02*
X0028200D01*
Y-0000750D01*
X0033775Y0000200D02*
Y-0000750D01*
X0033550Y0000200D02*
Y-0000750D01*
X0033325Y0000200D02*
Y-0000750D01*
X0033100Y0000200D02*
Y-0000750D01*
X0032875Y0000200D02*
Y-0000750D01*
X0032650Y0000200D02*
Y-0000750D01*
X0032425Y0000200D02*
Y-0000750D01*
X0033800Y-0000575D02*
X0028200D01*
X0033800Y-0000750D02*
X0028200D01*
X0029725Y0001650D02*
Y0000700D01*
X0029500Y0001650D02*
Y0000700D01*
X0029275Y0001650D02*
Y0000700D01*
X0029050Y0001650D02*
Y0000700D01*
X0028825Y0001650D02*
Y0000700D01*
X0028600Y0001650D02*
Y0000700D01*
X0028375Y0001650D02*
Y0000700D01*
X0033800Y0001550D02*
X0028200D01*
X0033800Y0001325D02*
X0028200D01*
X0033800Y0001100D02*
X0028200D01*
X0032200Y0001650D02*
Y0000700D01*
X0031975Y0001650D02*
Y0000700D01*
X0031750Y0001650D02*
Y0000700D01*
X0031525Y0001650D02*
Y0000700D01*
X0031300Y0001650D02*
Y0000700D01*
X0031075Y0001650D02*
Y0000700D01*
X0030850Y0001650D02*
Y0000700D01*
X0030625Y0001650D02*
Y0000700D01*
X0030400Y0001650D02*
Y0000700D01*
X0030175Y0001650D02*
Y0000700D01*
X0029950Y0001650D02*
Y0000700D01*
X0033800Y0001650D02*
Y0000700D01*
Y0001650D02*
X0028200D01*
Y0000700D01*
X0033775Y0001650D02*
Y0000700D01*
X0033550Y0001650D02*
Y0000700D01*
X0033325Y0001650D02*
Y0000700D01*
X0033100Y0001650D02*
Y0000700D01*
X0032875Y0001650D02*
Y0000700D01*
X0032650Y0001650D02*
Y0000700D01*
X0032425Y0001650D02*
Y0000700D01*
X0033800Y0000875D02*
X0028200D01*
X0033800Y0000700D02*
X0028200D01*
G54D76*
G01X0039082Y-0000492D02*
X0038998Y-0000408D01*
X0038957Y-0000325D01*
Y-0000158D01*
X0038998Y-0000075D01*
X0039082Y0000008D01*
X0039165D01*
X0039248Y-0000075D01*
X0039290Y-0000158D01*
Y-0000325D01*
X0039248Y-0000408D01*
X0039165Y-0000492D01*
X0039082D01*
X0038795Y-0000242D02*
X0038462D01*
X0038008D02*
X0038258D01*
X0038300Y-0000325D01*
Y-0000408D01*
X0038258Y-0000492D01*
X0038008D01*
X0037967Y-0000408D01*
Y-0000325D01*
X0038133Y0000008D01*
X0037472Y-0000408D02*
X0037555Y-0000492D01*
X0037722D01*
X0037805Y-0000408D01*
Y-0000325D01*
X0037638Y-0000158D01*
X0037805Y0000008D01*
X0037472D01*
X0036977Y-0000408D02*
X0037060Y-0000492D01*
X0037227D01*
X0037310Y-0000408D01*
Y-0000325D01*
X0037143Y-0000158D01*
X0037310Y0000008D01*
X0036977D01*
X0036815Y-0000242D02*
X0036482D01*
X0035987Y-0000408D02*
X0036028Y-0000492D01*
X0036278D01*
X0036320Y-0000408D01*
Y-0000242D01*
X0036237Y-0000158D01*
X0035987D01*
Y0000008D01*
X0036320D01*
X0035825Y-0000492D02*
X0035492D01*
X0035825Y-0000158D01*
Y-0000075D01*
X0035783Y0000008D01*
X0035533D01*
X0035492Y-0000075D01*
X0011003Y-0000033D02*
X0010910D01*
X0010957D02*
Y0000367D01*
X0010910Y0000300D01*
X0010557Y-0000033D02*
Y0000367D01*
X0010533Y-0000033D02*
X0010673D01*
X0010720Y0000100D01*
Y0000233D01*
X0010673Y0000367D01*
X0010533D01*
X0010390Y0000100D02*
X0010203D01*
X0010390Y-0000033D02*
Y0000167D01*
X0010320Y0000367D01*
X0010273D01*
X0010203Y0000167D01*
Y-0000033D01*
X0009990Y0000167D02*
X0010060Y-0000033D01*
X0009873Y0000167D02*
X0010013D01*
X0010060Y0000233D01*
Y0000300D01*
X0010013Y0000367D01*
X0009873D01*
Y-0000033D01*
X0007767Y0003230D02*
Y0003323D01*
Y0003277D02*
X0008167D01*
X0008100Y0003323D01*
X0007767Y0003513D02*
Y0003677D01*
X0008167D01*
X0022139Y0013402D02*
X0022073Y0013355D01*
Y0013262D01*
X0022139Y0013215D01*
X0022206D01*
X0022339Y0013309D01*
X0022473Y0013215D01*
Y0013402D01*
X0022273Y0013615D02*
X0022073Y0013545D01*
X0022273Y0013732D02*
Y0013592D01*
X0022339Y0013545D01*
X0022406D01*
X0022473Y0013592D01*
Y0013732D01*
X0022073D01*
X0033502Y0015957D02*
Y0016143D01*
X0033768Y0015957D01*
X0033835D01*
X0033902Y0015980D01*
Y0016120D01*
X0033835Y0016143D01*
X0033502Y0016287D02*
Y0016473D01*
X0033768Y0016287D01*
X0033835D01*
X0033902Y0016310D01*
Y0016450D01*
X0033835Y0016473D01*
X0033568Y0016617D02*
X0033502Y0016640D01*
Y0016780D01*
X0033568Y0016803D01*
X0033835D01*
X0033902Y0016780D01*
Y0016640D01*
X0033835Y0016617D01*
X0016623Y0016109D02*
X0016689Y0016085D01*
X0016756D01*
X0016823Y0016109D01*
Y0016249D01*
X0016756Y0016272D01*
X0016689D01*
X0016623Y0016249D01*
Y0016109D01*
X0016556Y0016085D01*
X0016489D01*
X0016423Y0016109D01*
Y0016249D01*
X0016489Y0016272D01*
X0016556D01*
X0016623Y0016249D01*
X0016423Y0016415D02*
Y0016602D01*
X0016689Y0016415D01*
X0016756D01*
X0016823Y0016439D01*
Y0016579D01*
X0016756Y0016602D01*
X0016623Y0016815D02*
X0016423Y0016745D01*
X0016623Y0016932D02*
Y0016792D01*
X0016689Y0016745D01*
X0016756D01*
X0016823Y0016792D01*
Y0016932D01*
X0016423D01*
X0022839Y0026672D02*
X0022773Y0026625D01*
Y0026532D01*
X0022839Y0026485D01*
X0022906D01*
X0023039Y0026579D01*
X0023173Y0026485D01*
Y0026672D01*
X0022839Y0027002D02*
X0022773Y0026955D01*
Y0026862D01*
X0022839Y0026815D01*
X0022906D01*
X0023039Y0026909D01*
X0023173Y0026815D01*
Y0027002D01*
X0022973Y0027215D02*
X0022773Y0027145D01*
X0022973Y0027332D02*
Y0027192D01*
X0023039Y0027145D01*
X0023106D01*
X0023173Y0027192D01*
Y0027332D01*
X0022773D01*
X0005623Y0023035D02*
Y0023222D01*
X0005889Y0023035D01*
X0005956D01*
X0006023Y0023059D01*
Y0023199D01*
X0005956Y0023222D01*
X0005689Y0023552D02*
X0005623Y0023505D01*
Y0023412D01*
X0005689Y0023365D01*
X0005756D01*
X0005889Y0023459D01*
X0006023Y0023365D01*
Y0023552D01*
X0005689Y0023695D02*
X0005623Y0023719D01*
Y0023859D01*
X0005689Y0023882D01*
X0005956D01*
X0006023Y0023859D01*
Y0023719D01*
X0005956Y0023695D01*
X0041044Y0013451D02*
Y0013638D01*
X0041311Y0013451D01*
X0041378D01*
X0041444Y0013475D01*
Y0013615D01*
X0041378Y0013638D01*
X0041244Y0013968D02*
Y0013828D01*
X0041311Y0013781D01*
X0041378D01*
X0041444Y0013828D01*
Y0013968D01*
X0041044D01*
Y0014205D02*
X0041444D01*
Y0014111D02*
Y0014298D01*
X0038007Y0007408D02*
Y0007268D01*
X0037941Y0007245D01*
X0037874D01*
X0037807Y0007268D01*
Y0007408D01*
X0037874Y0007432D01*
X0037941D01*
X0038207Y0007338D01*
X0037941Y0007738D02*
X0037874D01*
X0037807Y0007715D01*
Y0007622D01*
X0037874Y0007598D01*
X0038207D01*
Y0007575D02*
Y0007668D01*
X0037744Y0013182D02*
Y0013307D01*
Y0013245D02*
X0038211D01*
X0038133Y0013307D01*
X0018730Y0021478D02*
X0018754Y0021411D01*
X0018894D01*
X0018917Y0021478D01*
Y0021611D01*
X0018870Y0021678D01*
X0018730D01*
Y0021811D01*
X0018917D01*
X0018587Y0021411D02*
X0018494D01*
X0018540D02*
Y0021811D01*
X0018494Y0021744D01*
X0018304Y0021478D02*
X0018280Y0021411D01*
X0018140D01*
X0018117Y0021478D01*
Y0021744D01*
X0018140Y0021811D01*
X0018280D01*
X0018304Y0021744D01*
X0033823Y0018182D02*
Y0018275D01*
Y0018229D02*
X0034223D01*
X0034156Y0018275D01*
X0033823Y0018465D02*
Y0018652D01*
X0034089Y0018465D01*
X0034156D01*
X0034223Y0018489D01*
Y0018629D01*
X0034156Y0018652D01*
X0033889Y0018795D02*
X0033823Y0018819D01*
Y0018959D01*
X0033889Y0018982D01*
X0034156D01*
X0034223Y0018959D01*
Y0018819D01*
X0034156Y0018795D01*
X0034926Y0014610D02*
X0034859Y0014563D01*
Y0014470D01*
X0034926Y0014423D01*
X0034992D01*
X0035126Y0014516D01*
X0035259Y0014423D01*
Y0014610D01*
X0034992Y0014846D02*
X0034859Y0014753D01*
X0034926Y0014940D02*
X0034859Y0014916D01*
Y0014823D01*
X0034926Y0014800D01*
X0034992Y0014753D01*
X0035192D01*
X0035259Y0014776D01*
Y0014916D01*
X0035192Y0014940D01*
X0034926D01*
X0022010Y0026474D02*
Y0026661D01*
X0022277Y0026474D01*
X0022344D01*
X0022410Y0026498D01*
Y0026638D01*
X0022344Y0026661D01*
X0022077Y0026991D02*
X0022010Y0026944D01*
Y0026851D01*
X0022077Y0026804D01*
X0022144D01*
X0022277Y0026898D01*
X0022410Y0026804D01*
Y0026991D01*
X0022210Y0027204D02*
X0022010Y0027134D01*
X0022210Y0027321D02*
Y0027181D01*
X0022277Y0027134D01*
X0022344D01*
X0022410Y0027181D01*
Y0027321D01*
X0022010D01*
X0006210Y0016121D02*
Y0016214D01*
Y0016168D02*
X0006610D01*
X0006544Y0016214D01*
X0006277Y0016591D02*
X0006210Y0016544D01*
Y0016451D01*
X0006277Y0016404D01*
X0006344D01*
X0006477Y0016498D01*
X0006610Y0016404D01*
Y0016591D01*
X0006277Y0016734D02*
X0006210Y0016758D01*
Y0016898D01*
X0006277Y0016921D01*
X0006544D01*
X0006610Y0016898D01*
Y0016758D01*
X0006544Y0016734D01*
X0020644Y0013254D02*
Y0013441D01*
X0020910Y0013348D01*
Y0013301D01*
X0020510D01*
X0020710Y0013654D02*
X0020510Y0013584D01*
X0020710Y0013771D02*
Y0013631D01*
X0020777Y0013584D01*
X0020844D01*
X0020910Y0013631D01*
Y0013771D01*
X0020510D01*
X0019260Y0015064D02*
X0019660Y0014924D01*
Y0015111D01*
X0019260Y0015254D02*
Y0015441D01*
X0019527Y0015254D01*
X0019594D01*
X0019660Y0015278D01*
Y0015418D01*
X0019594Y0015441D01*
X0019460Y0015654D02*
X0019260Y0015584D01*
X0019460Y0015771D02*
Y0015631D01*
X0019527Y0015584D01*
X0019594D01*
X0019660Y0015631D01*
Y0015771D01*
X0019260D01*
X0007889Y0001885D02*
Y0001979D01*
Y0001932D02*
X0008289D01*
X0008222Y0001979D01*
X0007889Y0002332D02*
X0008289D01*
X0007889Y0002355D02*
Y0002215D01*
X0008022Y0002169D01*
X0008155D01*
X0008289Y0002215D01*
Y0002355D01*
X0020953Y0022169D02*
Y0022356D01*
X0021220Y0022169D01*
X0021287D01*
X0021353Y0022192D01*
Y0022332D01*
X0021287Y0022356D01*
X0020953Y0022499D02*
Y0022592D01*
Y0022546D02*
X0021353D01*
X0021287Y0022592D01*
X0021087Y0022876D02*
X0020953Y0022782D01*
X0021020Y0022969D02*
X0020953Y0022946D01*
Y0022852D01*
X0021020Y0022829D01*
X0021087Y0022782D01*
X0021287D01*
X0021353Y0022806D01*
Y0022946D01*
X0021287Y0022969D01*
X0021020D01*
X0021311Y0003318D02*
X0021244Y0003295D01*
Y0003155D01*
X0021311Y0003131D01*
X0021444D01*
X0021511Y0003178D01*
Y0003318D01*
X0021644D01*
Y0003131D01*
X0021311Y0003461D02*
X0021244Y0003485D01*
Y0003625D01*
X0021311Y0003648D01*
X0021578D01*
X0021644Y0003625D01*
Y0003485D01*
X0021578Y0003461D01*
X0043050Y0012205D02*
Y0012299D01*
Y0012252D02*
X0043450D01*
X0043384Y0012299D01*
X0043184Y0012489D02*
Y0012675D01*
X0043450Y0012582D01*
Y0012535D01*
X0043050D01*
X0043250Y0012889D02*
X0043050Y0012819D01*
X0043250Y0013005D02*
Y0012865D01*
X0043317Y0012819D01*
X0043384D01*
X0043450Y0012865D01*
Y0013005D01*
X0043050D01*
X0025573Y0020852D02*
X0025639Y0020899D01*
X0025706Y0020922D01*
X0025839D01*
X0025906Y0020899D01*
X0025973Y0020852D01*
Y0020805D01*
X0025906Y0020759D01*
X0025839Y0020735D01*
X0025706D01*
X0025639Y0020759D01*
X0025573Y0020805D01*
Y0020852D01*
Y0021065D02*
Y0021252D01*
X0025839Y0021065D01*
X0025906D01*
X0025973Y0021089D01*
Y0021229D01*
X0025906Y0021252D01*
X0025639Y0021395D02*
X0025573Y0021419D01*
Y0021559D01*
X0025639Y0021582D01*
X0025906D01*
X0025973Y0021559D01*
Y0021419D01*
X0025906Y0021395D01*
X0011010Y0017741D02*
X0011077Y0017788D01*
X0011144Y0017811D01*
X0011277D01*
X0011344Y0017788D01*
X0011410Y0017741D01*
Y0017694D01*
X0011344Y0017648D01*
X0011277Y0017624D01*
X0011144D01*
X0011077Y0017648D01*
X0011010Y0017694D01*
Y0017741D01*
X0011077Y0018141D02*
X0011010Y0018094D01*
Y0018001D01*
X0011077Y0017954D01*
X0011144D01*
X0011277Y0018048D01*
X0011410Y0017954D01*
Y0018141D01*
X0011077Y0018284D02*
X0011010Y0018308D01*
Y0018448D01*
X0011077Y0018471D01*
X0011344D01*
X0011410Y0018448D01*
Y0018308D01*
X0011344Y0018284D01*
X0014510Y0012494D02*
Y0012634D01*
X0014577Y0012658D01*
X0014644D01*
X0014710Y0012634D01*
Y0012494D01*
X0014644Y0012471D01*
X0014577D01*
X0014310Y0012564D01*
Y0012801D02*
Y0012894D01*
Y0012848D02*
X0014710D01*
X0014644Y0012894D01*
X0014510Y0013154D02*
X0014310Y0013084D01*
X0014510Y0013271D02*
Y0013131D01*
X0014577Y0013084D01*
X0014644D01*
X0014710Y0013131D01*
Y0013271D01*
X0014310D01*
X0027562Y0012225D02*
Y0012365D01*
X0027629Y0012388D01*
X0027695D01*
X0027762Y0012365D01*
Y0012225D01*
X0027695Y0012201D01*
X0027629D01*
X0027362Y0012295D01*
Y0012695D02*
X0027762D01*
X0027362Y0012718D02*
Y0012578D01*
X0027495Y0012531D01*
X0027629D01*
X0027762Y0012578D01*
Y0012718D01*
X0008533Y0026970D02*
X0008467Y0026947D01*
Y0026807D01*
X0008533Y0026783D01*
X0008667D01*
X0008733Y0026830D01*
Y0026970D01*
X0008867D01*
Y0026783D01*
X0008600Y0027277D02*
X0008533D01*
X0008467Y0027253D01*
Y0027160D01*
X0008533Y0027137D01*
X0008867D01*
Y0027113D02*
Y0027207D01*
X0000839Y0010930D02*
X0000905Y0010907D01*
X0000972D01*
X0001039Y0010930D01*
Y0011070D01*
X0000972Y0011094D01*
X0000905D01*
X0000839Y0011070D01*
Y0010930D01*
X0000772Y0010907D01*
X0000705D01*
X0000639Y0010930D01*
Y0011070D01*
X0000705Y0011094D01*
X0000772D01*
X0000839Y0011070D01*
Y0011307D02*
X0000639Y0011237D01*
X0000839Y0011424D02*
Y0011284D01*
X0000905Y0011237D01*
X0000972D01*
X0001039Y0011284D01*
Y0011424D01*
X0000639D01*
X0008716Y0010090D02*
X0008649Y0010043D01*
Y0009950D01*
X0008716Y0009903D01*
X0008782D01*
X0008916Y0009996D01*
X0009049Y0009903D01*
Y0010090D01*
X0008649Y0010396D02*
X0009049D01*
X0008649Y0010420D02*
Y0010280D01*
X0008782Y0010233D01*
X0008916D01*
X0009049Y0010280D01*
Y0010420D01*
X0010173Y0019609D02*
Y0019749D01*
X0010239Y0019772D01*
X0010306D01*
X0010373Y0019749D01*
Y0019609D01*
X0010306Y0019585D01*
X0010239D01*
X0009973Y0019679D01*
Y0019915D02*
Y0020102D01*
X0010239Y0019915D01*
X0010306D01*
X0010373Y0019939D01*
Y0020079D01*
X0010306Y0020102D01*
X0010039Y0020245D02*
X0009973Y0020269D01*
Y0020409D01*
X0010039Y0020432D01*
X0010306D01*
X0010373Y0020409D01*
Y0020269D01*
X0010306Y0020245D01*
X0017977Y0022261D02*
X0017910Y0022214D01*
Y0022121D01*
X0017977Y0022074D01*
X0018044D01*
X0018177Y0022168D01*
X0018310Y0022074D01*
Y0022261D01*
X0018110Y0022568D02*
Y0022428D01*
X0018044Y0022404D01*
X0017977D01*
X0017910Y0022428D01*
Y0022568D01*
X0017977Y0022591D01*
X0018044D01*
X0018310Y0022498D01*
X0018110Y0022804D02*
X0017910Y0022734D01*
X0018110Y0022921D02*
Y0022781D01*
X0018177Y0022734D01*
X0018244D01*
X0018310Y0022781D01*
Y0022921D01*
X0017910D01*
X0016210Y0022024D02*
Y0022211D01*
X0016477Y0022024D01*
X0016544D01*
X0016610Y0022048D01*
Y0022188D01*
X0016544Y0022211D01*
X0016410Y0022518D02*
Y0022378D01*
X0016344Y0022354D01*
X0016277D01*
X0016210Y0022378D01*
Y0022518D01*
X0016277Y0022541D01*
X0016344D01*
X0016610Y0022448D01*
X0016410Y0022754D02*
X0016210Y0022684D01*
X0016410Y0022871D02*
Y0022731D01*
X0016477Y0022684D01*
X0016544D01*
X0016610Y0022731D01*
Y0022871D01*
X0016210D01*
X0017097Y0019661D02*
X0017050Y0019728D01*
X0017027Y0019794D01*
Y0019928D01*
X0017050Y0019994D01*
X0017097Y0020061D01*
X0017144D01*
X0017190Y0019994D01*
X0017214Y0019928D01*
Y0019794D01*
X0017190Y0019728D01*
X0017144Y0019661D01*
X0017097D01*
X0016884D02*
X0016697D01*
X0016884Y0019928D01*
Y0019994D01*
X0016860Y0020061D01*
X0016720D01*
X0016697Y0019994D01*
X0016484Y0019861D02*
X0016554Y0019661D01*
X0016367Y0019861D02*
X0016507D01*
X0016554Y0019928D01*
Y0019994D01*
X0016507Y0020061D01*
X0016367D01*
Y0019661D01*
X0041217Y0017457D02*
Y0017550D01*
Y0017503D02*
X0041617D01*
X0041550Y0017550D01*
X0041417Y0017787D02*
Y0017927D01*
X0041217D02*
X0041617D01*
Y0017740D01*
X0022294Y-0000252D02*
Y-0000159D01*
Y-0000205D02*
X0022694D01*
X0022628Y-0000159D01*
X0022494Y0000218D02*
Y0000078D01*
X0022561Y0000031D01*
X0022628D01*
X0022694Y0000078D01*
Y0000218D01*
X0022294D01*
Y0000455D02*
X0022694D01*
Y0000361D02*
Y0000548D01*
X0011113Y0025159D02*
X0011253D01*
X0011277Y0025092D01*
Y0025026D01*
X0011253Y0024959D01*
X0011113D01*
X0011090Y0025026D01*
Y0025092D01*
X0011183Y0025359D01*
X0010853Y0025092D02*
X0010947Y0024959D01*
X0010760Y0025026D02*
X0010783Y0024959D01*
X0010877D01*
X0010900Y0025026D01*
X0010947Y0025092D01*
Y0025292D01*
X0010923Y0025359D01*
X0010783D01*
X0010760Y0025292D01*
Y0025026D01*
X0021460Y0026748D02*
X0021527Y0026724D01*
X0021594D01*
X0021660Y0026748D01*
Y0026888D01*
X0021594Y0026911D01*
X0021527D01*
X0021460Y0026888D01*
Y0026748D01*
X0021394Y0026724D01*
X0021327D01*
X0021260Y0026748D01*
Y0026888D01*
X0021327Y0026911D01*
X0021394D01*
X0021460Y0026888D01*
X0021327Y0027241D02*
X0021260Y0027218D01*
Y0027078D01*
X0021327Y0027054D01*
X0021460D01*
X0021527Y0027101D01*
Y0027241D01*
X0021660D01*
Y0027054D01*
X0021460Y0027454D02*
X0021260Y0027384D01*
X0021460Y0027571D02*
Y0027431D01*
X0021527Y0027384D01*
X0021594D01*
X0021660Y0027431D01*
Y0027571D01*
X0021260D01*
X0003639Y0010947D02*
X0004039Y0010807D01*
Y0010994D01*
X0003839Y0011207D02*
X0003639Y0011137D01*
X0003839Y0011324D02*
Y0011184D01*
X0003905Y0011137D01*
X0003972D01*
X0004039Y0011184D01*
Y0011324D01*
X0003639D01*
X0026642Y0013673D02*
Y0013860D01*
X0026909Y0013766D01*
Y0013720D01*
X0026509D01*
X0026642Y0014096D02*
X0026509Y0014003D01*
X0026576Y0014190D02*
X0026509Y0014166D01*
Y0014073D01*
X0026576Y0014050D01*
X0026642Y0014003D01*
X0026842D01*
X0026909Y0014026D01*
Y0014166D01*
X0026842Y0014190D01*
X0026576D01*
X0028067Y0023333D02*
Y0023520D01*
X0028333Y0023333D01*
X0028400D01*
X0028467Y0023357D01*
Y0023497D01*
X0028400Y0023520D01*
X0028067Y0023663D02*
Y0023827D01*
X0028467D01*
X0017060Y0018641D02*
X0017127Y0018688D01*
X0017194Y0018711D01*
X0017327D01*
X0017394Y0018688D01*
X0017460Y0018641D01*
Y0018594D01*
X0017394Y0018548D01*
X0017327Y0018524D01*
X0017194D01*
X0017127Y0018548D01*
X0017060Y0018594D01*
Y0018641D01*
X0017127Y0019041D02*
X0017060Y0018994D01*
Y0018901D01*
X0017127Y0018854D01*
X0017194D01*
X0017327Y0018948D01*
X0017460Y0018854D01*
Y0019041D01*
X0017260Y0019254D02*
X0017060Y0019184D01*
X0017260Y0019371D02*
Y0019231D01*
X0017327Y0019184D01*
X0017394D01*
X0017460Y0019231D01*
Y0019371D01*
X0017060D01*
X0020724Y0026653D02*
Y0026793D01*
X0020791Y0026817D01*
X0020857D01*
X0020924Y0026793D01*
Y0026653D01*
X0020857Y0026630D01*
X0020791D01*
X0020524Y0026723D01*
Y0026960D02*
Y0027123D01*
X0020924D01*
X0020524Y0027430D02*
X0020924D01*
X0020524Y0027453D02*
Y0027313D01*
X0020657Y0027267D01*
X0020791D01*
X0020924Y0027313D01*
Y0027453D01*
X0011073Y0012442D02*
Y0012629D01*
X0011340Y0012442D01*
X0011407D01*
X0011473Y0012466D01*
Y0012606D01*
X0011407Y0012629D01*
X0011073Y0012936D02*
X0011473D01*
X0011073Y0012959D02*
Y0012819D01*
X0011207Y0012772D01*
X0011340D01*
X0011473Y0012819D01*
Y0012959D01*
X-0000327Y0015529D02*
Y0015389D01*
X-0000394Y0015365D01*
X-0000460D01*
X-0000527Y0015389D01*
Y0015529D01*
X-0000460Y0015552D01*
X-0000394D01*
X-0000127Y0015459D01*
X-0000327Y0015765D02*
X-0000527Y0015695D01*
X-0000327Y0015882D02*
Y0015742D01*
X-0000260Y0015695D01*
X-0000194D01*
X-0000127Y0015742D01*
Y0015882D01*
X-0000527D01*
X0016339Y0018719D02*
X0016273Y0018672D01*
Y0018579D01*
X0016339Y0018532D01*
X0016406D01*
X0016539Y0018625D01*
X0016673Y0018532D01*
Y0018719D01*
X0016273Y0018862D02*
Y0018955D01*
Y0018909D02*
X0016673D01*
X0016606Y0018955D01*
X0016339Y0019145D02*
X0016273Y0019169D01*
Y0019309D01*
X0016339Y0019332D01*
X0016606D01*
X0016673Y0019309D01*
Y0019169D01*
X0016606Y0019145D01*
X0012710Y0022191D02*
X0012777Y0022238D01*
X0012844Y0022261D01*
X0012977D01*
X0013044Y0022238D01*
X0013110Y0022191D01*
Y0022144D01*
X0013044Y0022098D01*
X0012977Y0022074D01*
X0012844D01*
X0012777Y0022098D01*
X0012710Y0022144D01*
Y0022191D01*
X0012910Y0022568D02*
Y0022428D01*
X0012844Y0022404D01*
X0012777D01*
X0012710Y0022428D01*
Y0022568D01*
X0012777Y0022591D01*
X0012844D01*
X0013110Y0022498D01*
X0012910Y0022804D02*
X0012710Y0022734D01*
X0012910Y0022921D02*
Y0022781D01*
X0012977Y0022734D01*
X0013044D01*
X0013110Y0022781D01*
Y0022921D01*
X0012710D01*
X0011710Y0020898D02*
Y0021038D01*
X0011777Y0021061D01*
X0011844D01*
X0011910Y0021038D01*
Y0020898D01*
X0011844Y0020874D01*
X0011777D01*
X0011510Y0020968D01*
X0011577Y0021391D02*
X0011510Y0021368D01*
Y0021228D01*
X0011577Y0021204D01*
X0011710D01*
X0011777Y0021251D01*
Y0021391D01*
X0011910D01*
Y0021204D01*
X0011710Y0021604D02*
X0011510Y0021534D01*
X0011710Y0021721D02*
Y0021581D01*
X0011777Y0021534D01*
X0011844D01*
X0011910Y0021581D01*
Y0021721D01*
X0011510D01*
X0014869Y0009339D02*
Y0009526D01*
X0015136Y0009433D01*
Y0009386D01*
X0014736D01*
X0015136Y0009669D02*
X0014803D01*
X0014736Y0009693D01*
Y0009833D01*
X0014803Y0009856D01*
X0015136D01*
X-0001239Y0010838D02*
X-0001173Y0010884D01*
X-0001106Y0010908D01*
X-0000973D01*
X-0000906Y0010884D01*
X-0000839Y0010838D01*
Y0010791D01*
X-0000906Y0010744D01*
X-0000973Y0010721D01*
X-0001106D01*
X-0001173Y0010744D01*
X-0001239Y0010791D01*
Y0010838D01*
Y0011051D02*
Y0011144D01*
Y0011098D02*
X-0000839D01*
X-0000906Y0011144D01*
X-0001173Y0011334D02*
X-0001239Y0011358D01*
Y0011498D01*
X-0001173Y0011521D01*
X-0000906D01*
X-0000839Y0011498D01*
Y0011358D01*
X-0000906Y0011334D01*
X0023010Y0023088D02*
Y0022948D01*
X0022944Y0022924D01*
X0022877D01*
X0022810Y0022948D01*
Y0023088D01*
X0022877Y0023111D01*
X0022944D01*
X0023210Y0023018D01*
X0022877Y0023441D02*
X0022810Y0023394D01*
Y0023301D01*
X0022877Y0023254D01*
X0022944D01*
X0023077Y0023348D01*
X0023210Y0023254D01*
Y0023441D01*
X0023010Y0023654D02*
X0022810Y0023584D01*
X0023010Y0023771D02*
Y0023631D01*
X0023077Y0023584D01*
X0023144D01*
X0023210Y0023631D01*
Y0023771D01*
X0022810D01*
X0019203Y0022216D02*
Y0022309D01*
Y0022262D02*
X0019603D01*
X0019537Y0022309D01*
X0019203Y0022499D02*
Y0022592D01*
Y0022546D02*
X0019603D01*
X0019537Y0022592D01*
X0019337Y0022876D02*
X0019203Y0022782D01*
X0019270Y0022969D02*
X0019203Y0022946D01*
Y0022852D01*
X0019270Y0022829D01*
X0019337Y0022782D01*
X0019537D01*
X0019603Y0022806D01*
Y0022946D01*
X0019537Y0022969D01*
X0019270D01*
X0009623Y0020959D02*
Y0021099D01*
X0009689Y0021122D01*
X0009756D01*
X0009823Y0021099D01*
Y0020959D01*
X0009756Y0020935D01*
X0009689D01*
X0009423Y0021029D01*
X0009556Y0021265D02*
Y0021452D01*
X0009823Y0021359D01*
Y0021312D01*
X0009423D01*
X0009623Y0021665D02*
X0009423Y0021595D01*
X0009623Y0021782D02*
Y0021642D01*
X0009689Y0021595D01*
X0009756D01*
X0009823Y0021642D01*
Y0021782D01*
X0009423D01*
X0017403Y0022286D02*
X0017470Y0022332D01*
X0017537Y0022356D01*
X0017670D01*
X0017737Y0022332D01*
X0017803Y0022286D01*
Y0022239D01*
X0017737Y0022192D01*
X0017670Y0022169D01*
X0017537D01*
X0017470Y0022192D01*
X0017403Y0022239D01*
Y0022286D01*
Y0022499D02*
Y0022592D01*
Y0022546D02*
X0017803D01*
X0017737Y0022592D01*
X0017537Y0022876D02*
X0017403Y0022782D01*
X0017470Y0022969D02*
X0017403Y0022946D01*
Y0022852D01*
X0017470Y0022829D01*
X0017537Y0022782D01*
X0017737D01*
X0017803Y0022806D01*
Y0022946D01*
X0017737Y0022969D01*
X0017470D01*
X-0000427Y0010732D02*
Y0010919D01*
X-0000160Y0010732D01*
X-0000094D01*
X-0000027Y0010755D01*
Y0010895D01*
X-0000094Y0010919D01*
X-0000427Y0011062D02*
Y0011155D01*
Y0011109D02*
X-0000027D01*
X-0000094Y0011155D01*
X-0000227Y0011415D02*
X-0000427Y0011345D01*
X-0000227Y0011532D02*
Y0011392D01*
X-0000160Y0011345D01*
X-0000094D01*
X-0000027Y0011392D01*
Y0011532D01*
X-0000427D01*
X0012153Y0022642D02*
X0012553Y0022502D01*
Y0022689D01*
X0012287Y0022926D02*
X0012153Y0022832D01*
X0012220Y0023019D02*
X0012153Y0022996D01*
Y0022902D01*
X0012220Y0022879D01*
X0012287Y0022832D01*
X0012487D01*
X0012553Y0022856D01*
Y0022996D01*
X0012487Y0023019D01*
X0012220D01*
X0039750Y0001033D02*
Y0001220D01*
X0040016Y0001127D01*
Y0001080D01*
X0039616D01*
X0039750Y0001527D02*
X0039683D01*
X0039616Y0001503D01*
Y0001410D01*
X0039683Y0001387D01*
X0040016D01*
Y0001363D02*
Y0001457D01*
X0040633Y0002190D02*
Y0002110D01*
Y0002150D02*
X0040233D01*
X0040300Y0002110D01*
X0010810Y0020874D02*
Y0021061D01*
X0011077Y0020874D01*
X0011144D01*
X0011210Y0020898D01*
Y0021038D01*
X0011144Y0021061D01*
X0010877Y0021391D02*
X0010810Y0021368D01*
Y0021228D01*
X0010877Y0021204D01*
X0011010D01*
X0011077Y0021251D01*
Y0021391D01*
X0011210D01*
Y0021204D01*
X0011010Y0021604D02*
X0010810Y0021534D01*
X0011010Y0021721D02*
Y0021581D01*
X0011077Y0021534D01*
X0011144D01*
X0011210Y0021581D01*
Y0021721D01*
X0010810D01*
X0028727Y0025461D02*
X0028660Y0025438D01*
Y0025298D01*
X0028727Y0025274D01*
X0028860D01*
X0028927Y0025321D01*
Y0025461D01*
X0029060D01*
Y0025274D01*
X0028727Y0025791D02*
X0028660Y0025744D01*
Y0025651D01*
X0028727Y0025604D01*
X0028794D01*
X0028927Y0025698D01*
X0029060Y0025604D01*
Y0025791D01*
X0028860Y0026004D02*
X0028660Y0025934D01*
X0028860Y0026121D02*
Y0025981D01*
X0028927Y0025934D01*
X0028994D01*
X0029060Y0025981D01*
Y0026121D01*
X0028660D01*
X0027873Y0013725D02*
X0028273Y0013585D01*
Y0013772D01*
X0028006Y0013915D02*
Y0014102D01*
X0028273Y0014009D01*
Y0013962D01*
X0027873D01*
X0028073Y0014315D02*
X0027873Y0014245D01*
X0028073Y0014432D02*
Y0014292D01*
X0028139Y0014245D01*
X0028206D01*
X0028273Y0014292D01*
Y0014432D01*
X0027873D01*
X0003623Y0023059D02*
X0003689Y0023035D01*
X0003756D01*
X0003823Y0023059D01*
Y0023199D01*
X0003756Y0023222D01*
X0003689D01*
X0003623Y0023199D01*
Y0023059D01*
X0003556Y0023035D01*
X0003489D01*
X0003423Y0023059D01*
Y0023199D01*
X0003489Y0023222D01*
X0003556D01*
X0003623Y0023199D01*
X0003556Y0023365D02*
Y0023552D01*
X0003823Y0023459D01*
Y0023412D01*
X0003423D01*
X0003623Y0023765D02*
X0003423Y0023695D01*
X0003623Y0023882D02*
Y0023742D01*
X0003689Y0023695D01*
X0003756D01*
X0003823Y0023742D01*
Y0023882D01*
X0003423D01*
X0014373Y0016032D02*
Y0016125D01*
Y0016079D02*
X0014773D01*
X0014706Y0016125D01*
X0014373Y0016315D02*
Y0016502D01*
X0014639Y0016315D01*
X0014706D01*
X0014773Y0016339D01*
Y0016479D01*
X0014706Y0016502D01*
X0014573Y0016715D02*
X0014373Y0016645D01*
X0014573Y0016832D02*
Y0016692D01*
X0014639Y0016645D01*
X0014706D01*
X0014773Y0016692D01*
Y0016832D01*
X0014373D01*
X0016216Y0021622D02*
X0016356D01*
X0016379Y0021555D01*
Y0021489D01*
X0016356Y0021422D01*
X0016216D01*
X0016193Y0021489D01*
Y0021555D01*
X0016286Y0021822D01*
X0016049Y0021422D02*
X0015956D01*
X0016003D02*
Y0021822D01*
X0015956Y0021755D01*
X0015696Y0021622D02*
X0015766Y0021422D01*
X0015579Y0021622D02*
X0015719D01*
X0015766Y0021689D01*
Y0021755D01*
X0015719Y0021822D01*
X0015579D01*
Y0021422D01*
X0014001Y0018571D02*
X0013934Y0018548D01*
Y0018408D01*
X0014001Y0018384D01*
X0014134D01*
X0014201Y0018431D01*
Y0018571D01*
X0014334D01*
Y0018384D01*
Y0018714D02*
X0014001D01*
X0013934Y0018738D01*
Y0018878D01*
X0014001Y0018901D01*
X0014334D01*
X-0001005Y0019991D02*
X-0000605Y0019851D01*
Y0020038D01*
X-0000805Y0020368D02*
Y0020228D01*
X-0000739Y0020181D01*
X-0000672D01*
X-0000605Y0020228D01*
Y0020368D01*
X-0001005D01*
Y0020605D02*
X-0000605D01*
Y0020511D02*
Y0020698D01*
X0005074Y0013830D02*
X0005097Y0013764D01*
X0005237D01*
X0005261Y0013830D01*
Y0013964D01*
X0005214Y0014030D01*
X0005074D01*
Y0014164D01*
X0005261D01*
X0004931Y0013764D02*
X0004837D01*
X0004884D02*
Y0014164D01*
X0004837Y0014097D01*
X0004577Y0013964D02*
X0004647Y0013764D01*
X0004461Y0013964D02*
X0004601D01*
X0004647Y0014030D01*
Y0014097D01*
X0004601Y0014164D01*
X0004461D01*
Y0013764D01*
X0034221Y0012308D02*
X0034621Y0012168D01*
Y0012355D01*
X0034221Y0012662D02*
X0034621D01*
X0034221Y0012685D02*
Y0012545D01*
X0034354Y0012498D01*
X0034488D01*
X0034621Y0012545D01*
Y0012685D01*
X0003506Y0020791D02*
X0003573Y0020768D01*
X0003639D01*
X0003706Y0020791D01*
Y0020931D01*
X0003639Y0020954D01*
X0003573D01*
X0003506Y0020931D01*
Y0020791D01*
X0003439Y0020768D01*
X0003373D01*
X0003306Y0020791D01*
Y0020931D01*
X0003373Y0020954D01*
X0003439D01*
X0003506Y0020931D01*
X0003306Y0021098D02*
Y0021284D01*
X0003573Y0021098D01*
X0003639D01*
X0003706Y0021121D01*
Y0021261D01*
X0003639Y0021284D01*
X0003373Y0021428D02*
X0003306Y0021451D01*
Y0021591D01*
X0003373Y0021614D01*
X0003639D01*
X0003706Y0021591D01*
Y0021451D01*
X0003639Y0021428D01*
X0043454Y0008195D02*
X0043267D01*
X0043454Y0008462D01*
Y0008529D01*
X0043430Y0008595D01*
X0043290D01*
X0043267Y0008529D01*
X0043124Y0008329D02*
X0042937D01*
X0043030Y0008595D01*
X0043077D01*
Y0008195D01*
X0042724Y0008395D02*
X0042794Y0008195D01*
X0042607Y0008395D02*
X0042747D01*
X0042794Y0008462D01*
Y0008529D01*
X0042747Y0008595D01*
X0042607D01*
Y0008195D01*
X0014153Y0022476D02*
X0014220Y0022452D01*
X0014287D01*
X0014353Y0022476D01*
Y0022616D01*
X0014287Y0022639D01*
X0014220D01*
X0014153Y0022616D01*
Y0022476D01*
X0014087Y0022452D01*
X0014020D01*
X0013953Y0022476D01*
Y0022616D01*
X0014020Y0022639D01*
X0014087D01*
X0014153Y0022616D01*
X0014087Y0022876D02*
X0013953Y0022782D01*
X0014020Y0022969D02*
X0013953Y0022946D01*
Y0022852D01*
X0014020Y0022829D01*
X0014087Y0022782D01*
X0014287D01*
X0014353Y0022806D01*
Y0022946D01*
X0014287Y0022969D01*
X0014020D01*
X0014248Y0006999D02*
X0014182Y0006976D01*
Y0006836D01*
X0014248Y0006813D01*
X0014382D01*
X0014448Y0006859D01*
Y0006999D01*
X0014582D01*
Y0006813D01*
X0014182Y0007306D02*
X0014582D01*
X0014182Y0007329D02*
Y0007189D01*
X0014315Y0007143D01*
X0014448D01*
X0014582Y0007189D01*
Y0007329D01*
X0018860Y0013254D02*
Y0013441D01*
X0019127Y0013254D01*
X0019194D01*
X0019260Y0013278D01*
Y0013418D01*
X0019194Y0013441D01*
X0019060Y0013654D02*
X0018860Y0013584D01*
X0019060Y0013771D02*
Y0013631D01*
X0019127Y0013584D01*
X0019194D01*
X0019260Y0013631D01*
Y0013771D01*
X0018860D01*
X0028873Y0022955D02*
Y0023095D01*
X0028939Y0023119D01*
X0029006D01*
X0029073Y0023095D01*
Y0022955D01*
X0029006Y0022932D01*
X0028939D01*
X0028673Y0023025D01*
Y0023262D02*
Y0023355D01*
Y0023309D02*
X0029073D01*
X0029006Y0023355D01*
X0028739Y0023545D02*
X0028673Y0023569D01*
Y0023709D01*
X0028739Y0023732D01*
X0029006D01*
X0029073Y0023709D01*
Y0023569D01*
X0029006Y0023545D01*
X0018674Y0026603D02*
X0018741Y0026580D01*
X0018807D01*
X0018874Y0026603D01*
Y0026743D01*
X0018807Y0026767D01*
X0018741D01*
X0018674Y0026743D01*
Y0026603D01*
X0018607Y0026580D01*
X0018541D01*
X0018474Y0026603D01*
Y0026743D01*
X0018541Y0026767D01*
X0018607D01*
X0018674Y0026743D01*
X0018474Y0026910D02*
Y0027073D01*
X0018874D01*
X0018474Y0027380D02*
X0018874D01*
X0018474Y0027403D02*
Y0027263D01*
X0018607Y0027217D01*
X0018741D01*
X0018874Y0027263D01*
Y0027403D01*
X0019673Y0020449D02*
Y0020309D01*
X0019606Y0020285D01*
X0019539D01*
X0019473Y0020309D01*
Y0020449D01*
X0019539Y0020472D01*
X0019606D01*
X0019873Y0020379D01*
X0019473Y0020615D02*
Y0020802D01*
X0019739Y0020615D01*
X0019806D01*
X0019873Y0020639D01*
Y0020779D01*
X0019806Y0020802D01*
X0019673Y0021015D02*
X0019473Y0020945D01*
X0019673Y0021132D02*
Y0020992D01*
X0019739Y0020945D01*
X0019806D01*
X0019873Y0020992D01*
Y0021132D01*
X0019473D01*
X0029949Y0002754D02*
Y0002940D01*
X0030216Y0002847D01*
Y0002800D01*
X0029816D01*
Y0003084D02*
X0030016Y0003224D01*
X0030216Y0003084D01*
Y0003270D02*
X0029816D01*
X0023405Y0022011D02*
Y0022151D01*
X0023472Y0022174D01*
X0023539D01*
X0023605Y0022151D01*
Y0022011D01*
X0023539Y0021988D01*
X0023472D01*
X0023205Y0022081D01*
X0023605Y0022318D02*
X0023272D01*
X0023205Y0022341D01*
Y0022481D01*
X0023272Y0022504D01*
X0023605D01*
X0015523Y0015122D02*
X0015923Y0014982D01*
Y0015169D01*
X0015523Y0015312D02*
Y0015405D01*
Y0015359D02*
X0015923D01*
X0015856Y0015405D01*
X0015723Y0015665D02*
X0015523Y0015595D01*
X0015723Y0015782D02*
Y0015642D01*
X0015789Y0015595D01*
X0015856D01*
X0015923Y0015642D01*
Y0015782D01*
X0015523D01*
X0015417Y0021411D02*
X0015230D01*
X0015417Y0021678D01*
Y0021744D01*
X0015394Y0021811D01*
X0015254D01*
X0015230Y0021744D01*
X0015087Y0021411D02*
X0014994D01*
X0015040D02*
Y0021811D01*
X0014994Y0021744D01*
X0014804Y0021478D02*
X0014780Y0021411D01*
X0014640D01*
X0014617Y0021478D01*
Y0021744D01*
X0014640Y0021811D01*
X0014780D01*
X0014804Y0021744D01*
X0019260Y0026864D02*
X0019660Y0026724D01*
Y0026911D01*
X0019327Y0027241D02*
X0019260Y0027218D01*
Y0027078D01*
X0019327Y0027054D01*
X0019460D01*
X0019527Y0027101D01*
Y0027241D01*
X0019660D01*
Y0027054D01*
X0019460Y0027454D02*
X0019260Y0027384D01*
X0019460Y0027571D02*
Y0027431D01*
X0019527Y0027384D01*
X0019594D01*
X0019660Y0027431D01*
Y0027571D01*
X0019260D01*
X0017960Y0026888D02*
Y0026748D01*
X0017894Y0026724D01*
X0017827D01*
X0017760Y0026748D01*
Y0026888D01*
X0017827Y0026911D01*
X0017894D01*
X0018160Y0026818D01*
X0017827Y0027241D02*
X0017760Y0027218D01*
Y0027078D01*
X0017827Y0027054D01*
X0017960D01*
X0018027Y0027101D01*
Y0027241D01*
X0018160D01*
Y0027054D01*
X0017960Y0027454D02*
X0017760Y0027384D01*
X0017960Y0027571D02*
Y0027431D01*
X0018027Y0027384D01*
X0018094D01*
X0018160Y0027431D01*
Y0027571D01*
X0017760D01*
X0001389Y0017419D02*
X0001323Y0017372D01*
Y0017279D01*
X0001389Y0017232D01*
X0001456D01*
X0001589Y0017325D01*
X0001723Y0017232D01*
Y0017419D01*
X0001323Y0017562D02*
Y0017655D01*
Y0017609D02*
X0001723D01*
X0001656Y0017655D01*
X0001523Y0017915D02*
X0001323Y0017845D01*
X0001523Y0018032D02*
Y0017892D01*
X0001589Y0017845D01*
X0001656D01*
X0001723Y0017892D01*
Y0018032D01*
X0001323D01*
X0028810Y0015398D02*
Y0015538D01*
X0028877Y0015561D01*
X0028944D01*
X0029010Y0015538D01*
Y0015398D01*
X0028944Y0015374D01*
X0028877D01*
X0028610Y0015468D01*
X0028677Y0015891D02*
X0028610Y0015844D01*
Y0015751D01*
X0028677Y0015704D01*
X0028744D01*
X0028877Y0015798D01*
X0029010Y0015704D01*
Y0015891D01*
X0028810Y0016104D02*
X0028610Y0016034D01*
X0028810Y0016221D02*
Y0016081D01*
X0028877Y0016034D01*
X0028944D01*
X0029010Y0016081D01*
Y0016221D01*
X0028610D01*
X0010091Y0026817D02*
X0010024Y0026770D01*
Y0026677D01*
X0010091Y0026630D01*
X0010157D01*
X0010291Y0026723D01*
X0010424Y0026630D01*
Y0026817D01*
X0010024Y0026960D02*
Y0027123D01*
X0010424D01*
X0010024Y0027430D02*
X0010424D01*
X0010024Y0027453D02*
Y0027313D01*
X0010157Y0027267D01*
X0010291D01*
X0010424Y0027313D01*
Y0027453D01*
X0014460Y0022071D02*
Y0022164D01*
Y0022118D02*
X0014860D01*
X0014794Y0022164D01*
X0014660Y0022518D02*
Y0022378D01*
X0014594Y0022354D01*
X0014527D01*
X0014460Y0022378D01*
Y0022518D01*
X0014527Y0022541D01*
X0014594D01*
X0014860Y0022448D01*
X0014660Y0022754D02*
X0014460Y0022684D01*
X0014660Y0022871D02*
Y0022731D01*
X0014727Y0022684D01*
X0014794D01*
X0014860Y0022731D01*
Y0022871D01*
X0014460D01*
X0012627Y0026911D02*
X0012560Y0026864D01*
Y0026771D01*
X0012627Y0026724D01*
X0012694D01*
X0012827Y0026818D01*
X0012960Y0026724D01*
Y0026911D01*
X0012627Y0027241D02*
X0012560Y0027218D01*
Y0027078D01*
X0012627Y0027054D01*
X0012760D01*
X0012827Y0027101D01*
Y0027241D01*
X0012960D01*
Y0027054D01*
X0012760Y0027454D02*
X0012560Y0027384D01*
X0012760Y0027571D02*
Y0027431D01*
X0012827Y0027384D01*
X0012894D01*
X0012960Y0027431D01*
Y0027571D01*
X0012560D01*
X0025562Y0025939D02*
X0025962Y0025799D01*
Y0025985D01*
Y0026129D02*
X0025629D01*
X0025562Y0026152D01*
Y0026292D01*
X0025629Y0026315D01*
X0025962D01*
X0006461Y0013897D02*
X0006274D01*
X0006367Y0014164D01*
X0006414D01*
Y0013764D01*
X0006131D02*
X0006037D01*
X0006084D02*
Y0014164D01*
X0006037Y0014097D01*
X0005777Y0013964D02*
X0005847Y0013764D01*
X0005661Y0013964D02*
X0005801D01*
X0005847Y0014030D01*
Y0014097D01*
X0005801Y0014164D01*
X0005661D01*
Y0013764D01*
X0029510Y0026444D02*
X0029577Y0026421D01*
X0029644D01*
X0029710Y0026444D01*
Y0026584D01*
X0029644Y0026608D01*
X0029577D01*
X0029510Y0026584D01*
Y0026444D01*
X0029444Y0026421D01*
X0029377D01*
X0029310Y0026444D01*
Y0026584D01*
X0029377Y0026608D01*
X0029444D01*
X0029510Y0026584D01*
X0029310Y0026751D02*
Y0026844D01*
Y0026798D02*
X0029710D01*
X0029644Y0026844D01*
X0029377Y0027034D02*
X0029310Y0027058D01*
Y0027198D01*
X0029377Y0027221D01*
X0029644D01*
X0029710Y0027198D01*
Y0027058D01*
X0029644Y0027034D01*
X0013510Y0003718D02*
Y0003811D01*
Y0003764D02*
X0013910D01*
X0013844Y0003811D01*
X0013510Y0004001D02*
Y0004094D01*
Y0004048D02*
X0013910D01*
X0013844Y0004094D01*
X0013710Y0004354D02*
X0013510Y0004284D01*
X0013710Y0004471D02*
Y0004331D01*
X0013777Y0004284D01*
X0013844D01*
X0013910Y0004331D01*
Y0004471D01*
X0013510D01*
X0001439Y0020214D02*
X0001372Y0020190D01*
Y0020050D01*
X0001439Y0020027D01*
X0001572D01*
X0001639Y0020074D01*
Y0020214D01*
X0001772D01*
Y0020027D01*
X0001372Y0020357D02*
Y0020520D01*
X0001772D01*
X0033867Y0023233D02*
Y0023420D01*
X0034133Y0023233D01*
X0034200D01*
X0034267Y0023257D01*
Y0023397D01*
X0034200Y0023420D01*
X0034000Y0023727D02*
X0033933D01*
X0033867Y0023703D01*
Y0023610D01*
X0033933Y0023587D01*
X0034267D01*
Y0023563D02*
Y0023657D01*
X0009023Y0026852D02*
X0009089Y0026899D01*
X0009156Y0026922D01*
X0009289D01*
X0009356Y0026899D01*
X0009423Y0026852D01*
Y0026805D01*
X0009356Y0026759D01*
X0009289Y0026735D01*
X0009156D01*
X0009089Y0026759D01*
X0009023Y0026805D01*
Y0026852D01*
X0009089Y0027252D02*
X0009023Y0027229D01*
Y0027089D01*
X0009089Y0027065D01*
X0009223D01*
X0009289Y0027112D01*
Y0027252D01*
X0009423D01*
Y0027065D01*
X0009223Y0027465D02*
X0009023Y0027395D01*
X0009223Y0027582D02*
Y0027442D01*
X0009289Y0027395D01*
X0009356D01*
X0009423Y0027442D01*
Y0027582D01*
X0009023D01*
X0031426Y0013910D02*
X0031359Y0013886D01*
Y0013746D01*
X0031426Y0013723D01*
X0031559D01*
X0031626Y0013770D01*
Y0013910D01*
X0031759D01*
Y0013723D01*
X0031492Y0014146D02*
X0031359Y0014053D01*
X0031426Y0014240D02*
X0031359Y0014216D01*
Y0014123D01*
X0031426Y0014100D01*
X0031492Y0014053D01*
X0031692D01*
X0031759Y0014076D01*
Y0014216D01*
X0031692Y0014240D01*
X0031426D01*
X0020994Y0019115D02*
Y0018975D01*
X0020928Y0018951D01*
X0020861D01*
X0020794Y0018975D01*
Y0019115D01*
X0020861Y0019138D01*
X0020928D01*
X0021194Y0019045D01*
X0020994Y0019468D02*
Y0019328D01*
X0021061Y0019281D01*
X0021128D01*
X0021194Y0019328D01*
Y0019468D01*
X0020794D01*
Y0019705D02*
X0021194D01*
Y0019611D02*
Y0019798D01*
X0033323Y0022109D02*
X0033389Y0022085D01*
X0033456D01*
X0033523Y0022109D01*
Y0022249D01*
X0033456Y0022272D01*
X0033389D01*
X0033323Y0022249D01*
Y0022109D01*
X0033256Y0022085D01*
X0033189D01*
X0033123Y0022109D01*
Y0022249D01*
X0033189Y0022272D01*
X0033256D01*
X0033323Y0022249D01*
X0033189Y0022602D02*
X0033123Y0022555D01*
Y0022462D01*
X0033189Y0022415D01*
X0033256D01*
X0033389Y0022509D01*
X0033523Y0022415D01*
Y0022602D01*
X0033323Y0022815D02*
X0033123Y0022745D01*
X0033323Y0022932D02*
Y0022792D01*
X0033389Y0022745D01*
X0033456D01*
X0033523Y0022792D01*
Y0022932D01*
X0033123D01*
X0021123Y0015309D02*
Y0015449D01*
X0021189Y0015472D01*
X0021256D01*
X0021323Y0015449D01*
Y0015309D01*
X0021256Y0015285D01*
X0021189D01*
X0020923Y0015379D01*
Y0015615D02*
Y0015802D01*
X0021189Y0015615D01*
X0021256D01*
X0021323Y0015639D01*
Y0015779D01*
X0021256Y0015802D01*
X0021123Y0016015D02*
X0020923Y0015945D01*
X0021123Y0016132D02*
Y0015992D01*
X0021189Y0015945D01*
X0021256D01*
X0021323Y0015992D01*
Y0016132D01*
X0020923D01*
X0031013Y0021617D02*
X0030920D01*
X0030967D02*
Y0022017D01*
X0030920Y0021950D01*
X0026089Y0018363D02*
X0026156Y0018339D01*
X0026223D01*
X0026289Y0018363D01*
Y0018503D01*
X0026223Y0018526D01*
X0026156D01*
X0026089Y0018503D01*
Y0018363D01*
X0026023Y0018339D01*
X0025956D01*
X0025889Y0018363D01*
Y0018503D01*
X0025956Y0018526D01*
X0026023D01*
X0026089Y0018503D01*
X0026289Y0018669D02*
X0025956D01*
X0025889Y0018693D01*
Y0018833D01*
X0025956Y0018856D01*
X0026289D01*
X0018656Y0014935D02*
Y0015122D01*
X0018923Y0015029D01*
Y0014982D01*
X0018523D01*
Y0015265D02*
Y0015452D01*
X0018789Y0015265D01*
X0018856D01*
X0018923Y0015289D01*
Y0015429D01*
X0018856Y0015452D01*
X0018723Y0015665D02*
X0018523Y0015595D01*
X0018723Y0015782D02*
Y0015642D01*
X0018789Y0015595D01*
X0018856D01*
X0018923Y0015642D01*
Y0015782D01*
X0018523D01*
X0014444Y0026724D02*
Y0026911D01*
X0014710Y0026818D01*
Y0026771D01*
X0014310D01*
X0014377Y0027241D02*
X0014310Y0027218D01*
Y0027078D01*
X0014377Y0027054D01*
X0014510D01*
X0014577Y0027101D01*
Y0027241D01*
X0014710D01*
Y0027054D01*
X0014510Y0027454D02*
X0014310Y0027384D01*
X0014510Y0027571D02*
Y0027431D01*
X0014577Y0027384D01*
X0014644D01*
X0014710Y0027431D01*
Y0027571D01*
X0014310D01*
X0039604Y0016816D02*
X0039537Y0016769D01*
Y0016676D01*
X0039604Y0016629D01*
X0039671D01*
X0039804Y0016723D01*
X0039937Y0016629D01*
Y0016816D01*
X0039537Y0016959D02*
X0039737Y0017099D01*
X0039937Y0016959D01*
Y0017146D02*
X0039537D01*
X0004414Y0014436D02*
Y0014529D01*
Y0014482D02*
X0004814D01*
X0004747Y0014529D01*
X0004414Y0014719D02*
Y0014812D01*
Y0014766D02*
X0004814D01*
X0004747Y0014812D01*
X0004480Y0015002D02*
X0004414Y0015026D01*
Y0015166D01*
X0004480Y0015189D01*
X0004747D01*
X0004814Y0015166D01*
Y0015026D01*
X0004747Y0015002D01*
X0022106Y0022935D02*
Y0023122D01*
X0022373Y0023029D01*
Y0022982D01*
X0021973D01*
X0022039Y0023452D02*
X0021973Y0023405D01*
Y0023312D01*
X0022039Y0023265D01*
X0022106D01*
X0022239Y0023359D01*
X0022373Y0023265D01*
Y0023452D01*
X0022173Y0023665D02*
X0021973Y0023595D01*
X0022173Y0023782D02*
Y0023642D01*
X0022239Y0023595D01*
X0022306D01*
X0022373Y0023642D01*
Y0023782D01*
X0021973D01*
X0011203Y0009426D02*
X0011136Y0009379D01*
Y0009286D01*
X0011203Y0009239D01*
X0011269D01*
X0011403Y0009333D01*
X0011536Y0009239D01*
Y0009426D01*
Y0009569D02*
X0011203D01*
X0011136Y0009593D01*
Y0009733D01*
X0011203Y0009756D01*
X0011536D01*
X0002405Y0022427D02*
Y0022614D01*
X0002672Y0022520D01*
Y0022474D01*
X0002272D01*
Y0022757D02*
Y0022920D01*
X0002672D01*
X0014869Y0003061D02*
Y0002921D01*
X0014803Y0002897D01*
X0014736D01*
X0014669Y0002921D01*
Y0003061D01*
X0014736Y0003084D01*
X0014803D01*
X0015069Y0002991D01*
X0014736Y0003227D02*
X0014669Y0003251D01*
Y0003391D01*
X0014736Y0003414D01*
X0015003D01*
X0015069Y0003391D01*
Y0003251D01*
X0015003Y0003227D01*
X0017467Y0009207D02*
Y0009300D01*
Y0009253D02*
X0017867D01*
X0017800Y0009300D01*
X0017867Y0009490D02*
X0017533D01*
X0017467Y0009513D01*
Y0009653D01*
X0017533Y0009677D01*
X0017867D01*
X0038739Y0007244D02*
X0038805Y0007290D01*
X0038872Y0007314D01*
X0039005D01*
X0039072Y0007290D01*
X0039139Y0007244D01*
Y0007197D01*
X0039072Y0007150D01*
X0039005Y0007127D01*
X0038872D01*
X0038805Y0007150D01*
X0038739Y0007197D01*
Y0007244D01*
X0038872Y0007457D02*
Y0007644D01*
X0039139Y0007550D01*
Y0007504D01*
X0038739D01*
X0038939Y0007857D02*
X0038739Y0007787D01*
X0038939Y0007974D02*
Y0007834D01*
X0039005Y0007787D01*
X0039072D01*
X0039139Y0007834D01*
Y0007974D01*
X0038739D01*
X0041622Y0023540D02*
X0041556Y0023493D01*
Y0023400D01*
X0041622Y0023353D01*
X0041689D01*
X0041822Y0023446D01*
X0041956Y0023353D01*
Y0023540D01*
X0041689Y0023846D02*
X0041622D01*
X0041556Y0023823D01*
Y0023730D01*
X0041622Y0023706D01*
X0041956D01*
Y0023683D02*
Y0023776D01*
X0013461Y0014788D02*
X0013394Y0014741D01*
Y0014648D01*
X0013461Y0014601D01*
X0013528D01*
X0013661Y0014695D01*
X0013794Y0014601D01*
Y0014788D01*
X0013594Y0015118D02*
Y0014978D01*
X0013661Y0014931D01*
X0013728D01*
X0013794Y0014978D01*
Y0015118D01*
X0013394D01*
Y0015355D02*
X0013794D01*
Y0015261D02*
Y0015448D01*
X0013460Y0019674D02*
Y0019861D01*
X0013727Y0019674D01*
X0013794D01*
X0013860Y0019698D01*
Y0019838D01*
X0013794Y0019861D01*
X0013460Y0020004D02*
Y0020191D01*
X0013727Y0020004D01*
X0013794D01*
X0013860Y0020028D01*
Y0020168D01*
X0013794Y0020191D01*
X0013660Y0020404D02*
X0013460Y0020334D01*
X0013660Y0020521D02*
Y0020381D01*
X0013727Y0020334D01*
X0013794D01*
X0013860Y0020381D01*
Y0020521D01*
X0013460D01*
X0036573Y0017440D02*
X0036507Y0017393D01*
Y0017300D01*
X0036573Y0017253D01*
X0036640D01*
X0036773Y0017347D01*
X0036907Y0017253D01*
Y0017440D01*
X0036507Y0017583D02*
Y0017747D01*
X0036907D01*
X0036707Y0017937D02*
Y0018077D01*
X0036507D02*
X0036907D01*
Y0017890D01*
X0015903Y0022476D02*
Y0022616D01*
X0015970Y0022639D01*
X0016037D01*
X0016103Y0022616D01*
Y0022476D01*
X0016037Y0022452D01*
X0015970D01*
X0015703Y0022546D01*
X0015837Y0022876D02*
X0015703Y0022782D01*
X0015770Y0022969D02*
X0015703Y0022946D01*
Y0022852D01*
X0015770Y0022829D01*
X0015837Y0022782D01*
X0016037D01*
X0016103Y0022806D01*
Y0022946D01*
X0016037Y0022969D01*
X0015770D01*
X0012510Y0012494D02*
X0012577Y0012471D01*
X0012644D01*
X0012710Y0012494D01*
Y0012634D01*
X0012644Y0012658D01*
X0012577D01*
X0012510Y0012634D01*
Y0012494D01*
X0012444Y0012471D01*
X0012377D01*
X0012310Y0012494D01*
Y0012634D01*
X0012377Y0012658D01*
X0012444D01*
X0012510Y0012634D01*
X0012310Y0012801D02*
Y0012894D01*
Y0012848D02*
X0012710D01*
X0012644Y0012894D01*
X0012510Y0013154D02*
X0012310Y0013084D01*
X0012510Y0013271D02*
Y0013131D01*
X0012577Y0013084D01*
X0012644D01*
X0012710Y0013131D01*
Y0013271D01*
X0012310D01*
X0002474Y0017193D02*
Y0017287D01*
Y0017240D02*
X0002874D01*
X0002807Y0017287D01*
X0002607Y0017570D02*
X0002474Y0017477D01*
X0002541Y0017663D02*
X0002474Y0017640D01*
Y0017547D01*
X0002541Y0017523D01*
X0002607Y0017477D01*
X0002807D01*
X0002874Y0017500D01*
Y0017640D01*
X0002807Y0017663D01*
X0002541D01*
X0016974Y0026720D02*
X0017374Y0026580D01*
Y0026767D01*
X0016974Y0026910D02*
Y0027073D01*
X0017374D01*
X0016974Y0027380D02*
X0017374D01*
X0016974Y0027403D02*
Y0027263D01*
X0017107Y0027217D01*
X0017241D01*
X0017374Y0027263D01*
Y0027403D01*
X0030023Y0023075D02*
X0030423Y0022935D01*
Y0023122D01*
X0030089Y0023452D02*
X0030023Y0023405D01*
Y0023312D01*
X0030089Y0023265D01*
X0030156D01*
X0030289Y0023359D01*
X0030423Y0023265D01*
Y0023452D01*
X0030223Y0023665D02*
X0030023Y0023595D01*
X0030223Y0023782D02*
Y0023642D01*
X0030289Y0023595D01*
X0030356D01*
X0030423Y0023642D01*
Y0023782D01*
X0030023D01*
X0028674Y0016630D02*
Y0016817D01*
X0028941Y0016630D01*
X0029007D01*
X0029074Y0016653D01*
Y0016793D01*
X0029007Y0016817D01*
X0028674Y0016960D02*
Y0017123D01*
X0029074D01*
X0028674Y0017430D02*
X0029074D01*
X0028674Y0017453D02*
Y0017313D01*
X0028807Y0017267D01*
X0028941D01*
X0029074Y0017313D01*
Y0017453D01*
X0010810Y0026721D02*
Y0026814D01*
Y0026768D02*
X0011210D01*
X0011144Y0026814D01*
X0010877Y0027191D02*
X0010810Y0027168D01*
Y0027028D01*
X0010877Y0027004D01*
X0011010D01*
X0011077Y0027051D01*
Y0027191D01*
X0011210D01*
Y0027004D01*
X0011010Y0027404D02*
X0010810Y0027334D01*
X0011010Y0027521D02*
Y0027381D01*
X0011077Y0027334D01*
X0011144D01*
X0011210Y0027381D01*
Y0027521D01*
X0010810D01*
X-0000089Y0021226D02*
X0000311Y0021086D01*
Y0021273D01*
X-0000089Y0021416D02*
Y0021603D01*
X0000178Y0021416D01*
X0000244D01*
X0000311Y0021439D01*
Y0021579D01*
X0000244Y0021603D01*
X-0000022Y0021746D02*
X-0000089Y0021769D01*
Y0021909D01*
X-0000022Y0021933D01*
X0000244D01*
X0000311Y0021909D01*
Y0021769D01*
X0000244Y0021746D01*
X0018089Y0013472D02*
X0018023Y0013449D01*
Y0013309D01*
X0018089Y0013285D01*
X0018223D01*
X0018289Y0013332D01*
Y0013472D01*
X0018423D01*
Y0013285D01*
X0018023Y0013615D02*
Y0013802D01*
X0018289Y0013615D01*
X0018356D01*
X0018423Y0013639D01*
Y0013779D01*
X0018356Y0013802D01*
X0018223Y0014015D02*
X0018023Y0013945D01*
X0018223Y0014132D02*
Y0013992D01*
X0018289Y0013945D01*
X0018356D01*
X0018423Y0013992D01*
Y0014132D01*
X0018023D01*
X0017739Y0021489D02*
X0017786Y0021422D01*
X0017879D01*
X0017926Y0021489D01*
Y0021555D01*
X0017833Y0021689D01*
X0017926Y0021822D01*
X0017739D01*
X0017596Y0021422D02*
X0017409D01*
X0017596Y0021689D01*
Y0021755D01*
X0017573Y0021822D01*
X0017433D01*
X0017409Y0021755D01*
X0017196Y0021622D02*
X0017266Y0021422D01*
X0017079Y0021622D02*
X0017219D01*
X0017266Y0021689D01*
Y0021755D01*
X0017219Y0021822D01*
X0017079D01*
Y0021422D01*
X0025962Y0012175D02*
X0026029Y0012151D01*
X0026095D01*
X0026162Y0012175D01*
Y0012315D01*
X0026095Y0012338D01*
X0026029D01*
X0025962Y0012315D01*
Y0012175D01*
X0025895Y0012151D01*
X0025829D01*
X0025762Y0012175D01*
Y0012315D01*
X0025829Y0012338D01*
X0025895D01*
X0025962Y0012315D01*
X0025762Y0012645D02*
X0026162D01*
X0025762Y0012668D02*
Y0012528D01*
X0025895Y0012481D01*
X0026029D01*
X0026162Y0012528D01*
Y0012668D01*
X0032106Y0021480D02*
X0032040Y0021433D01*
Y0021340D01*
X0032106Y0021293D01*
X0032173D01*
X0032306Y0021387D01*
X0032440Y0021293D01*
Y0021480D01*
X0032040Y0021623D02*
Y0021787D01*
X0032440D01*
X0031474Y0025610D02*
Y0025470D01*
X0031407Y0025447D01*
X0031341D01*
X0031274Y0025470D01*
Y0025610D01*
X0031341Y0025633D01*
X0031407D01*
X0031674Y0025540D01*
X0031274Y0025940D02*
X0031674D01*
X0031274Y0025963D02*
Y0025823D01*
X0031407Y0025777D01*
X0031541D01*
X0031674Y0025823D01*
Y0025963D01*
X0021702Y0017120D02*
Y0016980D01*
X0021635Y0016957D01*
X0021568D01*
X0021502Y0016980D01*
Y0017120D01*
X0021568Y0017143D01*
X0021635D01*
X0021902Y0017050D01*
X0021502Y0017287D02*
Y0017473D01*
X0021768Y0017287D01*
X0021835D01*
X0021902Y0017310D01*
Y0017450D01*
X0021835Y0017473D01*
X0021568Y0017617D02*
X0021502Y0017640D01*
Y0017780D01*
X0021568Y0017803D01*
X0021835D01*
X0021902Y0017780D01*
Y0017640D01*
X0021835Y0017617D01*
X0001316Y0015247D02*
Y0015433D01*
X0001582Y0015247D01*
X0001649D01*
X0001716Y0015270D01*
Y0015410D01*
X0001649Y0015433D01*
X0001716Y0015577D02*
X0001382D01*
X0001316Y0015600D01*
Y0015740D01*
X0001382Y0015763D01*
X0001716D01*
X0020556Y0017332D02*
Y0017519D01*
X0020823Y0017425D01*
Y0017379D01*
X0020423D01*
Y0017662D02*
Y0017755D01*
Y0017709D02*
X0020823D01*
X0020756Y0017755D01*
X0020489Y0017945D02*
X0020423Y0017969D01*
Y0018109D01*
X0020489Y0018132D01*
X0020756D01*
X0020823Y0018109D01*
Y0017969D01*
X0020756Y0017945D01*
X0008860Y0022188D02*
Y0022048D01*
X0008794Y0022024D01*
X0008727D01*
X0008660Y0022048D01*
Y0022188D01*
X0008727Y0022211D01*
X0008794D01*
X0009060Y0022118D01*
X0008727Y0022541D02*
X0008660Y0022494D01*
Y0022401D01*
X0008727Y0022354D01*
X0008794D01*
X0008927Y0022448D01*
X0009060Y0022354D01*
Y0022541D01*
X0008727Y0022684D02*
X0008660Y0022708D01*
Y0022848D01*
X0008727Y0022871D01*
X0008994D01*
X0009060Y0022848D01*
Y0022708D01*
X0008994Y0022684D01*
X0017664Y0006828D02*
X0018064Y0006688D01*
Y0006874D01*
X0017730Y0007018D02*
X0017664Y0007041D01*
Y0007181D01*
X0017730Y0007204D01*
X0017997D01*
X0018064Y0007181D01*
Y0007041D01*
X0017997Y0007018D01*
X0004492Y0017562D02*
X0004559Y0017608D01*
X0004626Y0017632D01*
X0004759D01*
X0004826Y0017608D01*
X0004892Y0017562D01*
Y0017515D01*
X0004826Y0017468D01*
X0004759Y0017445D01*
X0004626D01*
X0004559Y0017468D01*
X0004492Y0017515D01*
Y0017562D01*
Y0017775D02*
Y0017868D01*
Y0017822D02*
X0004892D01*
X0004826Y0017868D01*
X0004892Y0018058D02*
X0004559D01*
X0004492Y0018082D01*
Y0018222D01*
X0004559Y0018245D01*
X0004892D01*
X0033809Y0019423D02*
Y0019517D01*
Y0019470D02*
X0034209D01*
X0034142Y0019517D01*
X0033809Y0019707D02*
Y0019870D01*
X0034209D01*
X0033809Y0020177D02*
X0034209D01*
X0033809Y0020200D02*
Y0020060D01*
X0033942Y0020013D01*
X0034076D01*
X0034209Y0020060D01*
Y0020200D01*
X0016380Y0008674D02*
X0016314Y0008628D01*
Y0008534D01*
X0016380Y0008488D01*
X0016447D01*
X0016580Y0008581D01*
X0016714Y0008488D01*
Y0008674D01*
X0016380Y0008818D02*
X0016314Y0008841D01*
Y0008981D01*
X0016380Y0009004D01*
X0016647D01*
X0016714Y0008981D01*
Y0008841D01*
X0016647Y0008818D01*
X0018123Y0015095D02*
Y0014955D01*
X0018056Y0014932D01*
X0017989D01*
X0017923Y0014955D01*
Y0015095D01*
X0017989Y0015119D01*
X0018056D01*
X0018323Y0015025D01*
X0017923Y0015262D02*
Y0015355D01*
Y0015309D02*
X0018323D01*
X0018256Y0015355D01*
X0017989Y0015545D02*
X0017923Y0015569D01*
Y0015709D01*
X0017989Y0015732D01*
X0018256D01*
X0018323Y0015709D01*
Y0015569D01*
X0018256Y0015545D01*
X0024766Y0002754D02*
Y0002940D01*
X0025033Y0002754D01*
X0025099D01*
X0025166Y0002777D01*
Y0002917D01*
X0025099Y0002940D01*
X0024766Y0003084D02*
X0024966Y0003224D01*
X0025166Y0003084D01*
Y0003270D02*
X0024766D01*
X0016378Y0013701D02*
Y0013888D01*
X0016644Y0013795D01*
Y0013748D01*
X0016244D01*
X0016444Y0014218D02*
Y0014078D01*
X0016511Y0014031D01*
X0016578D01*
X0016644Y0014078D01*
Y0014218D01*
X0016244D01*
Y0014455D02*
X0016644D01*
Y0014361D02*
Y0014548D01*
X0015524Y0026743D02*
Y0026603D01*
X0015457Y0026580D01*
X0015391D01*
X0015324Y0026603D01*
Y0026743D01*
X0015391Y0026767D01*
X0015457D01*
X0015724Y0026673D01*
X0015324Y0026910D02*
Y0027073D01*
X0015724D01*
X0015324Y0027380D02*
X0015724D01*
X0015324Y0027403D02*
Y0027263D01*
X0015457Y0027217D01*
X0015591D01*
X0015724Y0027263D01*
Y0027403D01*
X0013610Y0012451D02*
Y0012544D01*
Y0012498D02*
X0014010D01*
X0013944Y0012544D01*
X0013810Y0012804D02*
X0013610Y0012734D01*
X0013810Y0012921D02*
Y0012781D01*
X0013877Y0012734D01*
X0013944D01*
X0014010Y0012781D01*
Y0012921D01*
X0013610D01*
X0012510Y0004938D02*
X0012577Y0004984D01*
X0012644Y0005008D01*
X0012777D01*
X0012844Y0004984D01*
X0012910Y0004938D01*
Y0004891D01*
X0012844Y0004844D01*
X0012777Y0004821D01*
X0012644D01*
X0012577Y0004844D01*
X0012510Y0004891D01*
Y0004938D01*
Y0005151D02*
Y0005244D01*
Y0005198D02*
X0012910D01*
X0012844Y0005244D01*
X0012710Y0005504D02*
X0012510Y0005434D01*
X0012710Y0005621D02*
Y0005481D01*
X0012777Y0005434D01*
X0012844D01*
X0012910Y0005481D01*
Y0005621D01*
X0012510D01*
X0023373Y0013699D02*
Y0013559D01*
X0023306Y0013535D01*
X0023239D01*
X0023173Y0013559D01*
Y0013699D01*
X0023239Y0013722D01*
X0023306D01*
X0023573Y0013629D01*
X0023306Y0013865D02*
Y0014052D01*
X0023573Y0013959D01*
Y0013912D01*
X0023173D01*
X0023373Y0014265D02*
X0023173Y0014195D01*
X0023373Y0014382D02*
Y0014242D01*
X0023439Y0014195D01*
X0023506D01*
X0023573Y0014242D01*
Y0014382D01*
X0023173D01*
X0026118Y0016793D02*
X0026052Y0016770D01*
Y0016630D01*
X0026118Y0016607D01*
X0026252D01*
X0026318Y0016653D01*
Y0016793D01*
X0026452D01*
Y0016607D01*
X0026052Y0016937D02*
Y0017123D01*
X0026318Y0016937D01*
X0026385D01*
X0026452Y0016960D01*
Y0017100D01*
X0026385Y0017123D01*
X0026118Y0017267D02*
X0026052Y0017290D01*
Y0017430D01*
X0026118Y0017453D01*
X0026385D01*
X0026452Y0017430D01*
Y0017290D01*
X0026385Y0017267D01*
X-0000989Y0017228D02*
Y0017368D01*
X-0000923Y0017391D01*
X-0000856D01*
X-0000789Y0017368D01*
Y0017228D01*
X-0000856Y0017204D01*
X-0000923D01*
X-0001189Y0017298D01*
X-0001123Y0017534D02*
X-0001189Y0017558D01*
Y0017698D01*
X-0001123Y0017721D01*
X-0000856D01*
X-0000789Y0017698D01*
Y0017558D01*
X-0000856Y0017534D01*
X0019784Y0019098D02*
Y0018958D01*
X0019718Y0018934D01*
X0019651D01*
X0019584Y0018958D01*
Y0019098D01*
X0019651Y0019121D01*
X0019718D01*
X0019984Y0019028D01*
Y0019264D02*
X0019651D01*
X0019584Y0019288D01*
Y0019428D01*
X0019651Y0019451D01*
X0019984D01*
X0007989Y0023222D02*
X0007923Y0023199D01*
Y0023059D01*
X0007989Y0023035D01*
X0008123D01*
X0008189Y0023082D01*
Y0023222D01*
X0008323D01*
Y0023035D01*
X0007989Y0023552D02*
X0007923Y0023505D01*
Y0023412D01*
X0007989Y0023365D01*
X0008056D01*
X0008189Y0023459D01*
X0008323Y0023365D01*
Y0023552D01*
X0007989Y0023695D02*
X0007923Y0023719D01*
Y0023859D01*
X0007989Y0023882D01*
X0008256D01*
X0008323Y0023859D01*
Y0023719D01*
X0008256Y0023695D01*
X-0000777Y0013122D02*
X-0000917D01*
X-0000940Y0013189D01*
Y0013255D01*
X-0000917Y0013322D01*
X-0000777D01*
X-0000754Y0013255D01*
Y0013189D01*
X-0000847Y0012922D01*
X-0001154Y0013122D02*
X-0001084Y0012922D01*
X-0001270Y0013122D02*
X-0001130D01*
X-0001084Y0013189D01*
Y0013255D01*
X-0001130Y0013322D01*
X-0001270D01*
Y0012922D01*
X0021244Y-0000469D02*
Y-0000282D01*
X0021511Y-0000469D01*
X0021578D01*
X0021644Y-0000445D01*
Y-0000305D01*
X0021578Y-0000282D01*
X0021311Y-0000139D02*
X0021244Y-0000115D01*
Y0000025D01*
X0021311Y0000048D01*
X0021578D01*
X0021644Y0000025D01*
Y-0000115D01*
X0021578Y-0000139D01*
X0020353Y0005732D02*
Y0005919D01*
X0020620Y0005825D01*
Y0005779D01*
X0020220D01*
X0020286Y0006062D02*
X0020220Y0006085D01*
Y0006225D01*
X0020286Y0006249D01*
X0020553D01*
X0020620Y0006225D01*
Y0006085D01*
X0020553Y0006062D01*
X0001172Y0009602D02*
Y0009788D01*
X0001439Y0009602D01*
X0001506D01*
X0001572Y0009625D01*
Y0009765D01*
X0001506Y0009788D01*
X0001306Y0010025D02*
X0001172Y0009932D01*
X0001239Y0010118D02*
X0001172Y0010095D01*
Y0010002D01*
X0001239Y0009978D01*
X0001306Y0009932D01*
X0001506D01*
X0001572Y0009955D01*
Y0010095D01*
X0001506Y0010118D01*
X0001239D01*
X0016077Y0026911D02*
X0016010Y0026888D01*
Y0026748D01*
X0016077Y0026724D01*
X0016210D01*
X0016277Y0026771D01*
Y0026911D01*
X0016410D01*
Y0026724D01*
X0016077Y0027241D02*
X0016010Y0027218D01*
Y0027078D01*
X0016077Y0027054D01*
X0016210D01*
X0016277Y0027101D01*
Y0027241D01*
X0016410D01*
Y0027054D01*
X0016210Y0027454D02*
X0016010Y0027384D01*
X0016210Y0027571D02*
Y0027431D01*
X0016277Y0027384D01*
X0016344D01*
X0016410Y0027431D01*
Y0027571D01*
X0016010D01*
X0021260Y0013251D02*
Y0013344D01*
Y0013298D02*
X0021660D01*
X0021594Y0013344D01*
X0021327Y0013534D02*
X0021260Y0013558D01*
Y0013698D01*
X0021327Y0013721D01*
X0021594D01*
X0021660Y0013698D01*
Y0013558D01*
X0021594Y0013534D01*
X0036989Y0014522D02*
X0036923Y0014499D01*
Y0014359D01*
X0036989Y0014335D01*
X0037123D01*
X0037189Y0014382D01*
Y0014522D01*
X0037323D01*
Y0014335D01*
X0037056Y0014665D02*
Y0014852D01*
X0037323Y0014759D01*
Y0014712D01*
X0036923D01*
X0037123Y0015065D02*
X0036923Y0014995D01*
X0037123Y0015182D02*
Y0015042D01*
X0037189Y0014995D01*
X0037256D01*
X0037323Y0015042D01*
Y0015182D01*
X0036923D01*
X0028206Y0016685D02*
Y0016872D01*
X0028473Y0016779D01*
Y0016732D01*
X0028073D01*
Y0017015D02*
Y0017202D01*
X0028339Y0017015D01*
X0028406D01*
X0028473Y0017039D01*
Y0017179D01*
X0028406Y0017202D01*
X0028139Y0017345D02*
X0028073Y0017369D01*
Y0017509D01*
X0028139Y0017532D01*
X0028406D01*
X0028473Y0017509D01*
Y0017369D01*
X0028406Y0017345D01*
X0009528Y0025383D02*
Y0025570D01*
X0009794Y0025476D01*
Y0025430D01*
X0009394D01*
X0009461Y0025900D02*
X0009394Y0025853D01*
Y0025760D01*
X0009461Y0025713D01*
X0009528D01*
X0009661Y0025806D01*
X0009794Y0025713D01*
Y0025900D01*
X0009461Y0026043D02*
X0009394Y0026066D01*
Y0026206D01*
X0009461Y0026230D01*
X0009728D01*
X0009794Y0026206D01*
Y0026066D01*
X0009728Y0026043D01*
X0013541Y0026817D02*
X0013474Y0026793D01*
Y0026653D01*
X0013541Y0026630D01*
X0013674D01*
X0013741Y0026677D01*
Y0026817D01*
X0013874D01*
Y0026630D01*
X0013474Y0026960D02*
Y0027123D01*
X0013874D01*
X0013474Y0027430D02*
X0013874D01*
X0013474Y0027453D02*
Y0027313D01*
X0013607Y0027267D01*
X0013741D01*
X0013874Y0027313D01*
Y0027453D01*
X0027210Y0026171D02*
Y0026264D01*
Y0026218D02*
X0027610D01*
X0027544Y0026264D01*
X0027277Y0026641D02*
X0027210Y0026594D01*
Y0026501D01*
X0027277Y0026454D01*
X0027344D01*
X0027477Y0026548D01*
X0027610Y0026454D01*
Y0026641D01*
X0027410Y0026854D02*
X0027210Y0026784D01*
X0027410Y0026971D02*
Y0026831D01*
X0027477Y0026784D01*
X0027544D01*
X0027610Y0026831D01*
Y0026971D01*
X0027210D01*
X0032339Y0013422D02*
X0032273Y0013375D01*
Y0013282D01*
X0032339Y0013235D01*
X0032406D01*
X0032539Y0013329D01*
X0032673Y0013235D01*
Y0013422D01*
X0032406Y0013565D02*
Y0013752D01*
X0032673Y0013659D01*
Y0013612D01*
X0032273D01*
X0032473Y0013965D02*
X0032273Y0013895D01*
X0032473Y0014082D02*
Y0013942D01*
X0032539Y0013895D01*
X0032606D01*
X0032673Y0013942D01*
Y0014082D01*
X0032273D01*
X0041744Y0015486D02*
Y0015673D01*
X0042011Y0015579D01*
Y0015533D01*
X0041611D01*
X0041744Y0015816D02*
Y0016003D01*
X0042011Y0015909D01*
Y0015863D01*
X0041611D01*
X0041811Y0016216D02*
X0041611Y0016146D01*
X0041811Y0016333D02*
Y0016193D01*
X0041878Y0016146D01*
X0041944D01*
X0042011Y0016193D01*
Y0016333D01*
X0041611D01*
X0012565Y0006813D02*
Y0006999D01*
X0012832Y0006906D01*
Y0006859D01*
X0012432D01*
Y0007306D02*
X0012832D01*
X0012432Y0007329D02*
Y0007189D01*
X0012565Y0007143D01*
X0012698D01*
X0012832Y0007189D01*
Y0007329D01*
X0020010Y0013278D02*
X0020077Y0013254D01*
X0020144D01*
X0020210Y0013278D01*
Y0013418D01*
X0020144Y0013441D01*
X0020077D01*
X0020010Y0013418D01*
Y0013278D01*
X0019944Y0013254D01*
X0019877D01*
X0019810Y0013278D01*
Y0013418D01*
X0019877Y0013441D01*
X0019944D01*
X0020010Y0013418D01*
X0019877Y0013584D02*
X0019810Y0013608D01*
Y0013748D01*
X0019877Y0013771D01*
X0020144D01*
X0020210Y0013748D01*
Y0013608D01*
X0020144Y0013584D01*
X0030868Y0015093D02*
X0030802Y0015047D01*
Y0014953D01*
X0030868Y0014907D01*
X0030935D01*
X0031068Y0015000D01*
X0031202Y0014907D01*
Y0015093D01*
X0030802Y0015237D02*
Y0015423D01*
X0031068Y0015237D01*
X0031135D01*
X0031202Y0015260D01*
Y0015400D01*
X0031135Y0015423D01*
X0030868Y0015567D02*
X0030802Y0015590D01*
Y0015730D01*
X0030868Y0015753D01*
X0031135D01*
X0031202Y0015730D01*
Y0015590D01*
X0031135Y0015567D01*
X0023911Y0018088D02*
X0023844Y0018065D01*
Y0017925D01*
X0023911Y0017901D01*
X0024044D01*
X0024111Y0017948D01*
Y0018088D01*
X0024244D01*
Y0017901D01*
X0024044Y0018418D02*
Y0018278D01*
X0024111Y0018231D01*
X0024178D01*
X0024244Y0018278D01*
Y0018418D01*
X0023844D01*
Y0018655D02*
X0024244D01*
Y0018561D02*
Y0018748D01*
X0003278Y0019273D02*
X0003211Y0019226D01*
Y0019133D01*
X0003278Y0019086D01*
X0003344D01*
X0003478Y0019179D01*
X0003611Y0019086D01*
Y0019273D01*
X0003278Y0019603D02*
X0003211Y0019556D01*
Y0019463D01*
X0003278Y0019416D01*
X0003344D01*
X0003478Y0019509D01*
X0003611Y0019416D01*
Y0019603D01*
X0003278Y0019746D02*
X0003211Y0019769D01*
Y0019909D01*
X0003278Y0019933D01*
X0003544D01*
X0003611Y0019909D01*
Y0019769D01*
X0003544Y0019746D01*
X0023510Y0023061D02*
X0023910Y0022921D01*
Y0023108D01*
X0023510Y0023251D02*
Y0023344D01*
Y0023298D02*
X0023910D01*
X0023844Y0023344D01*
X0023577Y0023534D02*
X0023510Y0023558D01*
Y0023698D01*
X0023577Y0023721D01*
X0023844D01*
X0023910Y0023698D01*
Y0023558D01*
X0023844Y0023534D01*
X0019844Y0022124D02*
Y0022311D01*
X0020110Y0022218D01*
Y0022171D01*
X0019710D01*
X0019910Y0022618D02*
Y0022478D01*
X0019844Y0022454D01*
X0019777D01*
X0019710Y0022478D01*
Y0022618D01*
X0019777Y0022641D01*
X0019844D01*
X0020110Y0022548D01*
X0019910Y0022854D02*
X0019710Y0022784D01*
X0019910Y0022971D02*
Y0022831D01*
X0019977Y0022784D01*
X0020044D01*
X0020110Y0022831D01*
Y0022971D01*
X0019710D01*
X0037917Y0023280D02*
Y0023373D01*
Y0023327D02*
X0038317D01*
X0038250Y0023373D01*
X0038050Y0023727D02*
X0037983D01*
X0037917Y0023703D01*
Y0023610D01*
X0037983Y0023587D01*
X0038317D01*
Y0023563D02*
Y0023657D01*
X0011907Y0026580D02*
Y0026767D01*
X0012174Y0026673D01*
Y0026627D01*
X0011774D01*
Y0026910D02*
Y0027073D01*
X0012174D01*
X0011774Y0027380D02*
X0012174D01*
X0011774Y0027403D02*
Y0027263D01*
X0011907Y0027217D01*
X0012041D01*
X0012174Y0027263D01*
Y0027403D01*
X0003789Y0014990D02*
X0003722Y0014967D01*
Y0014827D01*
X0003789Y0014804D01*
X0003922D01*
X0003989Y0014850D01*
Y0014990D01*
X0004122D01*
Y0014804D01*
X0003922Y0015204D02*
X0003722Y0015134D01*
X0003922Y0015320D02*
Y0015180D01*
X0003989Y0015134D01*
X0004055D01*
X0004122Y0015180D01*
Y0015320D01*
X0003722D01*
X0034766Y0002850D02*
Y0002944D01*
Y0002897D02*
X0035166D01*
X0035099Y0002944D01*
X0034766Y0003134D02*
X0034966Y0003274D01*
X0035166Y0003134D01*
Y0003320D02*
X0034766D01*
X0037811Y0025337D02*
Y0025100D01*
X0037133Y0025133D02*
X0037383D01*
Y0025383D01*
X0037324Y0025324D01*
X0037192D01*
X0037133Y0025383D01*
Y0025133D01*
X0037192Y0025192D01*
X0037324D01*
Y0025324D01*
X0037192Y0025192D02*
Y0025324D01*
X0037383Y0025133D02*
X0037324Y0025192D01*
X0038308Y0025324D02*
X0038367Y0025383D01*
Y0025133D01*
X0038308Y0025192D01*
Y0025324D01*
X0038176D01*
X0038117Y0025383D01*
Y0025133D01*
X0038176Y0025192D01*
Y0025324D01*
X0038117Y0025133D02*
X0038367D01*
X0038308Y0025192D02*
X0038176D01*
X0037133Y0025383D02*
X0037383D01*
X0038117D02*
X0038367D01*
X0037689Y0024821D02*
Y0025100D01*
X0039974Y0024726D02*
X0039825D01*
Y0026774D01*
X0039974D01*
X0040053Y0026695D02*
X0040050Y0024800D01*
X0038927Y0024581D02*
Y0024726D01*
X0039250D01*
X0039825D01*
X0039250Y0026616D02*
Y0026774D01*
X0039825D01*
X0037133Y0026367D02*
X0037192Y0026308D01*
X0038673Y0024884D02*
Y0025226D01*
Y0026274D02*
Y0026616D01*
X0036827Y0026679D02*
Y0025805D01*
X0037689D01*
Y0026679D01*
X0036827D01*
X0038927Y0026919D02*
Y0026774D01*
X0039250D01*
Y0024884D02*
Y0024726D01*
X0012250Y0025050D02*
X0011750D01*
X0011650Y0025150D01*
Y0026450D01*
X0012350D01*
Y0025150D01*
X0012250Y0025050D01*
X0012350Y0025650D02*
X0011650D01*
X0002425Y0014425D02*
X0003575D01*
Y0015070D01*
X0002425D01*
Y0014425D01*
X0022575Y0011925D02*
Y0013075D01*
X0021930D01*
Y0011925D01*
X0022575D01*
X0032597Y0017700D02*
Y0017575D01*
X0032543Y0017700D02*
Y0017575D01*
X0032489Y0017700D02*
Y0017575D01*
X0032435Y0017700D02*
Y0017575D01*
X0032381Y0017700D02*
Y0017575D01*
X0032327Y0017700D02*
Y0017575D01*
X0032273Y0017700D02*
Y0017575D01*
X0032219Y0017700D02*
Y0017575D01*
X0032165Y0017700D02*
Y0017575D01*
X0033375Y0017669D02*
X0032125D01*
X0033191Y0017700D02*
Y0017575D01*
X0033137Y0017700D02*
Y0017575D01*
X0033083Y0017700D02*
Y0017575D01*
X0033029Y0017700D02*
Y0017575D01*
X0032975Y0017700D02*
Y0017575D01*
X0032921Y0017700D02*
Y0017575D01*
X0032867Y0017700D02*
Y0017575D01*
X0032813Y0017700D02*
Y0017575D01*
X0032759Y0017700D02*
Y0017575D01*
X0032705Y0017700D02*
Y0017575D01*
X0032651Y0017700D02*
Y0017575D01*
X0033375Y0017615D02*
X0032125D01*
Y0017700D02*
Y0017575D01*
X0033375D02*
X0032125D01*
X0033375Y0017700D02*
Y0017575D01*
Y0017700D02*
X0032125D01*
X0033353D02*
Y0017575D01*
X0033299Y0017700D02*
Y0017575D01*
X0033245Y0017700D02*
Y0017575D01*
X0033262Y0018431D02*
X0033380D01*
Y0016069D01*
X0033262D01*
X0032208Y0018618D02*
X0032111D01*
X0032204Y0018648D02*
Y0018607D01*
X0032150Y0018676D02*
Y0018579D01*
X0032180Y0018672D02*
X0032138D01*
X0032238Y0018431D02*
X0032120D01*
Y0016069D01*
X0032238D01*
X0017575Y0015925D02*
Y0017075D01*
X0016930D01*
Y0015925D01*
X0017575D01*
X0023325Y0025175D02*
Y0026325D01*
X0022680D01*
Y0025175D01*
X0023325D01*
X0006825Y0022925D02*
Y0024075D01*
X0006180D01*
Y0022925D01*
X0006825D01*
X0038250Y0013000D02*
X0038500Y0012750D01*
Y0012250D01*
X0038250Y0012000D01*
X0037750D01*
X0037500Y0012250D01*
Y0013000D01*
X0038250D01*
Y0012000D02*
X0038500Y0011750D01*
Y0011250D01*
X0038250Y0011000D01*
X0037750D01*
X0037500Y0011250D01*
Y0011750D01*
X0037750Y0012000D01*
X0038250D01*
Y0011000D02*
X0038500Y0010750D01*
Y0010250D01*
X0038250Y0010000D01*
X0037750D01*
X0037500Y0010250D01*
Y0010750D01*
X0037750Y0011000D01*
X0038250D01*
Y0010000D02*
X0038500Y0009750D01*
Y0009250D01*
X0038250Y0009000D01*
X0037750D01*
X0037500Y0009250D01*
Y0009750D01*
X0037750Y0010000D01*
X0038250D01*
Y0009000D02*
X0038500Y0008750D01*
Y0008250D01*
X0038250Y0008000D01*
X0037750D01*
X0037500Y0008250D01*
Y0008750D01*
X0037750Y0009000D01*
X0038250D01*
X0037750Y0013000D02*
X0037500Y0012750D01*
X0037702Y0013000D02*
Y0012952D01*
X0037648Y0013000D02*
Y0012898D01*
X0037594Y0013000D02*
Y0012844D01*
X0037540Y0013000D02*
Y0012790D01*
X0037702Y0012952D02*
X0037500D01*
X0037648Y0012898D02*
X0037500D01*
X0037594Y0012844D02*
X0037500D01*
X0037540Y0012790D02*
X0037500D01*
X0037750Y0013000D02*
X0037500D01*
Y0012750D01*
X0017925Y0021325D02*
Y0020175D01*
X0018570D01*
Y0021325D01*
X0017925D01*
X0034325Y0016925D02*
Y0018075D01*
X0033680D01*
Y0016925D01*
X0034325D01*
X0032850Y0015550D02*
Y0013950D01*
X0034650D01*
Y0014650D01*
X0034550Y0014750D01*
X0034650Y0014850D01*
Y0015550D01*
X0032850D01*
X0021925Y0026325D02*
Y0025175D01*
X0022570D01*
Y0026325D01*
X0021925D01*
X0005425Y0017075D02*
Y0015925D01*
X0006070D01*
Y0017075D01*
X0005425D01*
X0020425Y0013075D02*
Y0011925D01*
X0021070D01*
Y0013075D01*
X0020425D01*
X0019175Y0017075D02*
Y0015925D01*
X0019820D01*
Y0017075D01*
X0019175D01*
X0020200Y0023100D02*
X0021800D01*
Y0024900D01*
X0021100D01*
X0021000Y0024800D01*
X0020900Y0024900D01*
X0020200D01*
Y0023100D01*
X0040045Y0012000D02*
X0040000D01*
Y0010500D01*
X0043500D01*
Y0012000D01*
X0040045D01*
X0026075Y0019425D02*
Y0020575D01*
X0025430D01*
Y0019425D01*
X0026075D01*
X0010175Y0018575D02*
Y0017425D01*
X0010820D01*
Y0018575D01*
X0010175D01*
X0014175Y0012325D02*
Y0011175D01*
X0014820D01*
Y0012325D01*
X0014175D01*
X0028080Y0011930D02*
X0030600D01*
Y0013070D01*
X0027900D01*
Y0012110D01*
X0028080Y0011930D01*
X0004297Y0025453D02*
X0004376Y0025374D01*
Y0025626D01*
X0004297Y0025547D01*
Y0025453D01*
X0004203D01*
X0004124Y0025374D01*
X0004376D01*
X0004203Y0025453D02*
Y0025547D01*
X0004124Y0025626D01*
X0004376D01*
X0004124Y0025374D02*
Y0025626D01*
X0004297Y0025547D02*
X0004203D01*
X0005297Y0025453D02*
X0005376Y0025374D01*
Y0025626D01*
X0005297Y0025547D01*
Y0025453D01*
X0005203D01*
X0005124Y0025374D01*
X0005376D01*
X0005203Y0025453D02*
Y0025547D01*
X0005124Y0025626D01*
X0005376D01*
X0005124Y0025374D02*
Y0025626D01*
X0005297Y0025547D02*
X0005203D01*
X0006297Y0025453D02*
X0006376Y0025374D01*
Y0025626D01*
X0006297Y0025547D01*
Y0025453D01*
X0006203D01*
X0006124Y0025374D01*
X0006376D01*
X0006203Y0025453D02*
Y0025547D01*
X0006124Y0025626D01*
X0006376D01*
X0006124Y0025374D02*
Y0025626D01*
X0006297Y0025547D02*
X0006203D01*
X0005297Y0026453D02*
X0005376Y0026374D01*
Y0026626D01*
X0005297Y0026547D01*
Y0026453D01*
X0005203D01*
X0005124Y0026374D01*
X0005376D01*
X0005203Y0026453D02*
Y0026547D01*
X0005124Y0026626D01*
X0005376D01*
X0005124Y0026374D02*
Y0026626D01*
X0005297Y0026547D02*
X0005203D01*
X0004297Y0026453D02*
X0004376Y0026374D01*
Y0026626D01*
X0004297Y0026547D01*
Y0026453D01*
X0004203D01*
X0004124Y0026374D01*
X0004376D01*
X0004203Y0026453D02*
Y0026547D01*
X0004124Y0026626D01*
X0004376D01*
X0004124Y0026374D02*
Y0026626D01*
X0004297Y0026547D02*
X0004203D01*
X0006297Y0026453D02*
X0006376Y0026374D01*
Y0026626D01*
X0006297Y0026547D01*
Y0026453D01*
X0006203D01*
X0006124Y0026374D01*
X0006376D01*
X0006203Y0026453D02*
Y0026547D01*
X0006124Y0026626D01*
X0006376D01*
X0006124Y0026374D02*
Y0026626D01*
X0006297Y0026547D02*
X0006203D01*
X0007844Y0024750D02*
X0002655D01*
X0002419Y0024514D01*
X0008081D01*
X0007844Y0024750D01*
Y0027250D01*
X0008081Y0027486D01*
Y0024514D01*
X0003088Y0024258D02*
X0002242D01*
Y0027742D01*
X0004364D01*
Y0027486D01*
X0002419D01*
X0002655Y0027250D01*
Y0024750D01*
X0004364Y0027742D02*
X0006136D01*
X0008258D01*
Y0024258D01*
X0007411D01*
X0007844Y0027250D02*
X0006136D01*
Y0027486D01*
X0008081D01*
X0007155Y0024258D02*
X0005378D01*
X0005122D02*
X0003344D01*
X0002655Y0027250D02*
X0004364D01*
Y0027486D01*
X0002419D02*
Y0024514D01*
X0006136Y0027742D02*
Y0027486D01*
X0001200Y0013050D02*
X0002300D01*
Y0010950D01*
X0001200D01*
Y0013050D01*
X0007526Y0011720D02*
Y0011650D01*
X0007472Y0011720D02*
Y0011650D01*
X0007418Y0011720D02*
Y0011650D01*
X0007364Y0011720D02*
Y0011650D01*
X0007310Y0011720D02*
Y0011650D01*
X0007256Y0011720D02*
Y0011650D01*
X0007202Y0011720D02*
Y0011650D01*
X0007148Y0011720D02*
Y0011650D01*
X0007094Y0011713D02*
Y0011650D01*
X0008366Y0011714D02*
X0007095D01*
X0008120Y0011720D02*
Y0011650D01*
X0008066Y0011720D02*
Y0011650D01*
X0008012Y0011720D02*
Y0011650D01*
X0007958Y0011720D02*
Y0011650D01*
X0007904Y0011720D02*
Y0011650D01*
X0007850Y0011720D02*
Y0011650D01*
X0007796Y0011720D02*
Y0011650D01*
X0007742Y0011720D02*
Y0011650D01*
X0007688Y0011720D02*
Y0011650D01*
X0007634Y0011720D02*
Y0011650D01*
X0007580Y0011720D02*
Y0011650D01*
X0008360Y0011720D02*
X0007100D01*
X0007050Y0011660D01*
X0007020Y0011640D01*
X0007000Y0011620D01*
X0008390Y0011690D02*
Y0011650D01*
X0008336Y0011720D02*
Y0011650D01*
X0008282Y0011720D02*
Y0011650D01*
X0008228Y0011720D02*
Y0011650D01*
X0008174Y0011720D02*
Y0011650D01*
X0008420Y0011660D02*
X0007050D01*
X0007040D02*
X0007000Y0011620D01*
X0007040Y0011660D02*
X0007050Y0011650D01*
X0008430D02*
X0007050D01*
X0008360Y0011720D02*
X0008430Y0011650D01*
X0006964Y0011114D02*
X0006963Y0009400D01*
Y0008755D01*
X0008537D01*
X0008540Y0011560D01*
X0008360Y0011740D01*
X0007100D01*
X0006960Y0011570D01*
X0006964Y0011114D01*
X0007146Y0011430D02*
X0007033D01*
X0007124Y0011499D02*
Y0011400D01*
X0007070Y0011506D02*
Y0011393D01*
X0007139Y0011484D02*
X0007040D01*
X0006980Y0010570D02*
X0008530D01*
X0010575Y0020675D02*
Y0021825D01*
X0009930D01*
Y0020675D01*
X0010575D01*
X0018425Y0023075D02*
Y0021925D01*
X0019070D01*
Y0023075D01*
X0018425D01*
X0016675D02*
Y0021925D01*
X0017320D01*
Y0023075D01*
X0016675D01*
X0016425Y0021325D02*
Y0020175D01*
X0017070D01*
Y0021325D01*
X0016425D01*
X0043337Y0019644D02*
X0043415D01*
Y0019397D01*
Y0019102D01*
Y0018856D01*
X0043337D01*
Y0019102D02*
X0043415D01*
Y0019397D02*
X0043337D01*
X0040762Y0018701D02*
X0040962D01*
X0041057D01*
Y0018740D01*
X0040962D01*
Y0018701D01*
X0042038Y0018740D02*
X0041943D01*
Y0018701D01*
Y0018695D01*
X0042141D01*
Y0018494D01*
X0041943D01*
Y0018695D01*
Y0018701D01*
X0042038D01*
Y0018740D01*
X0042141D01*
Y0018858D01*
X0040859D01*
Y0018740D01*
X0040962D01*
X0041057Y0018695D02*
Y0018494D01*
X0040859D01*
Y0018695D01*
Y0018701D01*
Y0018695D01*
X0041057D01*
Y0018701D01*
X0042038D02*
X0042238D01*
X0042141D02*
Y0018695D01*
X0042238Y0020240D02*
Y0019996D01*
X0043330D01*
X0043218Y0019884D01*
Y0018615D01*
X0043330Y0018504D01*
X0042238D01*
Y0018260D01*
X0043337D01*
Y0018490D01*
Y0020009D01*
Y0020240D01*
X0042238D01*
X0040762D01*
Y0019996D01*
Y0019884D01*
Y0019760D01*
X0040859D01*
X0040962D01*
X0041057D01*
Y0019799D01*
X0040962D01*
X0040762D01*
X0040962Y0019760D02*
Y0019799D01*
X0041057Y0019805D02*
Y0020006D01*
X0040859D01*
Y0019805D01*
Y0019799D01*
Y0019805D01*
X0041057D01*
Y0019799D01*
X0041943Y0019805D02*
X0042141D01*
Y0020006D01*
X0041943D01*
Y0019805D01*
Y0019799D01*
X0042038D01*
Y0019760D01*
X0041943D01*
Y0019799D01*
X0042731Y0018957D02*
X0042810D01*
Y0019543D01*
X0042731D01*
Y0018957D01*
Y0018858D01*
X0042613Y0018740D02*
Y0018858D01*
X0042141D01*
Y0019641D01*
Y0019760D01*
X0042038D01*
X0042238Y0019799D02*
X0042038D01*
X0042141Y0019805D02*
Y0019799D01*
Y0018780D02*
X0040859D01*
X0042731Y0019543D02*
Y0019641D01*
X0042613D01*
X0042141D01*
X0040859D01*
Y0018858D01*
X0040387D01*
Y0019641D01*
X0040859D01*
Y0019760D01*
Y0019720D02*
X0042141D01*
X0040269Y0018858D02*
X0040387D01*
Y0018740D01*
X0040269Y0018858D02*
Y0018957D01*
X0040190D01*
X0039975D01*
Y0018740D01*
X0040762D01*
X0040859D01*
X0040762Y0019760D02*
X0039975D01*
Y0019543D01*
X0040190D01*
X0040269D01*
Y0019641D01*
X0040387Y0019760D02*
Y0019641D01*
X0040269D01*
X0042731Y0018858D02*
X0042613D01*
Y0019641D01*
Y0019760D01*
X0043218Y0018615D02*
X0042238D01*
Y0018740D01*
X0042141D01*
X0042810Y0019543D02*
X0043025D01*
Y0019760D01*
X0042238D01*
X0042141D01*
X0039663Y0019102D02*
X0039585D01*
Y0019397D01*
Y0019644D01*
X0039663D01*
Y0019397D02*
X0039585D01*
Y0019102D02*
Y0018856D01*
X0039663D01*
X0042238Y0018615D02*
Y0018504D01*
Y0019996D02*
Y0019884D01*
X0043218D01*
X0042238Y0018740D02*
X0043025D01*
Y0018957D01*
X0042810D01*
X0042238Y0019760D02*
Y0019884D01*
X0040190Y0019543D02*
Y0018957D01*
X0040762Y0018740D02*
Y0018615D01*
X0039781D01*
Y0019884D01*
X0040762D01*
Y0018615D02*
Y0018504D01*
X0039670D01*
X0039781Y0018615D01*
Y0019884D02*
X0039670Y0019996D01*
X0040762D01*
X0040269Y0019543D02*
Y0018957D01*
X0040762Y0018504D02*
Y0018260D01*
X0039663D01*
Y0018490D01*
Y0020009D01*
Y0020240D01*
X0040762D01*
Y0018260D02*
X0042238D01*
X0043337Y0018490D02*
Y0018491D01*
X0043336D01*
Y0018492D01*
Y0018493D01*
Y0018494D01*
Y0018495D01*
Y0018496D01*
X0043335D01*
Y0018497D01*
Y0018498D01*
X0043334D01*
Y0018499D01*
Y0018500D01*
X0043333D01*
Y0018501D01*
X0043332D01*
Y0018502D01*
X0043331D01*
Y0018503D01*
X0043330D01*
Y0018504D01*
X0043337Y0020009D03*
X0043336Y0020008D01*
Y0020007D01*
Y0020006D01*
Y0020005D01*
Y0020004D01*
X0043335D01*
Y0020003D01*
Y0020002D01*
X0043334D01*
Y0020001D01*
Y0020000D01*
X0043333D01*
Y0019999D01*
X0043332D01*
Y0019998D01*
X0043331D01*
Y0019997D01*
X0043330Y0019996D01*
X0039663Y0018490D02*
Y0018491D01*
Y0018492D01*
Y0018493D01*
X0039664D01*
Y0018494D01*
Y0018495D01*
Y0018496D01*
X0039665D01*
Y0018497D01*
Y0018498D01*
X0039666D01*
Y0018499D01*
Y0018500D01*
X0039667D01*
Y0018501D01*
X0039668D01*
Y0018502D01*
X0039669D01*
Y0018503D01*
X0039670Y0018504D01*
Y0019996D03*
X0039669D01*
Y0019997D01*
X0039668D01*
Y0019998D01*
Y0019999D01*
X0039667D01*
Y0020000D01*
X0039666D01*
Y0020001D01*
Y0020002D01*
X0039665D01*
Y0020003D01*
Y0020004D01*
X0039664D01*
Y0020005D01*
Y0020006D01*
Y0020007D01*
X0039663D01*
Y0020008D01*
Y0020009D01*
X0009700Y0023100D02*
X0011300D01*
Y0024900D01*
X0010600D01*
X0010500Y0024800D01*
X0010400Y0024900D01*
X0009700D01*
Y0023100D01*
X0021175Y0026575D02*
Y0025425D01*
X0021820D01*
Y0026575D01*
X0021175D01*
X0002450Y0013050D02*
X0003550D01*
Y0010950D01*
X0002450D01*
Y0013050D01*
X0024600Y0014800D02*
Y0013200D01*
X0026400D01*
Y0013900D01*
X0026300Y0014000D01*
X0026400Y0014100D01*
Y0014800D01*
X0024600D01*
X0028860Y0024008D02*
X0028880D01*
Y0024027D01*
Y0024972D01*
Y0024992D01*
X0028860D01*
X0027640D02*
X0027620D01*
Y0024972D01*
Y0024027D01*
Y0024008D01*
X0027640D01*
Y0024992D02*
X0028860D01*
Y0024008D02*
X0027640D01*
X0028860Y0024618D02*
Y0024776D01*
X0027640Y0024382D02*
Y0024224D01*
X0016925Y0018325D02*
Y0017175D01*
X0017570D01*
Y0018325D01*
X0016925D01*
X0021000Y0025050D02*
X0020500D01*
X0020400Y0025150D01*
Y0026450D01*
X0021100D01*
Y0025150D01*
X0021000Y0025050D01*
X0021100Y0025650D02*
X0020400D01*
X0007350Y0012634D02*
X0007280D01*
X0007350Y0012580D02*
X0007280D01*
X0007350Y0012526D02*
X0007280D01*
X0007350Y0012472D02*
X0007280D01*
X0007350Y0012418D02*
X0007280D01*
X0007350Y0012364D02*
X0007280D01*
X0007350Y0012310D02*
X0007280D01*
X0007350Y0012256D02*
X0007280D01*
X0007350Y0012202D02*
X0007280D01*
X0007350Y0012148D02*
X0007280D01*
X0007350Y0012094D02*
X0007287D01*
X0007350Y0013228D02*
X0007280D01*
X0007350Y0013174D02*
X0007280D01*
X0007350Y0013120D02*
X0007280D01*
X0007350Y0013066D02*
X0007280D01*
X0007350Y0013012D02*
X0007280D01*
X0007350Y0012958D02*
X0007280D01*
X0007350Y0012904D02*
X0007280D01*
X0007350Y0012850D02*
X0007280D01*
X0007350Y0012796D02*
X0007280D01*
X0007350Y0012742D02*
X0007280D01*
X0007350Y0012688D02*
X0007280D01*
Y0013360D02*
Y0012100D01*
X0007340Y0012050D01*
X0007360Y0012020D01*
X0007380Y0012000D01*
X0007320Y0013400D02*
Y0012067D01*
X0007350Y0013390D02*
X0007310D01*
X0007350Y0013336D02*
X0007280D01*
X0007350Y0013282D02*
X0007280D01*
X0007340Y0012040D02*
X0007380Y0012000D01*
X0007350Y0012050D02*
X0007340Y0012040D01*
X0007350Y0013430D02*
Y0012050D01*
Y0013430D02*
X0007280Y0013360D01*
X0007886Y0011964D02*
X0009600Y0011963D01*
X0010245D01*
Y0013537D01*
X0007440Y0013540D01*
X0007260Y0013360D01*
Y0012100D01*
X0007430Y0011960D01*
X0007886Y0011964D01*
X0007606Y0012070D02*
X0007493D01*
X0007584Y0012139D02*
Y0012040D01*
X0007530Y0012146D02*
Y0012033D01*
X0007599Y0012124D02*
X0007500D01*
X0008430Y0011980D02*
Y0013530D01*
X0015957Y0000631D02*
X0015960Y0000629D01*
X0017279Y-0000174D01*
X0017092Y-0000520D02*
X0016567Y-0000269D01*
X0016366Y-0000606D02*
X0017279Y-0001383D01*
X0017034Y-0001686D02*
X0015985Y-0000889D01*
X0015669Y-0001046D02*
X0015718Y-0001551D01*
X0015337Y-0001620D02*
X0014796Y-0000184D01*
X0014224Y-0000288D02*
X0014138Y-0001551D01*
X0013744D02*
X0013626Y0000443D01*
X0007374D01*
X0007256Y-0001551D01*
X0006862D02*
X0006776Y-0000288D01*
X0006204Y-0000184D02*
X0005663Y-0001620D01*
X0005282Y-0001551D02*
X0005331Y-0001046D01*
X0005015Y-0000889D02*
X0003966Y-0001686D01*
X0003720Y-0001383D02*
X0004634Y-0000606D01*
X0004433Y-0000269D02*
X0003907Y-0000520D01*
X0003720Y-0000174D02*
X0005042Y0000630D01*
X0005043Y0000631D01*
Y0000873D03*
X0003720Y0001678D01*
X0003907Y0002024D02*
X0004433Y0001774D01*
X0004634Y0002110D02*
X0003720Y0002887D01*
X0003966Y0003190D02*
X0005015Y0002394D01*
X0005331Y0002551D02*
X0005282Y0003055D01*
X0005663Y0003125D02*
X0006204Y0001688D01*
X0006776Y0001793D02*
X0006862Y0003055D01*
X0007256D02*
X0007374Y0001061D01*
X0013626D01*
X0013744Y0003055D01*
X0014138D02*
X0014224Y0001793D01*
X0014796Y0001688D02*
X0015337Y0003125D01*
X0015718Y0003055D02*
X0015669Y0002551D01*
X0015985Y0002394D02*
X0017034Y0003190D01*
X0017279Y0002887D02*
X0016366Y0002110D01*
X0016567Y0001774D02*
X0017092Y0002024D01*
X0017279Y0001678D02*
X0015959Y0000875D01*
X0015957Y0000873D01*
X-0000675Y0014675D02*
Y0015825D01*
X-0001320D01*
Y0014675D01*
X-0000675D01*
X0016825Y0017175D02*
Y0018325D01*
X0016180D01*
Y0017175D01*
X0016825D01*
X0013175Y0023075D02*
Y0021925D01*
X0013820D01*
Y0023075D01*
X0013175D01*
X0011425D02*
Y0021925D01*
X0012070D01*
Y0023075D01*
X0011425D01*
X0013473Y0008154D02*
X0013345D01*
X0013432Y0008252D02*
Y0008118D01*
X0013378Y0008249D02*
Y0008121D01*
X0013476Y0008208D02*
X0013342D01*
X-0001325Y0012825D02*
Y0011675D01*
X-0000680D01*
Y0012825D01*
X-0001325D01*
X0022675Y0025075D02*
Y0023925D01*
X0023320D01*
Y0025075D01*
X0022675D01*
X0018450Y0023100D02*
X0020050D01*
Y0024900D01*
X0019350D01*
X0019250Y0024800D01*
X0019150Y0024900D01*
X0018450D01*
Y0023100D01*
X0010575Y0021925D02*
Y0023075D01*
X0009930D01*
Y0021925D01*
X0010575D01*
X0016700Y0023100D02*
X0018300D01*
Y0024900D01*
X0017600D01*
X0017500Y0024800D01*
X0017400Y0024900D01*
X0016700D01*
Y0023100D01*
X0000075Y0011675D02*
Y0012825D01*
X-0000570D01*
Y0011675D01*
X0000075D01*
X0011450Y0023100D02*
X0013050D01*
Y0024900D01*
X0012350D01*
X0012250Y0024800D01*
X0012150Y0024900D01*
X0011450D01*
Y0023100D01*
X0039719Y0006161D02*
Y0006315D01*
X0040971D01*
Y0005063D01*
X0039719D01*
Y0006102D01*
Y0006161D01*
X0039360D01*
X0039309D01*
X0039195D01*
X0038539D01*
X0038522Y0006159D01*
X0038480Y0006102D01*
Y0003898D01*
X0038521D01*
X0039719Y0005063D02*
Y0004937D01*
Y0003898D01*
Y0003839D01*
X0039360D01*
X0039309D01*
X0039195D01*
X0038539D01*
X0038522Y0003841D01*
Y0003465D01*
X0038401D01*
X0041529Y0002307D02*
X0043041D01*
Y0002772D01*
X0042781D01*
Y0003559D01*
X0041529D01*
Y0002307D01*
X0042781Y0004937D02*
X0041529D01*
Y0003685D01*
X0042781D01*
Y0004937D01*
X0039309Y0003839D02*
Y0003465D01*
X0039360D01*
X0039388D01*
Y0003130D01*
Y0002736D01*
Y0002106D01*
X0039447Y0002047D02*
X0040167D01*
Y0001850D01*
X0040719D01*
Y0002047D01*
X0041978D01*
Y0001850D01*
X0042529D01*
Y0002047D01*
X0043265D01*
X0043325Y0002106D02*
Y0007893D01*
X0043265Y0007953D02*
X0042529D01*
Y0008149D01*
X0041978D01*
Y0007953D01*
X0040719D01*
Y0008149D01*
X0040167D01*
Y0007953D01*
X0039447D01*
X0039388Y0007893D02*
Y0006535D01*
X0039360D01*
X0039309D01*
Y0006161D01*
Y0003474D02*
X0039195D01*
X0038522D01*
X0038401D01*
X0038104Y0003771D02*
Y0006247D01*
X0039309Y0006535D02*
X0039195D01*
X0038522D01*
X0038401D01*
X0038104Y0006238D02*
Y0003762D01*
X0038480Y0006102D02*
X0038521D01*
X0043325Y0007697D02*
X0043580D01*
Y0007224D01*
X0043325D01*
Y0002303D02*
X0043580D01*
Y0002776D01*
X0043325D01*
X0042030Y0004186D02*
X0042109Y0004265D01*
X0042202D01*
X0042280Y0004186D01*
X0042030D01*
Y0004436D01*
X0042109Y0004357D01*
X0042202D01*
Y0004265D01*
Y0004357D02*
X0042280Y0004436D01*
X0042030D01*
X0042280D02*
Y0004186D01*
X0042109Y0004265D02*
Y0004357D01*
X0040298D02*
Y0004265D01*
X0040220Y0004186D01*
X0040470D01*
Y0004436D01*
X0040391Y0004357D01*
X0040298D01*
X0040220Y0004436D01*
X0040470D01*
X0040391Y0004357D02*
Y0004265D01*
X0040298D01*
X0040470Y0004186D02*
X0040391Y0004265D01*
X0040220Y0004436D02*
Y0004186D01*
X0042030Y0005564D02*
X0042109Y0005642D01*
X0042202D01*
X0042280Y0005564D01*
X0042030D01*
Y0005814D01*
X0042109Y0005735D01*
X0042202D01*
Y0005642D01*
Y0005735D02*
X0042280Y0005814D01*
X0042030D01*
X0042280D02*
Y0005564D01*
X0042109Y0005642D02*
Y0005735D01*
X0040298D02*
Y0005642D01*
X0040220Y0005564D01*
X0040470D01*
Y0005814D01*
X0040391Y0005735D01*
X0040298D01*
X0040220Y0005814D01*
X0040470D01*
X0040391Y0005735D02*
Y0005642D01*
X0040298D01*
X0040470Y0005564D02*
X0040391Y0005642D01*
X0040220Y0005814D02*
Y0005564D01*
X0038580Y0005496D02*
X0038640D01*
X0038699Y0005437D02*
Y0004563D01*
X0038640Y0004504D02*
X0038580D01*
X0038521D01*
X0038488D01*
Y0005496D01*
X0038521D01*
X0038580D01*
X0039309Y0003465D02*
X0039195D01*
X0038522D01*
X0038480Y0003898D02*
X0038522Y0003841D01*
Y0006535D02*
Y0006159D01*
X0040220Y0003058D02*
X0040470D01*
Y0002808D01*
X0040391Y0002887D01*
Y0002979D01*
X0040298D01*
X0040220Y0003058D01*
Y0002808D01*
X0040298Y0002887D01*
Y0002979D01*
X0040220Y0007192D02*
X0040470D01*
Y0006942D01*
X0040391Y0007020D01*
Y0007113D01*
X0040298D01*
X0040220Y0007192D01*
Y0006942D01*
X0040470D01*
X0040298Y0007113D02*
Y0007020D01*
X0040220Y0006942D01*
X0040391Y0007113D02*
X0040470Y0007192D01*
X0040391Y0007020D02*
X0040298D01*
X0042109Y0007113D02*
Y0007020D01*
X0042030Y0006942D01*
Y0007192D01*
X0042109Y0007113D01*
X0042202D01*
X0042280Y0007192D01*
X0042030D01*
X0042202Y0007113D02*
Y0007020D01*
X0042109D01*
X0042202D02*
X0042280Y0006942D01*
X0042030D01*
X0042280Y0007192D02*
Y0006942D01*
Y0002808D02*
X0042030D01*
X0042109Y0002887D01*
X0042202D01*
X0042280Y0002808D01*
Y0003058D01*
X0042202Y0002979D01*
X0042109D01*
X0042030Y0003058D01*
Y0002808D01*
X0042280Y0003058D02*
X0042030D01*
X0040391Y0002979D02*
X0040470Y0003058D01*
X0042202Y0002979D02*
Y0002887D01*
X0040391D02*
X0040298D01*
X0042109Y0002979D02*
Y0002887D01*
X0040220Y0002808D02*
X0040470D01*
X0039719Y0002307D02*
X0040971D01*
Y0003559D01*
X0039719D01*
Y0002307D01*
X0041529Y0006441D02*
X0042781D01*
Y0007693D01*
X0041529D01*
Y0006441D01*
X0039719D02*
X0040971D01*
Y0007693D01*
X0039719D01*
Y0006441D01*
X0041529Y0005063D02*
X0042781D01*
Y0006315D01*
X0041529D01*
Y0005063D01*
X0039719Y0003839D02*
Y0003685D01*
X0040971D01*
Y0004937D01*
X0039719D01*
X0039388Y0002736D02*
X0039427D01*
Y0003130D01*
X0039388D01*
X0010675Y0023075D02*
Y0021925D01*
X0011320D01*
Y0023075D01*
X0010675D01*
X0029175Y0025075D02*
Y0023925D01*
X0029820D01*
Y0025075D01*
X0029175D01*
X0029075Y0013425D02*
Y0014575D01*
X0028430D01*
Y0013425D01*
X0029075D01*
X0004575Y0022925D02*
Y0024075D01*
X0003930D01*
Y0022925D01*
X0004575D01*
X0015575Y0015925D02*
Y0017075D01*
X0014930D01*
Y0015925D01*
X0015575D01*
X0016325Y0020175D02*
Y0021325D01*
X0015680D01*
Y0020175D01*
X0016325D01*
X0014500Y0019350D02*
X0015456D01*
X0015756Y0019050D01*
Y0017959D01*
X0015750Y0017950D01*
X0014476D01*
Y0019350D01*
X0014500D01*
X0015799Y0019390D02*
X0015701D01*
X0015794Y0019424D02*
Y0019376D01*
X0015740Y0019449D02*
Y0019351D01*
X0015774Y0019444D02*
X0015726D01*
X0005350Y0012955D02*
X0004150D01*
Y0010005D01*
X0005350D01*
Y0012955D01*
X0033920Y0013070D02*
X0031400D01*
Y0011930D01*
X0034100D01*
Y0012890D01*
X0033920Y0013070D01*
X0003200Y0021600D02*
X0001800D01*
Y0020900D01*
X0003200D01*
Y0021600D01*
X0040045Y0010250D02*
X0040000D01*
Y0008750D01*
X0043500D01*
Y0010250D01*
X0040045D01*
X0013200Y0023100D02*
X0014800D01*
Y0024900D01*
X0014100D01*
X0014000Y0024800D01*
X0013900Y0024900D01*
X0013200D01*
Y0023100D01*
X0018675Y0013075D02*
Y0011925D01*
X0019320D01*
Y0013075D01*
X0018675D01*
X0029825Y0022675D02*
Y0023825D01*
X0029180D01*
Y0022675D01*
X0029825D01*
X0019000Y0025050D02*
X0018500D01*
X0018400Y0025150D01*
Y0026450D01*
X0019100D01*
Y0025150D01*
X0019000Y0025050D01*
X0019100Y0025650D02*
X0018400D01*
X0019325Y0020175D02*
Y0021325D01*
X0018680D01*
Y0020175D01*
X0019325D01*
X0025290Y0019150D02*
Y0021850D01*
X0021710D01*
Y0019150D01*
X0025290D01*
X0016325Y0015925D02*
Y0017075D01*
X0015680D01*
Y0015925D01*
X0016325D01*
X0014675Y0021325D02*
Y0020175D01*
X0015320D01*
Y0021325D01*
X0014675D01*
X0019175Y0026575D02*
Y0025425D01*
X0019820D01*
Y0026575D01*
X0019175D01*
X0017675D02*
Y0025425D01*
X0018320D01*
Y0026575D01*
X0017675D01*
X0001825Y0015925D02*
Y0017075D01*
X0001180D01*
Y0015925D01*
X0001825D01*
X0029175Y0017075D02*
Y0015925D01*
X0029820D01*
Y0017075D01*
X0029175D01*
X0010500Y0025050D02*
X0010000D01*
X0009900Y0025150D01*
Y0026450D01*
X0010600D01*
Y0025150D01*
X0010500Y0025050D01*
X0010600Y0025650D02*
X0009900D01*
X0014925Y0023075D02*
Y0021925D01*
X0015570D01*
Y0023075D01*
X0014925D01*
X0012425Y0026575D02*
Y0025425D01*
X0013070D01*
Y0026575D01*
X0012425D01*
X0024898Y0025649D02*
Y0025552D01*
X0024844Y0025682D02*
Y0025519D01*
X0024790Y0025671D02*
Y0025530D01*
X0024880Y0025667D02*
X0024783D01*
X0024913Y0025613D02*
X0024751D01*
X0024902Y0025559D02*
X0024761D01*
X0025250Y0025650D02*
X0026450D01*
Y0023450D01*
X0024950D01*
Y0025350D01*
X0025250Y0025650D01*
X0006600Y0012955D02*
X0005400D01*
Y0010005D01*
X0006600D01*
Y0012955D01*
X0029175Y0026325D02*
Y0025175D01*
X0029820D01*
Y0026325D01*
X0029175D01*
X0013425Y0005825D02*
Y0004675D01*
X0014070D01*
Y0005825D01*
X0013425D01*
X0001925Y0019925D02*
X0003075D01*
Y0020570D01*
X0001925D01*
Y0019925D01*
X0034691Y0026919D02*
Y0027455D01*
X0033313D02*
X0033077D01*
Y0026919D01*
Y0024581D02*
Y0024045D01*
X0033313D01*
X0034691D01*
X0033313Y0024581D02*
Y0024045D01*
X0035718Y0024884D02*
Y0026616D01*
X0035250D01*
X0034673D01*
Y0026679D01*
X0033811D01*
Y0025805D01*
X0034673D01*
Y0026274D01*
X0034783D01*
Y0025226D01*
X0034673D01*
Y0025695D01*
X0033811D01*
Y0025337D01*
X0033689D01*
Y0025695D01*
X0032827D01*
Y0024821D01*
X0034673D01*
Y0024884D01*
X0035250D01*
X0035718D01*
X0034691Y0024581D02*
Y0024045D01*
X0034927D01*
Y0024581D01*
X0032573D01*
Y0026919D01*
X0034927D01*
Y0027455D01*
X0034691D01*
X0033313D01*
Y0026919D01*
X0033324Y0026308D02*
X0033383Y0026367D01*
X0033133D01*
Y0026117D01*
X0033192Y0026176D01*
X0033324D01*
Y0026308D01*
X0033192D01*
Y0026176D01*
X0033383Y0026367D02*
Y0026117D01*
X0033324Y0026176D01*
X0034308Y0026308D02*
X0034367Y0026367D01*
Y0026117D01*
X0034308Y0026176D01*
Y0026308D01*
X0034176D01*
X0034117Y0026367D01*
Y0026117D01*
X0034176Y0026176D01*
Y0026308D01*
X0033133Y0026117D02*
X0033383D01*
X0034117D02*
X0034367D01*
X0034308Y0026176D02*
X0034176D01*
X0034117Y0026367D02*
X0034367D01*
X0033811Y0024821D02*
Y0025100D01*
X0033689D01*
Y0025337D01*
X0033811D02*
Y0025100D01*
X0033133Y0025133D02*
X0033383D01*
Y0025383D01*
X0033324Y0025324D01*
X0033192D01*
X0033133Y0025383D01*
Y0025133D01*
X0033192Y0025192D01*
X0033324D01*
Y0025324D01*
X0033192Y0025192D02*
Y0025324D01*
X0033383Y0025133D02*
X0033324Y0025192D01*
X0034308Y0025324D02*
X0034367Y0025383D01*
Y0025133D01*
X0034308Y0025192D01*
Y0025324D01*
X0034176D01*
X0034117Y0025383D01*
Y0025133D01*
X0034176Y0025192D01*
Y0025324D01*
X0034117Y0025133D02*
X0034367D01*
X0034308Y0025192D02*
X0034176D01*
X0033133Y0025383D02*
X0033383D01*
X0034117D02*
X0034367D01*
X0033689Y0024821D02*
Y0025100D01*
X0035974Y0024726D02*
X0035825D01*
Y0026774D01*
X0035974D01*
X0036053Y0026695D02*
X0036050Y0024800D01*
X0034927Y0024581D02*
Y0024726D01*
X0035250D01*
X0035825D01*
X0035250Y0026616D02*
Y0026774D01*
X0035825D01*
X0033133Y0026367D02*
X0033192Y0026308D01*
X0034673Y0024884D02*
Y0025226D01*
Y0026274D02*
Y0026616D01*
X0032827Y0026679D02*
Y0025805D01*
X0033689D01*
Y0026679D01*
X0032827D01*
X0034927Y0026919D02*
Y0026774D01*
X0035250D01*
Y0024884D02*
Y0024726D01*
X0009325Y0025425D02*
Y0026575D01*
X0008680D01*
Y0025425D01*
X0009325D01*
X0029350Y0014800D02*
Y0013200D01*
X0031150D01*
Y0013900D01*
X0031050Y0014000D01*
X0031150Y0014100D01*
Y0014800D01*
X0029350D01*
X0034325Y0021925D02*
Y0023075D01*
X0033680D01*
Y0021925D01*
X0034325D01*
X0020825Y0014425D02*
Y0015575D01*
X0020180D01*
Y0014425D01*
X0020825D01*
X0019075Y0015925D02*
Y0017075D01*
X0018430D01*
Y0015925D01*
X0019075D01*
X0014175Y0026575D02*
Y0025425D01*
X0014820D01*
Y0026575D01*
X0014175D01*
X0040115Y0014829D02*
X0039987D01*
X0040074Y0014927D02*
Y0014793D01*
X0040020Y0014924D02*
Y0014796D01*
X0040118Y0014883D02*
X0039984D01*
X0040421Y0014751D02*
X0040461Y0014791D01*
Y0016326D01*
X0039042D01*
Y0014674D01*
X0040340D01*
X0040421Y0014751D01*
X0040222Y0016287D02*
Y0014674D01*
X0004250Y0013300D02*
Y0014350D01*
X0002250D01*
Y0013150D01*
X0004250D01*
Y0013300D01*
X0022575Y0023925D02*
Y0025075D01*
X0021930D01*
Y0023925D01*
X0022575D01*
X0011723Y0008154D02*
X0011595D01*
X0011682Y0008252D02*
Y0008118D01*
X0011628Y0008249D02*
Y0008121D01*
X0011726Y0008208D02*
X0011592D01*
X0001925Y0021675D02*
X0003075D01*
Y0022320D01*
X0001925D01*
Y0021675D01*
X0018050Y0007774D02*
X0018081Y0007805D01*
X0018109Y0010667D02*
X0021891D01*
Y0010590D01*
X0021968D01*
X0018032Y0008042D02*
Y0010590D01*
X0018109D01*
X0021891D01*
Y0008042D01*
X0018109D01*
Y0007986D01*
X0018032Y0010590D02*
X0017972Y0010649D01*
X0021891Y0010667D02*
X0021950Y0010726D01*
X0021949D01*
X0021831D01*
X0021997Y0007882D02*
X0022028Y0007851D01*
Y0007852D01*
Y0010648D01*
Y0010649D01*
X0021919Y0007805D02*
X0021950Y0007774D01*
X0019669Y0011095D02*
Y0011284D01*
X0019831D01*
Y0011095D01*
X0019669D01*
Y0011037D01*
Y0010981D01*
X0019831D01*
Y0010822D01*
Y0010726D01*
X0019669D01*
X0018051D01*
X0018050D01*
X0018109Y0010667D01*
Y0010590D01*
Y0008042D01*
X0018032D01*
X0018004Y0007882D01*
X0017972Y0007851D01*
Y0007852D01*
X0018050Y0007774D03*
X0017972Y0007851D02*
Y0007852D01*
Y0010648D01*
Y0010649D01*
X0018015Y0010718D01*
X0021986Y0007782D02*
X0022028Y0007851D01*
X0021985Y0007783D01*
Y0007782D01*
X0021950Y0007774D01*
X0021949D01*
X0018051D01*
X0018050D01*
X0017981Y0007816D01*
X0019831Y0010726D02*
X0020169D01*
X0020331D01*
X0020669D01*
X0020831D01*
X0021169D01*
X0021331D01*
X0021669D01*
X0021831D01*
Y0010822D01*
Y0010981D01*
X0021669D01*
Y0011037D01*
Y0011095D01*
X0021831D01*
Y0011284D01*
X0021669D01*
Y0011095D01*
Y0011037D02*
X0021831D01*
Y0011095D01*
Y0010822D02*
X0021669D01*
Y0010981D01*
X0021831Y0011037D02*
Y0010981D01*
X0021669Y0010822D02*
Y0010726D01*
X0019831Y0007774D02*
Y0007678D01*
X0018169D01*
Y0007519D01*
Y0007463D01*
X0019831D01*
Y0007405D01*
Y0007215D01*
X0018169D01*
Y0007405D01*
Y0007463D01*
Y0007519D02*
X0019831D01*
Y0007678D01*
X0018169Y0007405D02*
X0019831D01*
Y0007463D02*
Y0007519D01*
X0018169Y0007678D02*
Y0007774D01*
X0021831D02*
Y0007678D01*
X0020169D01*
Y0007519D01*
Y0007463D01*
X0021831D01*
Y0007405D01*
Y0007215D01*
X0020169D01*
Y0007405D01*
Y0007463D01*
Y0007519D02*
X0021831D01*
Y0007678D01*
X0020169Y0007405D02*
X0021831D01*
Y0007463D02*
Y0007519D01*
X0020169Y0007678D02*
Y0007774D01*
X0019669Y0011037D02*
X0019831D01*
Y0011095D01*
Y0010822D02*
X0019669D01*
Y0010981D01*
X0019831Y0011037D02*
Y0010981D01*
X0019669Y0010822D02*
Y0010726D01*
X0019169D02*
Y0010822D01*
X0019331D01*
Y0010981D01*
Y0011037D01*
X0019169D01*
Y0011095D01*
Y0011284D01*
X0019331D01*
Y0011095D01*
Y0011037D01*
Y0010981D02*
X0019169D01*
Y0010822D01*
X0019331Y0011095D02*
X0019169D01*
Y0011037D02*
Y0010981D01*
X0019331Y0010822D02*
Y0010726D01*
X0020669D02*
Y0010822D01*
X0020831D01*
Y0010981D01*
Y0011037D01*
X0020669D01*
Y0011095D01*
Y0011284D01*
X0020831D01*
Y0011095D01*
Y0011037D01*
Y0010981D02*
X0020669D01*
Y0010822D01*
X0020831Y0011095D02*
X0020669D01*
Y0011037D02*
Y0010981D01*
X0020831Y0010822D02*
Y0010726D01*
X0020169D02*
Y0010822D01*
X0020331D01*
Y0010981D01*
Y0011037D01*
X0020169D01*
Y0011095D01*
Y0011284D01*
X0020331D01*
Y0011095D01*
Y0011037D01*
Y0010981D02*
X0020169D01*
Y0010822D01*
X0020331Y0011095D02*
X0020169D01*
Y0011037D02*
Y0010981D01*
X0020331Y0010822D02*
Y0010726D01*
X0021169D02*
Y0010822D01*
X0021331D01*
Y0010981D01*
Y0011037D01*
X0021169D01*
Y0011095D01*
Y0011284D01*
X0021331D01*
Y0011095D01*
Y0011037D01*
Y0010981D02*
X0021169D01*
Y0010822D01*
X0021331Y0011095D02*
X0021169D01*
Y0011037D02*
Y0010981D01*
X0021331Y0010822D02*
Y0010726D01*
X0018669D02*
Y0010822D01*
X0018831D01*
Y0010981D01*
Y0011037D01*
X0018669D01*
Y0011095D01*
Y0011284D01*
X0018831D01*
Y0011095D01*
Y0011037D01*
Y0010981D02*
X0018669D01*
Y0010822D01*
X0018831Y0011095D02*
X0018669D01*
Y0011037D02*
Y0010981D01*
X0018831Y0010822D02*
Y0010726D01*
X0018169D02*
Y0010822D01*
X0018331D01*
Y0010981D01*
Y0011037D01*
X0018169D01*
Y0011095D01*
Y0011284D01*
X0018331D01*
Y0011095D01*
Y0011037D01*
Y0010981D02*
X0018169D01*
Y0010822D01*
X0018331Y0011095D02*
X0018169D01*
Y0011037D02*
Y0010981D01*
X0018331Y0010822D02*
Y0010726D01*
X0018081Y0007826D02*
X0018109Y0007986D01*
X0021891D01*
Y0008042D01*
X0021968D01*
X0021997Y0007882D01*
X0021919Y0007826D03*
Y0007805D01*
X0018081D01*
Y0007826D01*
X0021919D01*
X0021891Y0007986D01*
X0021968Y0008042D02*
Y0010590D01*
X0022028Y0010649D01*
X0022019Y0010683D01*
X0022020Y0010684D01*
X0021950Y0010726D01*
X0022019Y0010684D01*
X0038700Y0010300D02*
X0039800D01*
Y0008200D01*
X0038700D01*
Y0010300D01*
X0013925Y0021325D02*
Y0020175D01*
X0014570D01*
Y0021325D01*
X0013925D01*
X0036632Y0018663D02*
X0036592D01*
X0037262Y0020070D02*
X0036238D01*
X0036159Y0020149D02*
Y0020464D01*
Y0021035D01*
X0037081Y0019835D02*
X0036431Y0019840D01*
Y0019755D01*
X0035805Y0020325D02*
X0036023D01*
Y0021175D01*
X0036431Y0021744D02*
X0036238D01*
X0036142Y0021762D02*
X0035821Y0021882D01*
X0035711Y0021587D02*
X0036031Y0021467D01*
X0036238Y0021429D02*
X0037262D01*
X0037468Y0021467D02*
X0037789Y0021587D01*
X0037679Y0021882D02*
X0037358Y0021762D01*
X0037262Y0021744D02*
X0037069D01*
X0037081Y0021665D02*
X0036941Y0021790D01*
X0036559D01*
X0036418Y0021665D01*
X0036868Y0022837D02*
X0036907D01*
X0036159Y0020464D02*
X0036238D01*
X0037262D01*
X0037340D01*
X0037477Y0021175D02*
X0037602Y0021050D01*
X0035898D02*
Y0020450D01*
X0036023Y0020325D01*
X0036941Y0019710D02*
X0036559D01*
X0036449Y0019820D01*
X0037602Y0020450D02*
X0037477Y0020325D01*
X0035805Y0020450D02*
X0035898D01*
X0036592Y0022837D02*
X0036632D01*
X0036907Y0018663D02*
X0036868D01*
X0037340Y0021351D02*
Y0021035D01*
X0036431Y0019755D02*
X0036238D01*
X0036142Y0019738D02*
X0035821Y0019618D01*
X0035711Y0019913D02*
X0036031Y0020033D01*
X0036592Y0018388D02*
Y0019018D01*
X0036907D01*
Y0018388D01*
X0038915D01*
Y0023112D01*
X0036907D01*
Y0022482D01*
X0036592D01*
Y0023112D01*
X0034585D01*
Y0018388D01*
X0036592D01*
X0036632Y0018624D02*
Y0018939D01*
X0036868D01*
Y0018624D01*
X0036632D01*
Y0022561D02*
Y0022876D01*
X0036868D01*
Y0022561D01*
X0036632D01*
X0035805Y0021050D02*
X0035898D01*
X0036023Y0021175D01*
X0035805D01*
X0036431Y0021744D02*
X0036430Y0021680D01*
X0036440Y0021670D01*
X0036420Y0021665D01*
X0037081D01*
X0037069Y0021744D01*
X0037695Y0021175D02*
X0037477D01*
Y0020325D01*
X0037695D01*
Y0021050D02*
X0037602D01*
Y0020450D01*
X0037695D01*
X0036941Y0019710D02*
X0037081Y0019835D01*
X0037069Y0019755D01*
X0037262D01*
X0037358Y0019738D02*
X0037679Y0019618D01*
X0037789Y0019913D02*
X0037468Y0020033D01*
X0037340Y0020149D02*
Y0021035D01*
X0036159D01*
Y0021351D01*
X0014950Y0023100D02*
X0016550D01*
Y0024900D01*
X0015850D01*
X0015750Y0024800D01*
X0015650Y0024900D01*
X0014950D01*
Y0023100D01*
X0012175Y0012325D02*
Y0011175D01*
X0012820D01*
Y0012325D01*
X0012175D01*
X0003650Y0015450D02*
Y0017050D01*
X0001850D01*
Y0016350D01*
X0001950Y0016250D01*
X0001850Y0016150D01*
Y0015450D01*
X0003650D01*
X0017500Y0025050D02*
X0017000D01*
X0016900Y0025150D01*
Y0026450D01*
X0017600D01*
Y0025150D01*
X0017500Y0025050D01*
X0017600Y0025650D02*
X0016900D01*
X0030575Y0023925D02*
Y0025075D01*
X0029930D01*
Y0023925D01*
X0030575D01*
X0029750Y0017300D02*
X0029250D01*
X0029150Y0017400D01*
Y0018700D01*
X0029850D01*
Y0017400D01*
X0029750Y0017300D01*
X0029850Y0017900D02*
X0029150D01*
X0010675Y0026575D02*
Y0025425D01*
X0011320D01*
Y0026575D01*
X0010675D01*
X0001575Y0021825D02*
X0000425D01*
Y0021180D01*
X0001575D01*
Y0021825D01*
X0018575Y0011925D02*
Y0013075D01*
X0017930D01*
Y0011925D01*
X0018575D01*
X0017825Y0020175D02*
Y0021325D01*
X0017180D01*
Y0020175D01*
X0017825D01*
X0023080Y0011930D02*
X0025600D01*
Y0013070D01*
X0022900D01*
Y0012110D01*
X0023080Y0011930D01*
X0032251Y0020979D02*
X0032250Y0020966D01*
X0032252D01*
X0032703Y0020854D02*
X0032709Y0020866D01*
X0033119Y0020455D02*
X0033107Y0020449D01*
X0033131Y0020400D01*
X0033139Y0020383D01*
X0033146Y0020366D01*
X0033153Y0020349D01*
X0033159Y0020332D01*
X0033166Y0020314D01*
X0033171Y0020297D01*
X0033177Y0020279D01*
X0033182Y0020261D01*
X0033187Y0020243D01*
X0033192Y0020225D01*
X0033196Y0020207D01*
X0033206Y0020151D01*
X0033209Y0020133D01*
X0033211Y0020114D01*
X0033214Y0020095D01*
X0033218Y0019998D01*
X0033217Y0019946D01*
X0033214Y0019911D01*
X0033213Y0019894D01*
X0033211Y0019877D01*
X0033193Y0019777D01*
X0033189Y0019760D01*
X0033184Y0019744D01*
X0033165Y0019680D01*
X0033159Y0019664D01*
X0033153Y0019649D01*
X0033147Y0019634D01*
X0033127Y0019588D01*
X0033139Y0019583D01*
X0033146Y0019598D01*
X0033159Y0019629D01*
X0033165Y0019644D01*
X0033171Y0019660D01*
X0033177Y0019676D01*
X0033197Y0019741D01*
X0033201Y0019757D01*
X0033205Y0019774D01*
X0033209Y0019791D01*
X0033213Y0019807D01*
X0033219Y0019841D01*
X0033221Y0019858D01*
X0033224Y0019876D01*
X0033226Y0019893D01*
X0033227Y0019910D01*
X0033230Y0019945D01*
X0033231Y0019999D01*
X0033226Y0020096D01*
X0033224Y0020115D01*
X0033222Y0020135D01*
X0033219Y0020154D01*
X0033200Y0020247D01*
X0033195Y0020265D01*
X0033189Y0020283D01*
X0033184Y0020301D01*
X0033178Y0020319D01*
X0033158Y0020371D01*
X0033151Y0020388D01*
X0033143Y0020405D01*
X0033119Y0020455D01*
X0032250Y0019018D02*
X0032251Y0019031D01*
X0032154Y0019035D01*
X0032116Y0019040D01*
X0032097Y0019043D01*
X0032042Y0019053D01*
X0032024Y0019057D01*
X0032006Y0019062D01*
X0031970Y0019072D01*
X0031952Y0019078D01*
X0031935Y0019083D01*
X0031900Y0019096D01*
X0031883Y0019103D01*
X0031849Y0019118D01*
X0031800Y0019142D01*
X0031794Y0019130D01*
X0031844Y0019106D01*
X0031861Y0019098D01*
X0031878Y0019091D01*
X0031930Y0019071D01*
X0031948Y0019065D01*
X0031966Y0019060D01*
X0031984Y0019054D01*
X0032002Y0019049D01*
X0032096Y0019030D01*
X0032115Y0019027D01*
X0032153Y0019023D01*
X0032250Y0019018D01*
X0031382Y0019542D02*
X0031394Y0019548D01*
X0031283Y0019999D02*
X0031270Y0019998D01*
X0031354Y0020983D02*
X0032815D01*
Y0020962D01*
X0031350D01*
X0031287Y0020894D02*
Y0019434D01*
X0031266D01*
Y0020894D01*
X0031355Y0020983D02*
Y0020979D01*
X0031270Y0020895D02*
Y0020386D01*
X0031426D01*
Y0020399D01*
X0031283D01*
Y0020899D01*
X0031349Y0020966D02*
X0031836D01*
Y0020820D01*
X0031420Y0020395D02*
X0031432Y0020389D01*
X0031849Y0020812D02*
Y0020979D01*
X0031355D01*
X0032655Y0019175D02*
X0032635D01*
Y0019014D01*
X0032873D01*
X0033235Y0019370D01*
Y0019596D01*
X0033059D01*
X0033045Y0019569D01*
X0033033Y0019548D01*
X0032995Y0019488D01*
X0032982Y0019469D01*
X0032938Y0019413D01*
X0032922Y0019395D01*
X0032906Y0019378D01*
X0032890Y0019361D01*
X0032873Y0019344D01*
X0032856Y0019328D01*
X0032838Y0019313D01*
X0032802Y0019283D01*
X0032783Y0019269D01*
X0032703Y0019217D01*
X0032683Y0019205D01*
X0032662Y0019194D01*
X0032640Y0019184D01*
X0032649Y0019165D01*
X0032693Y0019188D01*
X0032714Y0019200D01*
X0032795Y0019253D01*
X0032814Y0019267D01*
X0032905Y0019347D01*
X0032921Y0019364D01*
X0032938Y0019382D01*
X0032954Y0019400D01*
X0032969Y0019419D01*
X0032984Y0019437D01*
X0033026Y0019497D01*
X0033039Y0019517D01*
X0033051Y0019538D01*
X0033063Y0019559D01*
X0033071Y0019575D01*
X0033215D01*
Y0019379D01*
X0032865Y0019035D01*
X0032655D01*
Y0019175D01*
X0033215Y0019379D02*
Y0020563D01*
X0033235D01*
Y0019370D01*
X0032865Y0019035D02*
X0031686D01*
Y0019014D01*
X0032873D01*
X0032776Y0020534D02*
X0032786Y0020524D01*
X0033006Y0020744D01*
X0032996Y0020754D01*
X0032776Y0020534D01*
X0031496Y0019243D02*
X0031267Y0019434D01*
X0031469Y0019636D01*
X0031477Y0019621D01*
X0031730Y0019304D02*
X0031720Y0019312D01*
X0031466Y0019614D02*
X0031287Y0019435D01*
X0031504Y0019253D01*
X0031687Y0019035D01*
X0031866Y0019214D01*
X0031721Y0019303D02*
X0031729Y0019313D01*
X0031888Y0019218D02*
X0031686Y0019015D01*
X0031496Y0019243D01*
X0031504Y0019253D01*
X0031281Y0019439D01*
X0031270Y0019443D01*
X0031695Y0019018D02*
X0031691Y0019029D01*
X0031505Y0019252D01*
X0031495Y0019244D01*
X0031679Y0019023D01*
X0031676Y0019031D01*
X0031283Y0019425D02*
X0031275Y0019427D01*
X0031496Y0019243D01*
X0031500Y0019248D01*
X0031685Y0019026D01*
X0031686Y0019025D01*
X0031277Y0019434D02*
X0031278Y0019433D01*
X0031500Y0019248D01*
X0031495Y0019253D01*
X0031505Y0019244D01*
X0031724Y0019463D01*
X0031715Y0019473D01*
X0031495Y0019253D01*
X0033224Y0020563D02*
X0033222Y0020564D01*
X0033001Y0020749D01*
X0032815Y0020971D01*
Y0020972D01*
X0032821Y0020974D01*
X0032824Y0020966D01*
X0033218Y0020573D02*
X0033005Y0020754D01*
X0032996Y0020744D01*
X0033219Y0020558D01*
X0033230Y0020553D01*
X0032806Y0020978D02*
X0032809Y0020967D01*
X0032995Y0020744D01*
X0033006Y0020753D01*
X0032821Y0020974D01*
X0032940Y0020514D02*
X0032945Y0020519D01*
X0032613Y0020779D02*
X0032815Y0020982D01*
X0033006Y0020753D01*
X0033234Y0020563D01*
X0033031Y0020361D01*
X0032936Y0020520D02*
X0032946Y0020528D01*
X0033035Y0020383D02*
X0033214Y0020562D01*
X0032996Y0020745D01*
X0032814Y0020962D01*
X0032635Y0020783D01*
X0032937Y0020529D02*
X0032945Y0020519D01*
X0032940Y0020514D01*
X0031556Y0019478D02*
X0031564Y0019468D01*
X0031555Y0019470D02*
X0031565Y0019477D01*
X0032400Y0023700D02*
Y0025300D01*
X0030600D01*
Y0024600D01*
X0030700Y0024500D01*
X0030600Y0024400D01*
Y0023700D01*
X0032400D01*
X0022597Y0017950D02*
Y0017825D01*
X0022543Y0017950D02*
Y0017825D01*
X0022489Y0017950D02*
Y0017825D01*
X0022435Y0017950D02*
Y0017825D01*
X0022381Y0017950D02*
Y0017825D01*
X0022327Y0017950D02*
Y0017825D01*
X0022273Y0017950D02*
Y0017825D01*
X0022219Y0017950D02*
Y0017825D01*
X0022165Y0017950D02*
Y0017825D01*
X0023375Y0017919D02*
X0022125D01*
X0023191Y0017950D02*
Y0017825D01*
X0023137Y0017950D02*
Y0017825D01*
X0023083Y0017950D02*
Y0017825D01*
X0023029Y0017950D02*
Y0017825D01*
X0022975Y0017950D02*
Y0017825D01*
X0022921Y0017950D02*
Y0017825D01*
X0022867Y0017950D02*
Y0017825D01*
X0022813Y0017950D02*
Y0017825D01*
X0022759Y0017950D02*
Y0017825D01*
X0022705Y0017950D02*
Y0017825D01*
X0022651Y0017950D02*
Y0017825D01*
X0023375Y0017865D02*
X0022125D01*
Y0017950D02*
Y0017825D01*
X0023375D02*
X0022125D01*
X0023375Y0017950D02*
Y0017825D01*
Y0017950D02*
X0022125D01*
X0023353D02*
Y0017825D01*
X0023299Y0017950D02*
Y0017825D01*
X0023245Y0017950D02*
Y0017825D01*
X0023262Y0018681D02*
X0023380D01*
Y0016319D01*
X0023262D01*
X0022208Y0018868D02*
X0022111D01*
X0022204Y0018898D02*
Y0018857D01*
X0022150Y0018926D02*
Y0018829D01*
X0022180Y0018922D02*
X0022138D01*
X0022238Y0018681D02*
X0022120D01*
Y0016319D01*
X0022238D01*
X0020325Y0017175D02*
Y0018325D01*
X0019680D01*
Y0017175D01*
X0020325D01*
X0009175Y0023075D02*
Y0021925D01*
X0009820D01*
Y0023075D01*
X0009175D01*
X0017550Y0007050D02*
Y0005950D01*
X0015450D01*
Y0007050D01*
X0017550D01*
X0005000Y0021300D02*
Y0018250D01*
X0008500D01*
Y0021750D01*
X0005450D01*
X0005000Y0021300D01*
X0005202Y0021794D02*
Y0021706D01*
X0005148Y0021874D02*
Y0021626D01*
X0005094Y0021902D02*
Y0021598D01*
X0005040Y0021908D02*
Y0021592D01*
X0004986Y0021894D02*
Y0021605D01*
X0004932Y0021855D02*
Y0021645D01*
X0005094Y0021902D02*
X0005006D01*
X0005174Y0021848D02*
X0004926D01*
X0005202Y0021794D02*
X0004898D01*
X0005208Y0021740D02*
X0004892D01*
X0005194Y0021686D02*
X0004905D01*
X0005155Y0021632D02*
X0004945D01*
X0033750Y0021700D02*
X0034250D01*
X0034350Y0021600D01*
Y0020300D01*
X0033650D01*
Y0021600D01*
X0033750Y0021700D01*
X0033650Y0021100D02*
X0034350D01*
X0017550Y0008300D02*
Y0007200D01*
X0015450D01*
Y0008300D01*
X0017550D01*
X0018325Y0015925D02*
Y0017075D01*
X0017680D01*
Y0015925D01*
X0018325D01*
X0015750Y0025050D02*
X0015250D01*
X0015150Y0025150D01*
Y0026450D01*
X0015850D01*
Y0025150D01*
X0015750Y0025050D01*
X0015850Y0025650D02*
X0015150D01*
X0013425Y0012325D02*
Y0011175D01*
X0014070D01*
Y0012325D01*
X0013425D01*
X0011675Y0005825D02*
Y0004675D01*
X0012320D01*
Y0005825D01*
X0011675D01*
X0024325Y0013425D02*
Y0014575D01*
X0023680D01*
Y0013425D01*
X0024325D01*
X0027097Y0017700D02*
Y0017575D01*
X0027043Y0017700D02*
Y0017575D01*
X0026989Y0017700D02*
Y0017575D01*
X0026935Y0017700D02*
Y0017575D01*
X0026881Y0017700D02*
Y0017575D01*
X0026827Y0017700D02*
Y0017575D01*
X0026773Y0017700D02*
Y0017575D01*
X0026719Y0017700D02*
Y0017575D01*
X0026665Y0017700D02*
Y0017575D01*
X0027875Y0017669D02*
X0026625D01*
X0027691Y0017700D02*
Y0017575D01*
X0027637Y0017700D02*
Y0017575D01*
X0027583Y0017700D02*
Y0017575D01*
X0027529Y0017700D02*
Y0017575D01*
X0027475Y0017700D02*
Y0017575D01*
X0027421Y0017700D02*
Y0017575D01*
X0027367Y0017700D02*
Y0017575D01*
X0027313Y0017700D02*
Y0017575D01*
X0027259Y0017700D02*
Y0017575D01*
X0027205Y0017700D02*
Y0017575D01*
X0027151Y0017700D02*
Y0017575D01*
X0027875Y0017615D02*
X0026625D01*
Y0017700D02*
Y0017575D01*
X0027875D02*
X0026625D01*
X0027875Y0017700D02*
Y0017575D01*
Y0017700D02*
X0026625D01*
X0027853D02*
Y0017575D01*
X0027799Y0017700D02*
Y0017575D01*
X0027745Y0017700D02*
Y0017575D01*
X0027762Y0018431D02*
X0027880D01*
Y0016069D01*
X0027762D01*
X0026708Y0018618D02*
X0026611D01*
X0026704Y0018648D02*
Y0018607D01*
X0026650Y0018676D02*
Y0018579D01*
X0026680Y0018672D02*
X0026638D01*
X0026738Y0018431D02*
X0026620D01*
Y0016069D01*
X0026738D01*
X-0001325Y0017075D02*
Y0015925D01*
X-0000680D01*
Y0017075D01*
X-0001325D01*
X0018000Y0019350D02*
X0018956D01*
X0019256Y0019050D01*
Y0017959D01*
X0019250Y0017950D01*
X0017976D01*
Y0019350D01*
X0018000D01*
X0019299Y0019390D02*
X0019201D01*
X0019294Y0019424D02*
Y0019376D01*
X0019240Y0019449D02*
Y0019351D01*
X0019274Y0019444D02*
X0019226D01*
X0007825Y0022925D02*
Y0024075D01*
X0007180D01*
Y0022925D01*
X0007825D01*
X-0000675Y0013425D02*
Y0014575D01*
X-0001320D01*
Y0013425D01*
X-0000675D01*
X0017950Y0005450D02*
Y0006550D01*
X0020050D01*
Y0005450D01*
X0017950D01*
X0015925Y0026575D02*
Y0025425D01*
X0016570D01*
Y0026575D01*
X0015925D01*
X0021175Y0013075D02*
Y0011925D01*
X0021820D01*
Y0013075D01*
X0021175D01*
X0038075Y0014175D02*
Y0015325D01*
X0037430D01*
Y0014175D01*
X0038075D01*
X0028825Y0017675D02*
Y0018825D01*
X0028180D01*
Y0017675D01*
X0028825D01*
X0009550Y0023200D02*
X0008450D01*
Y0025300D01*
X0009550D01*
Y0023200D01*
X0014000Y0025050D02*
X0013500D01*
X0013400Y0025150D01*
Y0026450D01*
X0014100D01*
Y0025150D01*
X0014000Y0025050D01*
X0014100Y0025650D02*
X0013400D01*
X0026425Y0027075D02*
Y0025925D01*
X0027070D01*
Y0027075D01*
X0026425D01*
X0032825Y0014175D02*
Y0015325D01*
X0032180D01*
Y0014175D01*
X0032825D01*
X0043325Y0016325D02*
X0042175D01*
Y0015680D01*
X0043325D01*
Y0016325D01*
X0019675Y0013075D02*
Y0011925D01*
X0020320D01*
Y0013075D01*
X0019675D01*
X0030847Y0017700D02*
Y0017575D01*
X0030793Y0017700D02*
Y0017575D01*
X0030739Y0017700D02*
Y0017575D01*
X0030685Y0017700D02*
Y0017575D01*
X0030631Y0017700D02*
Y0017575D01*
X0030577Y0017700D02*
Y0017575D01*
X0030523Y0017700D02*
Y0017575D01*
X0030469Y0017700D02*
Y0017575D01*
X0030415Y0017700D02*
Y0017575D01*
X0031625Y0017669D02*
X0030375D01*
X0031441Y0017700D02*
Y0017575D01*
X0031387Y0017700D02*
Y0017575D01*
X0031333Y0017700D02*
Y0017575D01*
X0031279Y0017700D02*
Y0017575D01*
X0031225Y0017700D02*
Y0017575D01*
X0031171Y0017700D02*
Y0017575D01*
X0031117Y0017700D02*
Y0017575D01*
X0031063Y0017700D02*
Y0017575D01*
X0031009Y0017700D02*
Y0017575D01*
X0030955Y0017700D02*
Y0017575D01*
X0030901Y0017700D02*
Y0017575D01*
X0031625Y0017615D02*
X0030375D01*
Y0017700D02*
Y0017575D01*
X0031625D02*
X0030375D01*
X0031625Y0017700D02*
Y0017575D01*
Y0017700D02*
X0030375D01*
X0031603D02*
Y0017575D01*
X0031549Y0017700D02*
Y0017575D01*
X0031495Y0017700D02*
Y0017575D01*
X0031512Y0018431D02*
X0031630D01*
Y0016069D01*
X0031512D01*
X0030458Y0018618D02*
X0030361D01*
X0030454Y0018648D02*
Y0018607D01*
X0030400Y0018676D02*
Y0018579D01*
X0030430Y0018672D02*
X0030388D01*
X0030488Y0018431D02*
X0030370D01*
Y0016069D01*
X0030488D01*
X0003075Y0019825D02*
X0001925D01*
Y0019180D01*
X0003075D01*
Y0019825D01*
X0023425Y0025075D02*
Y0023925D01*
X0024070D01*
Y0025075D01*
X0023425D01*
X0020175Y0023075D02*
Y0021925D01*
X0020820D01*
Y0023075D01*
X0020175D01*
X0038691Y0026919D02*
Y0027455D01*
X0037313D02*
X0037077D01*
Y0026919D01*
Y0024581D02*
Y0024045D01*
X0037313D01*
X0038691D01*
X0037313Y0024581D02*
Y0024045D01*
X0039718Y0024884D02*
Y0026616D01*
X0039250D01*
X0038673D01*
Y0026679D01*
X0037811D01*
Y0025805D01*
X0038673D01*
Y0026274D01*
X0038783D01*
Y0025226D01*
X0038673D01*
Y0025695D01*
X0037811D01*
Y0025337D01*
X0037689D01*
Y0025695D01*
X0036827D01*
Y0024821D01*
X0038673D01*
Y0024884D01*
X0039250D01*
X0039718D01*
X0038691Y0024581D02*
Y0024045D01*
X0038927D01*
Y0024581D01*
X0036573D01*
Y0026919D01*
X0038927D01*
Y0027455D01*
X0038691D01*
X0037313D01*
Y0026919D01*
X0037324Y0026308D02*
X0037383Y0026367D01*
X0037133D01*
Y0026117D01*
X0037192Y0026176D01*
X0037324D01*
Y0026308D01*
X0037192D01*
Y0026176D01*
X0037383Y0026367D02*
Y0026117D01*
X0037324Y0026176D01*
X0038308Y0026308D02*
X0038367Y0026367D01*
Y0026117D01*
X0038308Y0026176D01*
Y0026308D01*
X0038176D01*
X0038117Y0026367D01*
Y0026117D01*
X0038176Y0026176D01*
Y0026308D01*
X0037133Y0026117D02*
X0037383D01*
X0038117D02*
X0038367D01*
X0038308Y0026176D02*
X0038176D01*
X0038117Y0026367D02*
X0038367D01*
X0037811Y0024821D02*
Y0025100D01*
X0037689D01*
Y0025337D01*
G01X0015501Y0000350D02*
G03X0015901Y0000750I0000000J0000400D01*
G01X0015101D02*
G03X0015501Y0000350I0000400J0000000D01*
Y0001150D02*
G03X0015101Y0000750I0000000J0000400D01*
G01X0015901D02*
G03X0015501Y0001150I0000400J0000000D01*
G01X0005496Y0001222D02*
G03X0005041Y0000875I0000000J0000472D01*
G01X0005969Y0000750D02*
G03X0005496Y0001223I0000473J0000000D01*
Y0000277D02*
G03X0005969Y0000750I0000000J0000473D01*
G01X0005040Y0000629D02*
G03X0005496Y0000278I0000456J0000121D01*
G01X0005024Y0000750D02*
G03X0005040Y0000629I0000472J0000000D01*
G01X0005041Y0000875D02*
G03X0005024Y0000750I0000455J0000125D01*
G01X0005496Y0000350D02*
G03X0005896Y0000750I0000000J0000400D01*
G01X0005096D02*
G03X0005496Y0000350I0000400J0000000D01*
Y0001150D02*
G03X0005096Y0000750I0000000J0000400D01*
G01X0005897D02*
G03X0005496Y0001151I0000401J0000000D01*
G01X0040053Y0026695D02*
G03X0039974Y0026774I0000079J0000000D01*
G01X0039980Y0024730D02*
G03X0040050Y0024800I0000010J0000080D01*
G01X0032159Y0018578D02*
G03X0032209Y0018628I0000000J0000050D01*
G01X0032110D02*
G03X0032159Y0018579I0000049J0000000D01*
Y0018677D02*
G03X0032110Y0018628I0000000J0000049D01*
G01X0032209D02*
G03X0032159Y0018678I0000050J0000000D01*
G01X0005250Y0024130D02*
G03X0005378Y0024258I0000000J0000128D01*
G01X0005122D02*
G03X0005250Y0024130I0000128J0000000D01*
G01X0003216Y0024159D02*
G03X0003344Y0024258I0000000J0000133D01*
G01X0003088D02*
G03X0003216Y0024160I0000128J0000034D01*
G01X0007283Y0024159D02*
G03X0007411Y0024258I0000000J0000133D01*
G01X0007155D02*
G03X0007283Y0024160I0000128J0000034D01*
G01X0007090Y0011390D02*
G03X0007150Y0011450I0000000J0000060D01*
G01X0007030D02*
G03X0007090Y0011390I0000060J0000000D01*
Y0011510D02*
G03X0007030Y0011450I0000000J0000060D01*
G01X0007150D02*
G03X0007090Y0011510I0000060J0000000D01*
G01X0042613Y0018740D02*
G03X0042731Y0018858I0000000J0000118D01*
G01X0040269D02*
G03X0040387Y0018740I0000118J0000000D01*
Y0019760D02*
G03X0040268Y0019641I0000000J0000119D01*
G01X0042731D02*
G03X0042613Y0019759I0000118J0000000D01*
G01X0028860Y0024008D02*
G03X0028879Y0024027I0000000J0000019D01*
G01X0028880Y0024972D02*
G03X0028860Y0024992I0000020J0000000D01*
G01X0027640D02*
G03X0027620Y0024972I0000000J0000020D01*
Y0024027D02*
G03X0027640Y0024007I0000020J0000000D01*
G01X0007550Y0012030D02*
G03X0007610Y0012090I0000000J0000060D01*
G01X0007490D02*
G03X0007550Y0012030I0000060J0000000D01*
Y0012150D02*
G03X0007490Y0012090I0000000J0000060D01*
G01X0007610D02*
G03X0007550Y0012150I0000060J0000000D01*
G01X0015972Y0000752D02*
G03X0015957Y0000873I0000472J0000000D01*
Y0000631D02*
G03X0015973Y0000752I0000457J0000121D01*
G01X0017374Y-0000342D02*
G03X0017279Y-0000174I0000197J0000000D01*
G01X0017177Y-0000539D02*
G03X0017374Y-0000342I0000000J0000197D01*
G01X0017092Y-0000520D02*
G03X0017177Y-0000539I0000085J0000178D01*
G01X0016567Y-0000269D02*
G03X0016482Y-0000250I0000085J0000178D01*
G03X0016285Y-0000447I0000000J0000197D01*
G03X0016366Y-0000606I0000197J0000000D01*
G01X0017374Y-0001551D02*
G03X0017279Y-0001383I0000197J0000000D01*
G01X0017177Y-0001748D02*
G03X0017374Y-0001551I0000000J0000197D01*
G01X0017034Y-0001686D02*
G03X0017177Y-0001748I0000143J0000135D01*
G01X0015985Y-0000889D02*
G03X0015866Y-0000849I0000119J0000157D01*
G03X0015669Y-0001046I0000000J0000197D01*
G01X0015521Y-0001748D02*
G03X0015718Y-0001551I0000000J0000197D01*
G01X0015337Y-0001620D02*
G03X0015521Y-0001748I0000184J0000069D01*
G01X0014796Y-0000184D02*
G03X0014520Y0000007I0000276J0000104D01*
G03X0014225Y-0000288I0000000J0000295D01*
G01X0013941Y-0001748D02*
G03X0014138Y-0001551I0000000J0000197D01*
G01X0013744D02*
G03X0013941Y-0001748I0000197J0000000D01*
G01X0007059D02*
G03X0007256Y-0001551I0000000J0000197D01*
G01X0006862D02*
G03X0007059Y-0001748I0000197J0000000D01*
G01X0006776Y-0000288D02*
G03X0006480Y0000008I0000296J0000000D01*
Y0000007D02*
G03X0006204Y-0000184I0000000J0000295D01*
G01X0005478Y-0001748D02*
G03X0005663Y-0001620I0000000J0000197D01*
G01X0005282Y-0001551D02*
G03X0005478Y-0001747I0000196J0000000D01*
G01X0005331Y-0001046D02*
G03X0005134Y-0000849I0000197J0000000D01*
G03X0005015Y-0000889I0000000J0000197D01*
G01X0003823Y-0001748D02*
G03X0003966Y-0001686I0000000J0000197D01*
G01X0003626Y-0001551D02*
G03X0003823Y-0001748I0000197J0000000D01*
G01X0003720Y-0001383D02*
G03X0003626Y-0001551I0000103J0000168D01*
G01X0004634Y-0000606D02*
G03X0004715Y-0000447I0000116J0000159D01*
G03X0004518Y-0000250I0000197J0000000D01*
G03X0004433Y-0000269I0000000J0000197D01*
G01X0003823Y-0000539D02*
G03X0003907Y-0000520I0000000J0000197D01*
G01X0003626Y-0000342D02*
G03X0003823Y-0000539I0000197J0000000D01*
G01X0003720Y-0000174D02*
G03X0003626Y-0000342I0000103J0000168D01*
G01X0005027Y0000752D02*
G03X0005043Y0000631I0000473J0000000D01*
Y0000873D02*
G03X0005027Y0000752I0000457J0000121D01*
G01X0003626Y0001846D02*
G03X0003720Y0001678I0000197J0000000D01*
G01X0003823Y0002043D02*
G03X0003626Y0001846I0000000J0000197D01*
G01X0003907Y0002024D02*
G03X0003823Y0002043I0000084J0000178D01*
G01X0004433Y0001774D02*
G03X0004518Y0001755I0000085J0000177D01*
G03X0004714Y0001951I0000000J0000196D01*
G01X0004715D02*
G03X0004634Y0002110I0000197J0000000D01*
G01X0003626Y0003055D02*
G03X0003720Y0002887I0000197J0000000D01*
G01X0003823Y0003252D02*
G03X0003626Y0003055I0000000J0000197D01*
G01X0003966Y0003190D02*
G03X0003823Y0003252I0000143J0000135D01*
G01X0005015Y0002394D02*
G03X0005134Y0002354I0000119J0000157D01*
G03X0005331Y0002551I0000000J0000197D01*
G01X0005478Y0003252D02*
G03X0005281Y0003055I0000000J0000197D01*
G01X0005663Y0003125D02*
G03X0005478Y0003253I0000185J0000070D01*
G01X0006204Y0001688D02*
G03X0006480Y0001498I0000276J0000105D01*
Y0001497D02*
G03X0006776Y0001793I0000000J0000296D01*
G01X0007059Y0003252D02*
G03X0006862Y0003055I0000000J0000197D01*
G01X0007256D02*
G03X0007059Y0003252I0000197J0000000D01*
G01X0013941D02*
G03X0013744Y0003055I0000000J0000197D01*
G01X0014138D02*
G03X0013941Y0003252I0000197J0000000D01*
G01X0014224Y0001793D02*
G03X0014520Y0001497I0000296J0000000D01*
G03X0014796Y0001688I0000000J0000296D01*
G01X0015521Y0003252D02*
G03X0015337Y0003125I0000000J0000197D01*
G01X0015718Y0003055D02*
G03X0015521Y0003252I0000197J0000000D01*
G01X0015669Y0002551D02*
G03X0015866Y0002354I0000197J0000000D01*
G03X0015985Y0002394I0000000J0000197D01*
G01X0017177Y0003252D02*
G03X0017034Y0003190I0000000J0000197D01*
G01X0017374Y0003055D02*
G03X0017177Y0003252I0000197J0000000D01*
G01X0017279Y0002887D02*
G03X0017374Y0003055I0000102J0000168D01*
G01X0016366Y0002110D02*
G03X0016285Y0001951I0000116J0000159D01*
G03X0016482Y0001754I0000197J0000000D01*
Y0001755D02*
G03X0016567Y0001774I0000000J0000196D01*
G01X0017177Y0002043D02*
G03X0017092Y0002024I0000000J0000197D01*
G01X0017374Y0001846D02*
G03X0017177Y0002043I0000197J0000000D01*
G01X0017279Y0001678D02*
G03X0017374Y0001846I0000102J0000168D01*
G01X0015974Y0000750D02*
G03X0015957Y0000873I0000473J0000000D01*
G01X0015958Y0000630D02*
G03X0015973Y0000750I0000457J0000120D01*
G01X0015501Y0000277D02*
G03X0015958Y0000630I0000000J0000473D01*
G01X0015029Y0000750D02*
G03X0015501Y0000278I0000472J0000000D01*
Y0001222D02*
G03X0015029Y0000750I0000000J0000472D01*
G01X0015957Y0000873D02*
G03X0015501Y0001222I0000456J0000123D01*
G01X0013409Y0008114D02*
G03X0013480Y0008185I0000000J0000071D01*
G01X0013338D02*
G03X0013409Y0008114I0000071J0000000D01*
Y0008256D02*
G03X0013338Y0008185I0000000J0000071D01*
G01X0013480D02*
G03X0013409Y0008256I0000071J0000000D01*
G01X0038521Y0003898D02*
G03X0038580Y0003839I0000059J0000000D01*
G01X0039388Y0002106D02*
G03X0039447Y0002047I0000059J0000000D01*
G01X0043265D02*
G03X0043324Y0002106I0000000J0000059D01*
G01X0043325Y0007893D02*
G03X0043265Y0007953I0000060J0000000D01*
G01X0039447D02*
G03X0039387Y0007893I0000000J0000060D01*
G01X0038104Y0003771D02*
G03X0038401Y0003474I0000297J0000000D01*
Y0006535D02*
G03X0038104Y0006238I0000000J0000297D01*
G01X0038580Y0006161D02*
G03X0038521Y0006102I0000000J0000059D01*
G01X0038699Y0005437D02*
G03X0038640Y0005496I0000059J0000000D01*
Y0004504D02*
G03X0038699Y0004563I0000000J0000059D01*
G01X0015750Y0019350D02*
G03X0015800Y0019400I0000000J0000050D01*
G01X0015700D02*
G03X0015750Y0019350I0000050J0000000D01*
Y0019450D02*
G03X0015700Y0019400I0000000J0000050D01*
G01X0015800D02*
G03X0015750Y0019450I0000050J0000000D01*
G01X0024750Y0025601D02*
G03X0024832Y0025519I0000082J0000000D01*
Y0025683D02*
G03X0024750Y0025601I0000000J0000082D01*
G01X0024914D02*
G03X0024832Y0025683I0000082J0000000D01*
Y0025519D02*
G03X0024914Y0025601I0000000J0000082D01*
G01X0036053Y0026695D02*
G03X0035974Y0026774I0000079J0000000D01*
G01X0035980Y0024730D02*
G03X0036050Y0024800I0000010J0000080D01*
G01X0040051Y0014789D02*
G03X0040122Y0014860I0000000J0000071D01*
G01X0039980D02*
G03X0040051Y0014789I0000071J0000000D01*
Y0014931D02*
G03X0039980Y0014860I0000000J0000071D01*
G01X0040122D02*
G03X0040051Y0014931I0000071J0000000D01*
G01X0011659Y0008114D02*
G03X0011730Y0008185I0000000J0000071D01*
G01X0011588D02*
G03X0011659Y0008114I0000071J0000000D01*
Y0008256D02*
G03X0011588Y0008185I0000000J0000071D01*
G01X0011730D02*
G03X0011659Y0008256I0000071J0000000D01*
G01X0018081Y0010695D02*
G03X0018004Y0010618I0000003J0000080D01*
G01X0018081Y0010673D02*
G03X0018004Y0010618I0000000J0000082D01*
G01X0018109Y0010514D02*
G03X0018032Y0010458I0000000J0000082D01*
Y0007910D02*
G03X0018109Y0007833I0000080J0000003D01*
G01X0021891D02*
G03X0021968Y0007910I0000003J0000080D01*
G01X0021997Y0010618D02*
G03X0021919Y0010695I0000081J0000003D01*
G01X0017972Y0007852D02*
G03X0018050Y0007774I0000079J0000000D01*
G01X0017972Y0007851D02*
G03X0018050Y0007773I0000078J0000000D01*
G01X0021919Y0007826D02*
G03X0021997Y0007882I0000000J0000083D01*
G01X0021891Y0007986D02*
G03X0021968Y0008042I0000000J0000082D01*
G01X0036159Y0020149D02*
G03X0036238Y0020070I0000079J0000000D01*
G01X0036434Y0019696D02*
G03X0036431Y0019755I0000629J0000000D01*
G01X0035805Y0019068D02*
G03X0036433Y0019696I0000000J0000628D01*
G01X0035176D02*
G03X0035805Y0019067I0000629J0000000D01*
Y0020325D02*
G03X0035176Y0019696I0000000J0000629D01*
G01X0036142Y0021762D02*
G03X0036238Y0021745I0000096J0000258D01*
G01X0035821Y0021882D02*
G03X0035766Y0021892I0000055J0000148D01*
G03X0035618Y0021789I0000000J0000158D01*
G03X0035608Y0021734I0000148J0000055D01*
G03X0035711Y0021587I0000158J0000000D01*
G01X0036031Y0021467D02*
G03X0036238Y0021430I0000207J0000553D01*
G01X0037262Y0021429D02*
G03X0037468Y0021467I0000000J0000591D01*
G01X0037789Y0021587D02*
G03X0037891Y0021734I0000055J0000147D01*
G01X0037892D02*
G03X0037734Y0021892I0000158J0000000D01*
G03X0037679Y0021882I0000000J0000158D01*
G01X0037262Y0021744D02*
G03X0037358Y0021762I0000000J0000276D01*
G01X0037069Y0021744D02*
G03X0037071Y0021723I0000626J0000059D01*
G03X0037081Y0021665I0000624J0000080D01*
G01X0035767Y0021049D02*
G03X0035800Y0021050I0000000J0000718D01*
G01X0035049Y0021767D02*
G03X0035767Y0021049I0000718J0000000D01*
G01X0035050Y0021800D02*
G03X0035049Y0021767I0000717J0000033D01*
G01X0035805Y0022557D02*
G03X0035051Y0021803I0000000J0000754D01*
G01X0036559D02*
G03X0035805Y0022557I0000754J0000000D01*
G01X0036559Y0021790D02*
G03X0036559Y0021803I0000754J0000013D01*
G01X0035805Y0018943D02*
G03X0036558Y0019696I0000000J0000753D01*
G01X0035051D02*
G03X0035805Y0018942I0000754J0000000D01*
Y0020450D02*
G03X0035051Y0019696I0000000J0000754D01*
G01X0037340Y0021351D02*
G03X0037262Y0021429I0000078J0000000D01*
G01X0036238Y0019755D02*
G03X0036142Y0019738I0000000J0000275D01*
G01X0035766Y0019608D02*
G03X0035821Y0019618I0000000J0000158D01*
G01X0035618Y0019711D02*
G03X0035766Y0019608I0000148J0000055D01*
G01X0035608Y0019766D02*
G03X0035618Y0019711I0000158J0000000D01*
G01X0035711Y0019913D02*
G03X0035609Y0019766I0000055J0000147D01*
G01X0036238Y0020070D02*
G03X0036031Y0020033I0000000J0000590D01*
G01X0035176Y0021803D02*
G03X0035805Y0021174I0000629J0000000D01*
Y0022432D02*
G03X0035176Y0021803I0000000J0000629D01*
G01X0036434D02*
G03X0035805Y0022432I0000629J0000000D01*
G01X0036431Y0021744D02*
G03X0036434Y0021803I0000626J0000059D01*
G01X0037066D02*
G03X0037069Y0021744I0000629J0000000D01*
G01X0037695Y0022432D02*
G03X0037066Y0021803I0000000J0000629D01*
G01X0038324D02*
G03X0037695Y0022432I0000629J0000000D01*
Y0021175D02*
G03X0038323Y0021803I0000000J0000628D01*
G01X0038324Y0019696D02*
G03X0037695Y0020325I0000629J0000000D01*
Y0019068D02*
G03X0038323Y0019696I0000000J0000628D01*
G01X0037066D02*
G03X0037695Y0019067I0000629J0000000D01*
G01X0037069Y0019755D02*
G03X0037066Y0019696I0000626J0000059D01*
G01X0037071Y0019777D02*
G03X0037069Y0019755I0000624J0000081D01*
G01X0036950Y0021831D02*
G03X0036950Y0021800I0000726J0000000D01*
G01X0037676Y0022557D02*
G03X0036950Y0021831I0000000J0000726D01*
G01X0037695Y0022557D02*
G03X0037676Y0022557I0000019J0000726D01*
G01X0038449Y0021803D02*
G03X0037695Y0022557I0000754J0000000D01*
Y0021050D02*
G03X0038448Y0021803I0000000J0000753D01*
G01X0038449Y0019696D02*
G03X0037695Y0020450I0000754J0000000D01*
Y0018943D02*
G03X0038448Y0019696I0000000J0000753D01*
G01X0036941D02*
G03X0037695Y0018942I0000754J0000000D01*
G01X0036941Y0019710D02*
G03X0036941Y0019696I0000754J0000014D01*
G01X0037358Y0019738D02*
G03X0037262Y0019755I0000096J0000258D01*
G01X0037679Y0019618D02*
G03X0037734Y0019608I0000055J0000148D01*
G03X0037892Y0019766I0000000J0000158D01*
G03X0037789Y0019913I0000158J0000000D01*
G01X0037468Y0020033D02*
G03X0037262Y0020070I0000206J0000553D01*
G03X0037341Y0020149I0000000J0000079D01*
G01X0032703Y0020854D02*
G03X0032252Y0020966I0000451J0000853D01*
G01X0032709Y0020866D02*
G03X0032252Y0020979I0000457J0000864D01*
G01X0031283Y0019997D02*
G03X0031394Y0019548I0000963J0000000D01*
G01X0031283Y0019999D02*
G03X0031283Y0019997I0000963J0000002D01*
G01X0031270Y0019998D02*
G03X0031270Y0019997I0000977J0000001D01*
G03X0031382Y0019542I0000977J0000000D01*
G01X0031350Y0020962D02*
G03X0031287Y0020894I0000005J0000068D01*
G01X0031355Y0020983D02*
G03X0031266Y0020894I0000000J0000089D01*
G01X0031355Y0020979D02*
G03X0031270Y0020895I0000000J0000085D01*
G01X0031349Y0020966D02*
G03X0031283Y0020899I0000006J0000072D01*
G01X0031836Y0020820D02*
G03X0031420Y0020395I0000416J0000824D01*
G01X0031849Y0020812D02*
G03X0031432Y0020389I0000404J0000816D01*
G01X0031477Y0019621D02*
G03X0031561Y0019483I0000772J0000376D01*
G01X0031637Y0019509D02*
G03X0031561Y0019483I0000000J0000124D01*
G01X0031761Y0019385D02*
G03X0031637Y0019509I0000124J0000000D01*
G01X0031730Y0019304D02*
G03X0031760Y0019385I0000093J0000081D01*
G01X0031720Y0019312D02*
G03X0031748Y0019385I0000083J0000073D01*
G03X0031637Y0019496I0000111J0000000D01*
G03X0031559Y0019464I0000000J0000111D01*
G01X0031466Y0019614D02*
G03X0031559Y0019464I0000786J0000385D01*
G01X0031721Y0019303D02*
G03X0031866Y0019214I0000527J0000692D01*
G01X0031729Y0019313D02*
G03X0031888Y0019218I0000523J0000689D01*
G01X0031270Y0019443D02*
G03X0031269Y0019416I0000398J0000027D01*
G03X0031668Y0019017I0000399J0000000D01*
G03X0031695Y0019018I0000000J0000399D01*
G01X0031668Y0019031D02*
G03X0031676Y0019031I0000000J0000385D01*
G01X0031283Y0019416D02*
G03X0031668Y0019031I0000385J0000000D01*
G01X0031283Y0019425D02*
G03X0031283Y0019416I0000385J0000009D01*
G01X0031668Y0019024D02*
G03X0031686Y0019025I0000000J0000392D01*
G01X0031276Y0019416D02*
G03X0031668Y0019024I0000392J0000000D01*
G01X0031277Y0019434D02*
G03X0031277Y0019416I0000391J0000018D01*
G01X0032833Y0020972D02*
G03X0032815Y0020972I0000000J0000391D01*
G01X0033224Y0020581D02*
G03X0032833Y0020972I0000391J0000000D01*
G01X0033224Y0020563D02*
G03X0033224Y0020581I0000391J0000018D01*
G01X0032833Y0020966D02*
G03X0032824Y0020966I0000000J0000385D01*
G01X0033218Y0020581D02*
G03X0032833Y0020966I0000385J0000000D01*
G01X0033218Y0020573D02*
G03X0033218Y0020581I0000385J0000008D01*
G01X0033230Y0020553D02*
G03X0033231Y0020580I0000398J0000027D01*
G03X0032832Y0020979I0000399J0000000D01*
G03X0032806Y0020978I0000000J0000399D01*
G01X0032864Y0020488D02*
G03X0032940Y0020514I0000000J0000124D01*
G01X0032864Y0020488D02*
G03X0032945Y0020519I0000000J0000124D01*
G01X0032740Y0020612D02*
G03X0032864Y0020488I0000124J0000000D01*
G01X0032766Y0020688D02*
G03X0032740Y0020612I0000098J0000076D01*
G01X0032766Y0020688D02*
G03X0032613Y0020779I0000516J0000692D01*
G01X0033031Y0020361D02*
G03X0032936Y0020520I0000771J0000357D01*
G01X0033035Y0020383D02*
G03X0032946Y0020528I0000776J0000379D01*
G01X0032785Y0020690D02*
G03X0032635Y0020783I0000535J0000694D01*
G01X0032785Y0020690D02*
G03X0032753Y0020612I0000079J0000078D01*
G03X0032864Y0020501I0000111J0000000D01*
G03X0032937Y0020529I0000000J0000111D01*
G01X0033112Y0019998D02*
G03X0032940Y0020514I0000861J0000000D01*
G01X0032251Y0019137D02*
G03X0033112Y0019998I0000000J0000861D01*
G01X0031735Y0019309D02*
G03X0032251Y0019137I0000516J0000689D01*
G01X0031735Y0019309D02*
G03X0031761Y0019385I0000098J0000076D01*
G03X0031637Y0019509I0000124J0000000D01*
G03X0031556Y0019478I0000000J0000124D01*
G01X0031637Y0019496D02*
G03X0031564Y0019468I0000000J0000111D01*
G01X0031748Y0019385D02*
G03X0031637Y0019496I0000111J0000000D01*
G01X0031716Y0019307D02*
G03X0031748Y0019385I0000079J0000078D01*
G01X0031716Y0019307D02*
G03X0032250Y0019125I0000534J0000692D01*
Y0019124D02*
G03X0033125Y0019999I0000000J0000875D01*
G03X0032942Y0020533I0000875J0000000D01*
G01X0032864Y0020501D02*
G03X0032942Y0020533I0000000J0000111D01*
G01X0032753Y0020612D02*
G03X0032864Y0020501I0000111J0000000D01*
G01X0032785Y0020690D02*
G03X0032753Y0020612I0000079J0000078D01*
G01X0032785Y0020690D02*
G03X0032251Y0020872I0000534J0000691D01*
Y0020873D02*
G03X0031377Y0019999I0000000J0000874D01*
G01X0031376D02*
G03X0031555Y0019470I0000875J0000000D01*
G01X0031389Y0019999D02*
G03X0031565Y0019477I0000861J0000000D01*
G01X0032250Y0020860D02*
G03X0031389Y0019999I0000000J0000861D01*
G01X0032766Y0020688D02*
G03X0032250Y0020860I0000516J0000689D01*
G01X0032766Y0020688D02*
G03X0032740Y0020612I0000098J0000076D01*
G01X0022159Y0018828D02*
G03X0022209Y0018878I0000000J0000050D01*
G01X0022110D02*
G03X0022159Y0018829I0000049J0000000D01*
Y0018927D02*
G03X0022110Y0018878I0000000J0000049D01*
G01X0022209D02*
G03X0022159Y0018928I0000050J0000000D01*
G01X0005050Y0021908D02*
G03X0004892Y0021750I0000000J0000158D01*
G03X0005050Y0021592I0000158J0000000D01*
G03X0005208Y0021750I0000000J0000158D01*
G03X0005050Y0021908I0000158J0000000D01*
G01X0026659Y0018578D02*
G03X0026709Y0018628I0000000J0000050D01*
G01X0026610D02*
G03X0026659Y0018579I0000049J0000000D01*
Y0018677D02*
G03X0026610Y0018628I0000000J0000049D01*
G01X0026709D02*
G03X0026659Y0018678I0000050J0000000D01*
G01X0019250Y0019350D02*
G03X0019300Y0019400I0000000J0000050D01*
G01X0019200D02*
G03X0019250Y0019350I0000050J0000000D01*
Y0019450D02*
G03X0019200Y0019400I0000000J0000050D01*
G01X0019300D02*
G03X0019250Y0019450I0000050J0000000D01*
G01X0030409Y0018578D02*
G03X0030459Y0018628I0000000J0000050D01*
G01X0030360D02*
G03X0030409Y0018579I0000049J0000000D01*
Y0018677D02*
G03X0030360Y0018628I0000000J0000049D01*
G01X0030459D02*
G03X0030409Y0018678I0000050J0000000D01*
G54D77*
G01X0027895Y-0000292D02*
X0027562D01*
X0027895Y-0000542D02*
Y-0000042D01*
X0027562Y-0000542D02*
Y-0000042D01*
X0027360Y-0000458D02*
X0027318Y-0000542D01*
X0027068D01*
X0027027Y-0000458D01*
Y-0000125D01*
X0027068Y-0000042D01*
X0027318D01*
X0027360Y-0000125D01*
X0026825D02*
X0026783Y-0000042D01*
X0026533D01*
X0026492Y-0000125D01*
Y-0000208D01*
X0026533Y-0000292D01*
X0026783D01*
X0026825Y-0000375D01*
Y-0000458D01*
X0026783Y-0000542D01*
X0026533D01*
X0026492Y-0000458D01*
X0027763Y0000858D02*
Y0001108D01*
X0027930Y0001358D02*
X0027805Y0001108D01*
X0027722D01*
X0027597Y0001358D01*
X0027395Y0001275D02*
X0027353Y0001358D01*
X0027103D01*
X0027062Y0001275D01*
Y0001192D01*
X0027103Y0001108D01*
X0027353D01*
X0027395Y0001025D01*
Y0000942D01*
X0027353Y0000858D01*
X0027103D01*
X0027062Y0000942D01*
X0026860Y0001275D02*
X0026818Y0001358D01*
X0026568D01*
X0026527Y0001275D01*
Y0001192D01*
X0026568Y0001108D01*
X0026818D01*
X0026860Y0001025D01*
Y0000942D01*
X0026818Y0000858D01*
X0026568D01*
X0026527Y0000942D01*
X0026325Y0001025D02*
X0025992D01*
X0026325Y0000858D02*
Y0001108D01*
X0026200Y0001358D01*
X0026117D01*
X0025992Y0001108D01*
Y0000858D01*
X0004217Y0021663D02*
Y0021770D01*
Y0021717D02*
X0004617D01*
X0004550Y0021770D01*
X0008500Y0001250D02*
Y0002750D01*
X0008750Y0003000D01*
X0012250D01*
X0012500Y0002750D01*
Y0001250D01*
X0008500D01*
Y0001650D02*
X0012500D01*
X0009512D02*
Y0001069D01*
X0009440Y0001650D02*
Y0001069D01*
X0009368Y0001650D02*
Y0001069D01*
X0009296Y0001650D02*
Y0001069D01*
X0009224Y0001650D02*
Y0001069D01*
X0009152Y0001650D02*
Y0001069D01*
X0009080Y0001650D02*
Y0001069D01*
X0009008Y0001650D02*
Y0001069D01*
X0008936Y0001650D02*
Y0001069D01*
X0008864Y0001650D02*
Y0001069D01*
X0008792Y0001650D02*
Y0001069D01*
X0008720Y0001650D02*
Y0001069D01*
X0008648Y0001650D02*
Y0001069D01*
X0008576Y0001650D02*
Y0001069D01*
X0012500Y0001577D02*
X0008500D01*
X0012500Y0001505D02*
X0008500D01*
X0012500Y0001433D02*
X0008500D01*
X0012500Y0001361D02*
X0008500D01*
X0012500Y0001289D02*
X0008500D01*
X0012500Y0001217D02*
X0008500D01*
X0012500Y0001145D02*
X0008500D01*
X0011168Y0001650D02*
Y0001069D01*
X0011096Y0001650D02*
Y0001069D01*
X0011024Y0001650D02*
Y0001069D01*
X0010952Y0001650D02*
Y0001069D01*
X0010880Y0001650D02*
Y0001069D01*
X0010808Y0001650D02*
Y0001069D01*
X0010736Y0001650D02*
Y0001069D01*
X0010664Y0001650D02*
Y0001069D01*
X0010592Y0001650D02*
Y0001069D01*
X0010520Y0001650D02*
Y0001069D01*
X0010448Y0001650D02*
Y0001069D01*
X0010376Y0001650D02*
Y0001069D01*
X0010304Y0001650D02*
Y0001069D01*
X0010232Y0001650D02*
Y0001069D01*
X0010160Y0001650D02*
Y0001069D01*
X0010088Y0001650D02*
Y0001069D01*
X0010016Y0001650D02*
Y0001069D01*
X0009944Y0001650D02*
Y0001069D01*
X0009872Y0001650D02*
Y0001069D01*
X0009800Y0001650D02*
Y0001069D01*
X0009728Y0001650D02*
Y0001069D01*
X0009656Y0001650D02*
Y0001069D01*
X0009584Y0001650D02*
Y0001069D01*
X0012500Y0001650D02*
Y0001069D01*
X0008500D01*
Y0001650D02*
Y0001069D01*
X0012500Y0001650D02*
X0008500D01*
X0012464D02*
Y0001069D01*
X0012392Y0001650D02*
Y0001069D01*
X0012320Y0001650D02*
Y0001069D01*
X0012248Y0001650D02*
Y0001069D01*
X0012176Y0001650D02*
Y0001069D01*
X0012104Y0001650D02*
Y0001069D01*
X0012032Y0001650D02*
Y0001069D01*
X0011960Y0001650D02*
Y0001069D01*
X0011888Y0001650D02*
Y0001069D01*
X0011816Y0001650D02*
Y0001069D01*
X0011744Y0001650D02*
Y0001069D01*
X0011672Y0001650D02*
Y0001069D01*
X0011600Y0001650D02*
Y0001069D01*
X0011528Y0001650D02*
Y0001069D01*
X0011456Y0001650D02*
Y0001069D01*
X0011384Y0001650D02*
Y0001069D01*
X0011312Y0001650D02*
Y0001069D01*
X0011240Y0001650D02*
Y0001069D01*
G01X0019500Y0001926D02*
G03X0021074Y0003500I0000000J0001574D01*
G01X0017926D02*
G03X0019500Y0001926I0001574J0000000D01*
Y0005074D02*
G03X0017926Y0003500I0000000J0001574D01*
G01X0021074D02*
G03X0019500Y0005074I0001574J0000000D01*
Y-0001574D02*
G03X0021074Y0000000I0000000J0001574D01*
G01X0017926D02*
G03X0019500Y-0001574I0001574J0000000D01*
Y0001574D02*
G03X0017926Y0000000I0000000J0001574D01*
G01X0021074D02*
G03X0019500Y0001574I0001574J0000000D01*
G54D81*
G01X0017500Y0003450D02*
Y0003250D01*
Y0003450D02*
X0017300D01*
Y0003550D02*
Y0003450D01*
X0017500Y0003550D02*
X0017300D01*
X0017500Y0003750D02*
Y0003550D01*
X0017600Y0003750D02*
X0017500D01*
X0017600D02*
Y0003550D01*
X0017800D02*
X0017600D01*
X0017800D02*
Y0003450D01*
X0017600D01*
Y0003250D01*
X0017500D01*
X0017790Y0003550D02*
Y0003450D01*
X0017781Y0003550D02*
Y0003450D01*
X0017772Y0003550D02*
Y0003450D01*
X0017763Y0003550D02*
Y0003450D01*
X0017754Y0003550D02*
Y0003450D01*
X0017745Y0003550D02*
Y0003450D01*
X0017736Y0003550D02*
Y0003450D01*
X0017727Y0003550D02*
Y0003450D01*
X0017718Y0003550D02*
Y0003450D01*
X0017709Y0003550D02*
Y0003450D01*
X0017700Y0003550D02*
Y0003450D01*
X0017691Y0003550D02*
Y0003450D01*
X0017682Y0003550D02*
Y0003450D01*
X0017673Y0003550D02*
Y0003450D01*
X0017664Y0003550D02*
Y0003450D01*
X0017655Y0003550D02*
Y0003450D01*
X0017646Y0003550D02*
Y0003450D01*
X0017637Y0003550D02*
Y0003450D01*
X0017628Y0003550D02*
Y0003450D01*
X0017619Y0003550D02*
Y0003450D01*
X0017610Y0003550D02*
Y0003450D01*
X0017601Y0003750D02*
Y0003450D01*
X0017592Y0003750D02*
Y0003250D01*
X0017583Y0003750D02*
Y0003250D01*
X0017574Y0003750D02*
Y0003250D01*
X0017565Y0003750D02*
Y0003250D01*
X0017556Y0003750D02*
Y0003250D01*
X0017547Y0003750D02*
Y0003250D01*
X0017538Y0003750D02*
Y0003250D01*
X0017529Y0003750D02*
Y0003250D01*
X0017520Y0003750D02*
Y0003250D01*
X0017511Y0003750D02*
Y0003250D01*
X0017502Y0003750D02*
Y0003250D01*
X0017493Y0003550D02*
Y0003450D01*
X0017484Y0003550D02*
Y0003450D01*
X0017475Y0003550D02*
Y0003450D01*
X0017466Y0003550D02*
Y0003450D01*
X0017457Y0003550D02*
Y0003450D01*
X0017448Y0003550D02*
Y0003450D01*
X0017439Y0003550D02*
Y0003450D01*
X0017430Y0003550D02*
Y0003450D01*
X0017421Y0003550D02*
Y0003450D01*
X0017412Y0003550D02*
Y0003450D01*
X0017403Y0003550D02*
Y0003450D01*
X0017394Y0003550D02*
Y0003450D01*
X0017385Y0003550D02*
Y0003450D01*
X0017376Y0003550D02*
Y0003450D01*
X0017367Y0003550D02*
Y0003450D01*
X0017358Y0003550D02*
Y0003450D01*
X0017349Y0003550D02*
Y0003450D01*
X0017340Y0003550D02*
Y0003450D01*
X0017331Y0003550D02*
Y0003450D01*
X0017322Y0003550D02*
Y0003450D01*
X0017313Y0003550D02*
Y0003450D01*
X0017600Y0003740D02*
X0017500D01*
X0017600Y0003731D02*
X0017500D01*
X0017600Y0003722D02*
X0017500D01*
X0017600Y0003713D02*
X0017500D01*
X0017600Y0003704D02*
X0017500D01*
X0017600Y0003695D02*
X0017500D01*
X0017600Y0003686D02*
X0017500D01*
X0017600Y0003677D02*
X0017500D01*
X0017600Y0003668D02*
X0017500D01*
X0017600Y0003659D02*
X0017500D01*
X0017600Y0003650D02*
X0017500D01*
X0017600Y0003641D02*
X0017500D01*
X0017600Y0003632D02*
X0017500D01*
X0017600Y0003623D02*
X0017500D01*
X0017600Y0003614D02*
X0017500D01*
X0017600Y0003605D02*
X0017500D01*
X0017600Y0003596D02*
X0017500D01*
X0017600Y0003587D02*
X0017500D01*
X0017600Y0003578D02*
X0017500D01*
X0017600Y0003569D02*
X0017500D01*
X0017600Y0003560D02*
X0017500D01*
X0017800Y0003551D02*
X0017500D01*
X0017800Y0003542D02*
X0017300D01*
X0017800Y0003533D02*
X0017300D01*
X0017800Y0003524D02*
X0017300D01*
X0017800Y0003515D02*
X0017300D01*
X0017800Y0003506D02*
X0017300D01*
X0017800Y0003497D02*
X0017300D01*
X0017800Y0003488D02*
X0017300D01*
X0017800Y0003479D02*
X0017300D01*
X0017800Y0003470D02*
X0017300D01*
X0017800Y0003461D02*
X0017300D01*
X0017800Y0003452D02*
X0017300D01*
X0017600Y0003443D02*
X0017500D01*
X0017600Y0003434D02*
X0017500D01*
X0017600Y0003425D02*
X0017500D01*
X0017600Y0003416D02*
X0017500D01*
X0017600Y0003407D02*
X0017500D01*
X0017600Y0003398D02*
X0017500D01*
X0017600Y0003389D02*
X0017500D01*
X0017600Y0003380D02*
X0017500D01*
X0017600Y0003371D02*
X0017500D01*
X0017600Y0003362D02*
X0017500D01*
X0017600Y0003353D02*
X0017500D01*
X0017600Y0003344D02*
X0017500D01*
X0017600Y0003335D02*
X0017500D01*
X0017600Y0003326D02*
X0017500D01*
X0017600Y0003317D02*
X0017500D01*
X0017600Y0003308D02*
X0017500D01*
X0017600Y0003299D02*
X0017500D01*
X0017600Y0003290D02*
X0017500D01*
X0017600Y0003281D02*
X0017500D01*
X0017600Y0003272D02*
X0017500D01*
X0017600Y0003263D02*
X0017500D01*
Y-0000050D02*
Y-0000250D01*
Y-0000050D02*
X0017300D01*
Y0000050D02*
Y-0000050D01*
X0017500Y0000050D02*
X0017300D01*
X0017500Y0000250D02*
Y0000050D01*
X0017600Y0000250D02*
X0017500D01*
X0017600D02*
Y0000050D01*
X0017800D02*
X0017600D01*
X0017800D02*
Y-0000050D01*
X0017600D01*
Y-0000250D01*
X0017500D01*
X0017790Y0000050D02*
Y-0000050D01*
X0017781Y0000050D02*
Y-0000050D01*
X0017772Y0000050D02*
Y-0000050D01*
X0017763Y0000050D02*
Y-0000050D01*
X0017754Y0000050D02*
Y-0000050D01*
X0017745Y0000050D02*
Y-0000050D01*
X0017736Y0000050D02*
Y-0000050D01*
X0017727Y0000050D02*
Y-0000050D01*
X0017718Y0000050D02*
Y-0000050D01*
X0017709Y0000050D02*
Y-0000050D01*
X0017700Y0000050D02*
Y-0000050D01*
X0017691Y0000050D02*
Y-0000050D01*
X0017682Y0000050D02*
Y-0000050D01*
X0017673Y0000050D02*
Y-0000050D01*
X0017664Y0000050D02*
Y-0000050D01*
X0017655Y0000050D02*
Y-0000050D01*
X0017646Y0000050D02*
Y-0000050D01*
X0017637Y0000050D02*
Y-0000050D01*
X0017628Y0000050D02*
Y-0000050D01*
X0017619Y0000050D02*
Y-0000050D01*
X0017610Y0000050D02*
Y-0000050D01*
X0017601Y0000250D02*
Y-0000050D01*
X0017592Y0000250D02*
Y-0000250D01*
X0017583Y0000250D02*
Y-0000250D01*
X0017574Y0000250D02*
Y-0000250D01*
X0017565Y0000250D02*
Y-0000250D01*
X0017556Y0000250D02*
Y-0000250D01*
X0017547Y0000250D02*
Y-0000250D01*
X0017538Y0000250D02*
Y-0000250D01*
X0017529Y0000250D02*
Y-0000250D01*
X0017520Y0000250D02*
Y-0000250D01*
X0017511Y0000250D02*
Y-0000250D01*
X0017502Y0000250D02*
Y-0000250D01*
X0017493Y0000050D02*
Y-0000050D01*
X0017484Y0000050D02*
Y-0000050D01*
X0017475Y0000050D02*
Y-0000050D01*
X0017466Y0000050D02*
Y-0000050D01*
X0017457Y0000050D02*
Y-0000050D01*
X0017448Y0000050D02*
Y-0000050D01*
X0017439Y0000050D02*
Y-0000050D01*
X0017430Y0000050D02*
Y-0000050D01*
X0017421Y0000050D02*
Y-0000050D01*
X0017412Y0000050D02*
Y-0000050D01*
X0017403Y0000050D02*
Y-0000050D01*
X0017394Y0000050D02*
Y-0000050D01*
X0017385Y0000050D02*
Y-0000050D01*
X0017376Y0000050D02*
Y-0000050D01*
X0017367Y0000050D02*
Y-0000050D01*
X0017358Y0000050D02*
Y-0000050D01*
X0017349Y0000050D02*
Y-0000050D01*
X0017340Y0000050D02*
Y-0000050D01*
X0017331Y0000050D02*
Y-0000050D01*
X0017322Y0000050D02*
Y-0000050D01*
X0017313Y0000050D02*
Y-0000050D01*
X0017600Y0000240D02*
X0017500D01*
X0017600Y0000231D02*
X0017500D01*
X0017600Y0000222D02*
X0017500D01*
X0017600Y0000213D02*
X0017500D01*
X0017600Y0000204D02*
X0017500D01*
X0017600Y0000195D02*
X0017500D01*
X0017600Y0000186D02*
X0017500D01*
X0017600Y0000177D02*
X0017500D01*
X0017600Y0000168D02*
X0017500D01*
X0017600Y0000159D02*
X0017500D01*
X0017600Y0000150D02*
X0017500D01*
X0017600Y0000141D02*
X0017500D01*
X0017600Y0000132D02*
X0017500D01*
X0017600Y0000123D02*
X0017500D01*
X0017600Y0000114D02*
X0017500D01*
X0017600Y0000105D02*
X0017500D01*
X0017600Y0000096D02*
X0017500D01*
X0017600Y0000087D02*
X0017500D01*
X0017600Y0000078D02*
X0017500D01*
X0017600Y0000069D02*
X0017500D01*
X0017600Y0000060D02*
X0017500D01*
X0017800Y0000051D02*
X0017500D01*
X0017800Y0000042D02*
X0017300D01*
X0017800Y0000033D02*
X0017300D01*
X0017800Y0000024D02*
X0017300D01*
X0017800Y0000015D02*
X0017300D01*
X0017800Y0000006D02*
X0017300D01*
X0017800Y-0000003D02*
X0017300D01*
X0017800Y-0000012D02*
X0017300D01*
X0017800Y-0000021D02*
X0017300D01*
X0017800Y-0000030D02*
X0017300D01*
X0017800Y-0000039D02*
X0017300D01*
X0017800Y-0000048D02*
X0017300D01*
X0017600Y-0000057D02*
X0017500D01*
X0017600Y-0000066D02*
X0017500D01*
X0017600Y-0000075D02*
X0017500D01*
X0017600Y-0000084D02*
X0017500D01*
X0017600Y-0000093D02*
X0017500D01*
X0017600Y-0000102D02*
X0017500D01*
X0017600Y-0000111D02*
X0017500D01*
X0017600Y-0000120D02*
X0017500D01*
X0017600Y-0000129D02*
X0017500D01*
X0017600Y-0000138D02*
X0017500D01*
X0017600Y-0000147D02*
X0017500D01*
X0017600Y-0000156D02*
X0017500D01*
X0017600Y-0000165D02*
X0017500D01*
X0017600Y-0000174D02*
X0017500D01*
X0017600Y-0000183D02*
X0017500D01*
X0017600Y-0000192D02*
X0017500D01*
X0017600Y-0000201D02*
X0017500D01*
X0017600Y-0000210D02*
X0017500D01*
X0017600Y-0000219D02*
X0017500D01*
X0017600Y-0000228D02*
X0017500D01*
X0017600Y-0000237D02*
X0017500D01*
X0003677Y0010722D02*
Y0010547D01*
X0003668Y0010722D02*
Y0010556D01*
X0003659Y0010722D02*
Y0010565D01*
X0003650Y0010722D02*
Y0010574D01*
X0003641Y0010722D02*
Y0010583D01*
X0003632Y0010722D02*
Y0010592D01*
X0003623Y0010722D02*
Y0010601D01*
X0003614Y0010722D02*
Y0010610D01*
X0003605Y0010722D02*
Y0010619D01*
X0003596Y0010722D02*
Y0010628D01*
X0003587Y0010722D02*
Y0010637D01*
X0003578Y0010722D02*
Y0010646D01*
X0003569Y0010722D02*
Y0010655D01*
X0003560Y0010722D02*
Y0010664D01*
X0003551Y0010722D02*
Y0010673D01*
X0003542Y0010722D02*
Y0010682D01*
X0003533Y0010722D02*
Y0010691D01*
X0003524Y0010722D02*
Y0010700D01*
X0003515Y0010722D02*
Y0010709D01*
X0003805Y0010711D02*
X0003513D01*
X0003805Y0010702D02*
X0003522D01*
X0003805Y0010693D02*
X0003531D01*
X0003805Y0010684D02*
X0003540D01*
X0003805Y0010675D02*
X0003549D01*
X0003805Y0010666D02*
X0003558D01*
X0003805Y0010657D02*
X0003567D01*
X0003805Y0010648D02*
X0003576D01*
X0003805Y0010639D02*
X0003585D01*
X0003805Y0010630D02*
X0003594D01*
X0003805Y0010621D02*
X0003603D01*
X0003805Y0010612D02*
X0003612D01*
X0003805Y0010603D02*
X0003621D01*
X0003805Y0010594D02*
X0003630D01*
X0003805Y0010585D02*
X0003639D01*
X0003805Y0010576D02*
X0003648D01*
X0003805Y0010567D02*
X0003657D01*
X0003805Y0010558D02*
X0003666D01*
X0003805Y0010549D02*
X0003675D01*
X0003805Y0010540D02*
X0003684D01*
X0003805Y0010531D02*
X0003693D01*
X0003805Y0010522D02*
X0003702D01*
X0003805Y0010513D02*
X0003711D01*
X0003805Y0010504D02*
X0003720D01*
X0003805Y0010495D02*
X0003729D01*
X0003805Y0010486D02*
X0003738D01*
X0003805Y0010477D02*
X0003747D01*
X0003805Y0010468D02*
X0003756D01*
X0003805Y0010459D02*
X0003765D01*
X0003805Y0010450D02*
X0003774D01*
X0003805Y0010441D02*
X0003783D01*
X0003805Y0010432D02*
X0003792D01*
X0003805Y0010722D02*
Y0010419D01*
X0003502Y0010722D02*
X0003805Y0010419D01*
Y0010722D02*
X0003502D01*
X0003794D02*
Y0010430D01*
X0003785Y0010722D02*
Y0010439D01*
X0003776Y0010722D02*
Y0010448D01*
X0003767Y0010722D02*
Y0010457D01*
X0003758Y0010722D02*
Y0010466D01*
X0003749Y0010722D02*
Y0010475D01*
X0003740Y0010722D02*
Y0010484D01*
X0003731Y0010722D02*
Y0010493D01*
X0003722Y0010722D02*
Y0010502D01*
X0003713Y0010722D02*
Y0010511D01*
X0003704Y0010722D02*
Y0010520D01*
X0003695Y0010722D02*
Y0010529D01*
X0003686Y0010722D02*
Y0010538D01*
G54D83*
G01X0033033Y0011484D02*
X0037006D01*
Y0003539D01*
X0032994D01*
Y0011484D01*
X0033033D01*
X0010600Y0008450D02*
Y0008650D01*
X0005400D01*
Y0008450D01*
Y0005600D02*
Y0006900D01*
X0010600D02*
Y0005600D01*
Y0004050D02*
Y0003850D01*
X0005400D01*
Y0004050D01*
X0013410Y0008850D02*
Y0010350D01*
X0014600D01*
Y0008640D01*
X0013620D01*
X0013410Y0008850D01*
X0014080Y0006600D02*
X0013430D01*
X0014090Y0006440D02*
Y0006430D01*
X0013410D01*
Y0007570D01*
X0014090D01*
Y0006440D01*
X0028033Y0011484D02*
X0032006D01*
Y0003539D01*
X0027994D01*
Y0011484D01*
X0028033D01*
X0030617Y0021936D02*
Y0021666D01*
X0030546Y0021986D02*
Y0021616D01*
X0030476Y0022002D02*
Y0021600D01*
X0030405Y0021991D02*
Y0021610D01*
X0030334Y0021950D02*
Y0021652D01*
X0030604Y0021949D02*
X0030333D01*
X0030654Y0021879D02*
X0030283D01*
X0030669Y0021808D02*
X0030268D01*
X0030659Y0021737D02*
X0030278D01*
X0030618Y0021666D02*
X0030319D01*
X0030821Y0022037D02*
X0030823Y0022116D01*
X0026179D01*
Y0019008D01*
X0030821D01*
Y0022037D01*
X0011660Y0008850D02*
Y0010350D01*
X0012850D01*
Y0008640D01*
X0011870D01*
X0011660Y0008850D01*
X0017350Y0005850D02*
X0014650D01*
Y0003650D01*
X0017350D01*
Y0005850D01*
X0039939Y0022748D02*
Y0021252D01*
X0041041D01*
X0041396Y0021606D01*
Y0022433D01*
X0041081Y0022748D01*
X0039939D01*
X0039860Y0023063D02*
Y0020937D01*
X0043640D01*
Y0023063D01*
X0039860D01*
Y0022176D02*
X0039309D01*
X0039860Y0022105D02*
X0039309D01*
X0039860Y0022034D02*
X0039309D01*
X0039860Y0021963D02*
X0039309D01*
X0039860Y0021892D02*
X0039309D01*
X0039860Y0021822D02*
X0039309D01*
X0039860Y0021751D02*
X0039309D01*
X0039860Y0021680D02*
X0039309D01*
X0039860Y0021609D02*
X0039309D01*
X0039860Y0021538D02*
X0039309D01*
X0039860Y0021468D02*
X0039309D01*
X0039588Y0022669D02*
Y0021331D01*
X0039517Y0022669D02*
Y0021331D01*
X0039446Y0022669D02*
Y0021331D01*
X0039375Y0022669D02*
Y0021331D01*
X0039860Y0022600D02*
X0039309D01*
X0039860Y0022530D02*
X0039309D01*
X0039860Y0022459D02*
X0039309D01*
X0039860Y0022388D02*
X0039309D01*
X0039860Y0022317D02*
X0039309D01*
X0039860Y0022246D02*
X0039309D01*
X0039860Y0021397D02*
X0039309D01*
X0039860Y0022669D02*
Y0021331D01*
X0039309D01*
Y0022669D02*
Y0021331D01*
X0039860Y0022669D02*
X0039309D01*
X0039800D02*
Y0021331D01*
X0039729Y0022669D02*
Y0021331D01*
X0039658Y0022669D02*
Y0021331D01*
X0042104Y0022748D02*
Y0021252D01*
X0043561D01*
Y0022748D01*
X0042104D01*
X0001891Y0015076D02*
Y0015115D01*
X-0000469D01*
Y0013385D01*
X0001891D01*
Y0015076D01*
X-0000469Y0015115D02*
Y0014879D01*
X-0000233Y0015115D02*
X-0000469Y0014879D01*
X-0000233Y0015115D02*
X-0000469D01*
X-0000261D02*
Y0015087D01*
X-0000332Y0015115D02*
Y0015016D01*
X-0000403Y0015115D02*
Y0014946D01*
X-0000261Y0015087D02*
X-0000469D01*
X-0000332Y0015016D02*
X-0000469D01*
X-0000403Y0014946D02*
X-0000469D01*
X0003797Y0010691D02*
Y0007754D01*
X0001707D01*
Y0010691D01*
X0003797D01*
X0012330Y0006600D02*
X0011680D01*
X0012340Y0006440D02*
Y0006430D01*
X0011660D01*
Y0007570D01*
X0012340D01*
Y0006440D01*
X0023033Y0011484D02*
X0027006D01*
Y0003539D01*
X0022994D01*
Y0011484D01*
X0023033D01*
G01X0019500Y0002196D02*
G03X0020804Y0003500I0000000J0001304D01*
G01X0018196D02*
G03X0019500Y0002196I0001304J0000000D01*
Y0004804D02*
G03X0018196Y0003500I0000000J0001304D01*
G01X0020804D02*
G03X0019500Y0004804I0001304J0000000D01*
G01X0030469Y0021600D02*
G03X0030670Y0021801I0000000J0000201D01*
G01X0030268D02*
G03X0030469Y0021600I0000201J0000000D01*
Y0022002D02*
G03X0030268Y0021801I0000000J0000201D01*
G01X0030669D02*
G03X0030469Y0022001I0000200J0000000D01*
G01X0019500Y-0001304D02*
G03X0020804Y0000000I0000000J0001304D01*
G01X0018196D02*
G03X0019500Y-0001304I0001304J0000000D01*
Y0001304D02*
G03X0018196Y0000000I0000000J0001304D01*
G01X0020804D02*
G03X0019500Y0001304I0001304J0000000D01*
M02*
