*
G04 Mass Parameters ***
*
G04 Image ***
*
%INE:\00.LAVORI IN CORSO\METALTRONICA\25-336-0\25-336-0.DRL*%
%ICAS*%
%MOIN*%
%IPPOS*%
%ASAXBY*%
G74*%FSLAN2X34Y34*%
*
G04 Aperture Definitions ***
*
%ADD10C,0.1378*%
%ADD11R,0.0380X0.0320*%
%ADD12C,0.0610*%
%ADD13R,0.0610X0.0610*%
%ADD14R,0.0400X0.0710*%
%ADD15R,0.0472X0.2047*%
%ADD16R,0.0510X0.1024*%
%ADD17R,0.0886X0.0905*%
%ADD18R,0.0320X0.0380*%
%ADD19R,0.0404X0.0501*%
%ADD20R,0.0710X0.0400*%
%ADD21C,0.0800*%
%ADD22R,0.0850X0.1080*%
%ADD23R,0.1080X0.0850*%
%ADD24R,0.0480X0.0354*%
%ADD25R,0.0500X0.0400*%
%ADD26R,0.0787X0.0787*%
%ADD27R,0.0501X0.0404*%
%ADD28R,0.1669X0.1500*%
%ADD29C,0.1000*%
%ADD30O,0.1181X0.0787*%
%ADD31C,0.0669*%
%ADD32R,0.0669X0.0669*%
%ADD33C,0.1200*%
%ADD34R,0.1200X0.1200*%
%ADD35C,0.0787*%
%ADD36C,0.0630*%
%ADD37R,0.0800X0.0800*%
%ADD38C,0.0866*%
%ADD39R,0.0866X0.0866*%
%ADD40R,0.0512X0.0236*%
%ADD41R,0.1968X0.1338*%
%ADD42R,0.0413X0.0236*%
%ADD43C,0.0187*%
%ADD44R,0.0236X0.0354*%
%ADD45R,0.0275X0.0453*%
%ADD46R,0.0400X0.0500*%
%ADD47R,0.1024X0.0510*%
%ADD48R,0.0760X0.1200*%
%ADD49C,0.1968*%
%ADD50R,0.1736X0.0787*%
%ADD51R,0.0236X0.0787*%
%ADD52R,0.0650X0.1120*%
%ADD53R,0.0354X0.0165*%
%ADD54R,0.0354X0.0512*%
%ADD55R,0.0138X0.0400*%
%ADD56O,0.0650X0.0256*%
%ADD57R,0.0680X0.1580*%
%ADD58R,0.0680X0.0550*%
%ADD59O,0.0110X0.0700*%
%ADD60R,0.0110X0.0700*%
%ADD61O,0.0700X0.0110*%
%ADD62R,0.0700X0.0110*%
%ADD63C,0.0276*%
%ADD64C,0.0394*%
%ADD65C,0.0000*%
%ADD66C,0.0050*%
%ADD67C,0.0100*%
%ADD68C,0.0800*%
%ADD69C,0.0250*%
%ADD70C,0.0276*%
%ADD71C,0.0500*%
%ADD72C,0.0197*%
%ADD73C,0.0200*%
%ADD74C,0.0150*%
%ADD75C,0.0276*%
%ADD76C,0.0060*%
%ADD77C,0.0080*%
%ADD78C,0.0276*%
%ADD79R,0.0334X0.0512*%
%ADD80C,0.0590*%
%ADD81C,0.0010*%
%ADD82R,0.0236X0.0413*%
%ADD83C,0.0079*%
%ADD84C,0.0315*%
%ADD85C,0.0433*%
%ADD86C,0.0472*%
%ADD87C,0.0551*%
%ADD88C,0.1063*%
%ADD89C,0.0079*%
%ADD90C,0.0590*%
%ADD91C,0.0079*%
%ADD92C,0.0079*%
*
G04 Plot Data ***
*
G54D69*
G01X-0002000Y0003000D02*
Y0028000D01*
X0044000D01*
Y-0002000D01*
X-0002000D01*
Y0003000D01*
G54D90*
G01X0039300Y0011250D02*
X0038600Y0010550D01*
X0037700D01*
X0036900Y0009750D01*
G54D10*
X0000000Y0000000D03*
Y0026000D03*
X0042000Y0000000D03*
Y0026000D03*
G54D36*
X0043033Y0003622D03*
X0034128Y0024403D03*
Y0027096D03*
X0038128Y0024403D03*
Y0027096D03*
G54D64*
X-0000750Y0021500D03*
X0021000Y0020500D03*
X0025000Y0018250D03*
X0017250Y0015000D03*
X0014500D03*
X0041250Y0012750D03*
X0022500Y-0001000D03*
X0028500Y0011000D03*
X0031500D03*
X0023500D03*
X0026500D03*
X0033500D03*
X0036500D03*
X0042155Y0007067D03*
X0040345D03*
Y0005689D03*
Y0004311D03*
Y0002933D03*
X0042155D03*
Y0004311D03*
Y0005689D03*
G54D84*
X0018750Y0003500D03*
X0020250D03*
X0018750Y0000000D03*
X0020250D03*
G54D85*
X0029500Y0021250D03*
X0028500D03*
X0027500D03*
X0038000Y0012500D03*
Y0011500D03*
Y0009500D03*
Y0008500D03*
X0006250Y0026500D03*
X0005250D03*
X0004250D03*
Y0025500D03*
X0005250D03*
X0006250D03*
X0011500Y0002250D03*
X0010500D03*
X0009500D03*
G54D86*
X0028500Y0007000D03*
Y0004000D03*
X0031500D03*
X0023500Y0007000D03*
Y0004000D03*
X0026500D03*
X0033500Y0007000D03*
Y0004000D03*
X0036500D03*
X0033258Y0026242D03*
Y0025258D03*
X0034242D03*
Y0026242D03*
X0037258D03*
Y0025258D03*
X0038242D03*
Y0026242D03*
X0035766Y0021734D03*
Y0019766D03*
X0036750Y0018781D03*
X0037734Y0019766D03*
Y0021734D03*
X0036750Y0020750D03*
G54D87*
X0042833Y0022000D03*
X0040667D03*
G54D88*
X0005499Y0000750D03*
X0015504D03*
G54D89*
X0004000Y0010000D03*
X0002500Y0016750D03*
X0002000D03*
X-0000500Y0016500D03*
Y0017000D03*
X0000300Y0012050D03*
X0000750D03*
Y0013350D03*
Y0012500D03*
X0000300D03*
X0000750Y0012900D03*
X0000300D03*
X0000500Y0015500D03*
X0000000D03*
X-0000500D03*
Y0016000D03*
X0000000D03*
X0000500D03*
X0001000D03*
Y0016500D03*
X0000500D03*
X0000000D03*
Y0017000D03*
X0000500D03*
X0001000D03*
X0002500Y0015500D03*
X0002000D03*
X0004000Y0014500D03*
X0012500Y0003250D03*
Y0003750D03*
X0005000Y0005750D03*
X0005500D03*
X0006000D03*
X0006500D03*
X0007000D03*
X0007500D03*
X0012000Y0003250D03*
X0011500D03*
X0012000Y0003750D03*
X0011500D03*
X0008500Y0003250D03*
X0009000D03*
X0009500D03*
X0010000D03*
X0010500D03*
X0011000D03*
Y0003750D03*
X0010500D03*
X0010000D03*
X0009500D03*
X0009000D03*
X0008500D03*
X0004000Y0012000D03*
Y0012500D03*
Y0013000D03*
X0006500Y0012000D03*
X0006000D03*
X0005500D03*
X0005000D03*
X0004500D03*
X0006500Y0013000D03*
X0006000D03*
X0005500D03*
X0005000D03*
X0004500D03*
Y0013500D03*
X0005000D03*
X0005500D03*
X0006000D03*
X0006500D03*
X0002500Y-0001000D03*
X0002000D03*
X0002500Y-0000500D03*
X0002000D03*
Y0000000D03*
X0002500D03*
Y0000500D03*
Y0001000D03*
X0002000Y0000500D03*
Y0001000D03*
Y0001500D03*
X0002500D03*
X-0001000Y0002000D03*
X-0000500D03*
X0000000D03*
X0000500D03*
X0001000D03*
X0001500D03*
X0002000D03*
X0002500D03*
Y0002500D03*
X0002000D03*
X0001500D03*
X0001000D03*
X0000500D03*
X0000000D03*
X-0000500D03*
X-0001000D03*
Y0003000D03*
X-0000500D03*
X0000000D03*
X0000500D03*
X0001000D03*
X0001500D03*
X0002000D03*
X0002500D03*
Y0003500D03*
X0002000D03*
X0001500D03*
X0001000D03*
X0000500D03*
X0000000D03*
X-0000500D03*
X-0001000D03*
X0002000Y0004000D03*
X0001500D03*
X0001000D03*
X0000500D03*
X0000000D03*
X-0000500D03*
X-0001000D03*
Y0004500D03*
X-0000500D03*
X0000000D03*
X0000500D03*
X0001000D03*
X0001500D03*
X0002000D03*
X0002500Y0004000D03*
Y0004500D03*
Y0005000D03*
X0002000D03*
X0001500D03*
X0001000D03*
X0000500D03*
X0000000D03*
X-0000500D03*
X0003000Y0005500D03*
X0002500D03*
X0002000D03*
X0001500D03*
X0001000D03*
X0000500D03*
X0000000D03*
X-0000500D03*
X-0001000Y0005000D03*
Y0005500D03*
X0000000Y0006000D03*
X0000500D03*
X0001000D03*
X0001500D03*
X0002000D03*
X0002500D03*
X0003000D03*
X0003500D03*
X0004000Y0006500D03*
X0003500D03*
X0003000D03*
X0002500D03*
X0002000D03*
X0001500D03*
X0001000D03*
X0000500D03*
X0000000D03*
X-0000500D03*
Y0006000D03*
X-0001000D03*
Y0006500D03*
X0007500Y0007500D03*
Y0008000D03*
X0008000Y0007500D03*
Y0008000D03*
Y0008500D03*
X0007500D03*
X0004500Y0007500D03*
Y0008000D03*
Y0008500D03*
Y0009000D03*
X0005000D03*
X0005500D03*
X0006000D03*
X0006500D03*
Y0009500D03*
X0006000D03*
X0005500D03*
X0005000D03*
X0004500D03*
X0004000D03*
Y0009000D03*
Y0008500D03*
Y0008000D03*
Y0007500D03*
Y0007000D03*
X0003500D03*
X0003000D03*
X0002500D03*
X0002000D03*
X0001500D03*
X0001000D03*
X0000500D03*
X0000000D03*
X-0000500D03*
X0003500Y0007500D03*
X0003000D03*
X0002500D03*
X0002000D03*
X0001500D03*
X0001000D03*
X0000500D03*
X0000000D03*
X-0000500D03*
X-0001000Y0007000D03*
Y0007500D03*
Y0008000D03*
X-0000500D03*
X0000000D03*
X0000500D03*
X0001000D03*
X0001500D03*
Y0008500D03*
X0001000D03*
X0000500D03*
X0000000D03*
X-0000500D03*
X-0001000D03*
Y0009000D03*
Y0009500D03*
X0001500D03*
X0001000D03*
X0000500D03*
X0000000D03*
X-0000500D03*
Y0009000D03*
X0000000D03*
X0000500D03*
X0001000D03*
X0007500Y0014000D03*
X0008000D03*
X0005000Y0014500D03*
X0005500D03*
X0006000D03*
X0006500D03*
X0007000D03*
X0007500D03*
X0008000D03*
X0010500Y0009000D03*
X0010000D03*
X0009500D03*
X0009000D03*
Y0009500D03*
X0009500D03*
X0010000D03*
X0010500D03*
Y0010000D03*
X0010000D03*
X0009500D03*
X0009000D03*
X0010500Y0010500D03*
X0010000D03*
X0009500D03*
X0009000D03*
Y0011000D03*
X0009500D03*
X0010000D03*
X0010500D03*
X0009000Y0012000D03*
Y0011500D03*
X0009500D03*
X0010000D03*
X0009000Y0013500D03*
X0010000Y0014000D03*
X0009500D03*
X0009000D03*
Y0014500D03*
X0009500D03*
X0010000D03*
X0010500Y0011500D03*
Y0012000D03*
Y0012500D03*
Y0013000D03*
Y0013500D03*
Y0014000D03*
Y0014500D03*
X0004500Y0010000D03*
X0005000D03*
X0005500D03*
X0006000D03*
X0006500D03*
Y0011000D03*
X0004500D03*
X0005000D03*
X0005500D03*
X0006000D03*
X0015500Y0004000D03*
Y0004500D03*
Y0005000D03*
Y0005500D03*
X0014500Y0004000D03*
Y0004500D03*
Y0005000D03*
Y0005500D03*
Y0006000D03*
X0015000D03*
Y0006500D03*
Y0007000D03*
Y0007500D03*
Y0008000D03*
X0007500Y0005250D03*
Y0004750D03*
Y0004250D03*
Y0003750D03*
X0007000D03*
X0006500D03*
X0006000D03*
X0005500D03*
X0005000D03*
X0004500D03*
Y0004250D03*
Y0004750D03*
Y0005250D03*
X0001500Y0009000D03*
G54D91*
X0012000Y0013300D03*
X0002250Y0023050D03*
X0017700Y0017450D03*
X0014500Y0017000D03*
X0018000Y0015700D03*
X0018250Y0013300D03*
X0020030Y0016220D03*
X0017900Y0020100D03*
X0020250Y0011750D03*
X0019700Y0014800D03*
X0008900Y0022600D03*
Y0024300D03*
X0021900Y0014250D03*
Y0011750D03*
X0009650Y0023200D03*
Y0025650D03*
X0023950Y0014900D03*
X0023800Y0017150D03*
X0026050Y0014550D03*
Y0019000D03*
X0021750Y0024750D03*
X0021850Y0023000D03*
X0015000Y0011000D03*
X0005000Y0016450D03*
X0003000Y0011800D03*
X0003250Y0013750D03*
X0007650Y0018550D03*
X0008100Y0015600D03*
X0013000Y0011450D03*
X0012500Y0017500D03*
X0015550Y0021200D03*
X0015750Y0022750D03*
X0013500Y0024050D03*
Y0016700D03*
X0036250Y0015550D03*
X0034750D03*
X0024200Y0015700D03*
Y0019300D03*
X0013100Y0016050D03*
Y0019950D03*
X0016850Y0019250D03*
X0017500Y0022750D03*
X0006462Y0018412D03*
X0007450Y0026900D03*
X0020200Y0027450D03*
Y0024400D03*
X0021550Y0017850D03*
Y0015500D03*
X0023500Y0016500D03*
X0026464Y0016285D03*
X0010970Y0017720D03*
X0023800Y0025250D03*
X0021550Y0022300D03*
X0032750Y0012500D03*
X0007100Y0016800D03*
X0008200Y0020850D03*
X0013200Y0021050D03*
G54D92*
X0004950Y0024300D03*
X0005550D03*
X0011150Y0021750D03*
X0003500Y0021250D03*
Y0022000D03*
X0004250Y0022750D03*
X0006000Y0023700D03*
X0011000Y0020970D03*
Y0018300D03*
X0006450Y0017100D03*
X0025550Y0019300D03*
X0028500Y0017500D03*
X0029300Y0013300D03*
X0032950Y0013950D03*
X0032000Y0014500D03*
X0033635Y0016285D03*
X0028035D03*
X0028270Y0013720D03*
X0027470Y0026780D03*
X0030030Y0026030D03*
X0012500Y0012600D03*
X0003700Y0016650D03*
X0006350Y0016290D03*
X0024450Y0013200D03*
X0023420Y0013720D03*
X0019180Y0022220D03*
X0019650Y0023050D03*
X0020070Y0022220D03*
X0014300Y0019750D03*
X0029030Y0016220D03*
X0030200Y0016300D03*
X0008360Y0024910D03*
X0031785Y0016285D03*
X0032750Y0017000D03*
X0034630Y0022780D03*
X0034000Y0016750D03*
X0037750Y0013850D03*
X0026330Y0019720D03*
X0001700Y0020800D03*
X0001750Y0019500D03*
X0007030Y0023780D03*
X0012750Y0007500D03*
X0000750Y0015250D03*
X0014250Y0007500D03*
X0009050Y0022150D03*
X0021500Y0013400D03*
X0014400Y0023050D03*
X0012180Y0022220D03*
X0011400Y0023500D03*
X0009820Y0021530D03*
X0012650Y0023000D03*
X0014030Y0022220D03*
X0016470D03*
X0016300Y0023050D03*
X0018000Y0023000D03*
X0021400Y0023050D03*
X0023350Y0023850D03*
X0020000Y0013400D03*
X0014770Y0022220D03*
X0015550Y0020800D03*
X0016030Y0018030D03*
X0016000Y0017250D03*
X0023750Y0027050D03*
X0016550Y0017050D03*
X0019550Y0017450D03*
X0020630Y0017470D03*
X0023750Y0023600D03*
Y0021400D03*
X0012000Y0011450D03*
Y0016400D03*
X0013320Y0013300D03*
X0014150D03*
X0016350Y0021400D03*
X0017700Y0019750D03*
X0007800Y0021200D03*
X0005282Y0020318D03*
X0020750Y0013400D03*
X0020980Y0014720D03*
X0019550Y0018000D03*
X0022000Y0016500D03*
X0029970Y0022970D03*
X0032550Y0024500D03*
X0018750Y0011750D03*
X0015130Y0012030D03*
X0023500Y0018450D03*
X0022650Y0013500D03*
M02*
