%
T1C0.0079F200S100
X-001000Y002000
X-001000Y002500
X-001000Y003000
X-001000Y003500
X-001000Y004000
X-001000Y004500
X-001000Y005000
X-001000Y005500
X-001000Y006000
X-001000Y006500
X-001000Y007000
X-001000Y007500
X-001000Y008000
X-001000Y008500
X-001000Y009000
X-001000Y009500
X-000500Y002000
X-000500Y002500
X-000500Y003000
X-000500Y003500
X-000500Y004000
X-000500Y004500
X-000500Y005000
X-000500Y005500
X-000500Y006000
X-000500Y006500
X-000500Y007000
X-000500Y007500
X-000500Y008000
X-000500Y008500
X-000500Y009000
X-000500Y009500
X-000500Y015500
X-000500Y016000
X-000500Y016500
X-000500Y017000
X000000Y002000
X000000Y002500
X000000Y003000
X000000Y003500
X000000Y004000
X000000Y004500
X000000Y005000
X000000Y005500
X000000Y006000
X000000Y006500
X000000Y007000
X000000Y007500
X000000Y008000
X000000Y008500
X000000Y009000
X000000Y009500
X000300Y012050
X000300Y012500
X000300Y012900
X000000Y015500
X000000Y016000
X000000Y016500
X000000Y017000
X000500Y002000
X000500Y002500
X000500Y003000
X000500Y003500
X000500Y004000
X000500Y004500
X000500Y005000
X000500Y005500
X000500Y006000
X000500Y006500
X000500Y007000
X000500Y007500
X000500Y008000
X000500Y008500
X000500Y009000
X000500Y009500
X000750Y012050
X000750Y012500
X000750Y012900
X000750Y013350
X000750Y015250
X000500Y015500
X000500Y016000
X000500Y016500
X000500Y017000
X001000Y002000
X001000Y002500
X001000Y003000
X001000Y003500
X001000Y004000
X001000Y004500
X001000Y005000
X001000Y005500
X001000Y006000
X001000Y006500
X001000Y007000
X001000Y007500
X001000Y008000
X001000Y008500
X001000Y009000
X001000Y009500
X001000Y016000
X001000Y016500
X001000Y017000
X001500Y002000
X001500Y002500
X001500Y003000
X001500Y003500
X001500Y004000
X001500Y004500
X001500Y005000
X001500Y005500
X001500Y006000
X001500Y006500
X001500Y007000
X001500Y007500
X001500Y008000
X001500Y008500
X001500Y009000
X001500Y009500
X001700Y020800
X001750Y019500
X002000Y-001000
X002000Y-000500
X002000Y000000
X002000Y000500
X002000Y001000
X002000Y001500
X002000Y002000
X002000Y002500
X002000Y003000
X002000Y003500
X002000Y004000
X002000Y004500
X002000Y005000
X002000Y005500
X002000Y006000
X002000Y006500
X002000Y007000
X002000Y007500
X002000Y015500
X002000Y016750
X002250Y023050
X002500Y-001000
X002500Y-000500
X002500Y000000
X002500Y000500
X002500Y001000
X002500Y001500
X002500Y002000
X002500Y002500
X002500Y003000
X002500Y003500
X002500Y004000
X002500Y004500
X002500Y005000
X002500Y005500
X002500Y006000
X002500Y006500
X002500Y007000
X002500Y007500
X003000Y005500
X003000Y006000
X003000Y006500
X003000Y007000
X003000Y007500
X003000Y011800
X002500Y015500
X002500Y016750
X003250Y013750
X003500Y006000
X003500Y006500
X003500Y007000
X003500Y007500
X003500Y021250
X003500Y022000
X003700Y016650
X004000Y006500
X004000Y007000
X004000Y007500
X004000Y008000
X004000Y008500
X004000Y009000
X004000Y009500
X004000Y010000
X004000Y012000
X004000Y012500
X004000Y013000
X004000Y014500
X004250Y022750
X004500Y003750
X004500Y004250
X004500Y004750
X004500Y005250
X004500Y007500
X004500Y008000
X004500Y008500
X004500Y009000
X004500Y009500
X004500Y010000
X004500Y011000
X004500Y012000
X004500Y013000
X004500Y013500
X004950Y024300
X005000Y003750
X005000Y005750
X005000Y009000
X005000Y009500
X005000Y010000
X005000Y011000
X005000Y012000
X005000Y013000
X005000Y013500
X005000Y014500
X005000Y016450
X005282Y020318
X005500Y003750
X005500Y005750
X005500Y009000
X005500Y009500
X005500Y010000
X005500Y011000
X005500Y012000
X005500Y013000
X005500Y013500
X005500Y014500
X005550Y024300
X006000Y003750
X006000Y005750
X006000Y009000
X006000Y009500
X006000Y010000
X006000Y011000
X006000Y012000
X006000Y013000
X006000Y013500
X006000Y014500
X006000Y023700
X006350Y016290
X006450Y017100
X006462Y018412
X006500Y003750
X006500Y005750
X006500Y009000
X006500Y009500
X006500Y010000
X006500Y011000
X006500Y012000
X006500Y013000
X006500Y013500
X006500Y014500
X007000Y003750
X007000Y005750
X007000Y014500
X007030Y023780
X007100Y016800
X007450Y026900
X007500Y003750
X007500Y004250
X007500Y004750
X007500Y005250
X007500Y005750
X007500Y007500
X007500Y008000
X007500Y008500
X007500Y014000
X007500Y014500
X007650Y018550
X007800Y021200
X008000Y007500
X008000Y008000
X008000Y008500
X008000Y014000
X008000Y014500
X008100Y015600
X008200Y020850
X008360Y024910
X008500Y003250
X008500Y003750
X008900Y022600
X008900Y024300
X009000Y003250
X009000Y003750
X009000Y009000
X009000Y009500
X009000Y010000
X009000Y010500
X009000Y011000
X009000Y011500
X009000Y012000
X009000Y013500
X009000Y014000
X009000Y014500
X009050Y022150
X009500Y003250
X009500Y003750
X009500Y009000
X009500Y009500
X009500Y010000
X009500Y010500
X009500Y011000
X009500Y011500
X009500Y014000
X009500Y014500
X009650Y023200
X009820Y021530
X009650Y025650
X010000Y003250
X010000Y003750
X010500Y003250
X010500Y003750
X010500Y009000
X010000Y009000
X010000Y009500
X010000Y010000
X010000Y010500
X010000Y011000
X010000Y011500
X010500Y009500
X010500Y010000
X010500Y010500
X010500Y011000
X010500Y011500
X010500Y012000
X010500Y012500
X010500Y013000
X010500Y013500
X010500Y014000
X010000Y014000
X010000Y014500
X010500Y014500
X010970Y017720
X011000Y003250
X011000Y003750
X011000Y018300
X011000Y020970
X011150Y021750
X011400Y023500
X011500Y003250
X011500Y003750
X012000Y003250
X012000Y003750
X012000Y011450
X012000Y013300
X012000Y016400
X012180Y022220
X012500Y003250
X012500Y003750
X012500Y012600
X012500Y017500
X012650Y023000
X012750Y007500
X013000Y011450
X013100Y016050
X013100Y019950
X013200Y021050
X013320Y013300
X013500Y016700
X014030Y022220
X013500Y024050
X014150Y013300
X014250Y007500
X014300Y019750
X014400Y023050
X014500Y004000
X014500Y004500
X014500Y005000
X014500Y005500
X014500Y006000
X014500Y017000
X014770Y022220
X015000Y006000
X015000Y006500
X015000Y007000
X015000Y007500
X015000Y008000
X015000Y011000
X015130Y012030
X015500Y004000
X015500Y004500
X015500Y005000
X015500Y005500
X015550Y020800
X015550Y021200
X015750Y022750
X016000Y017250
X016030Y018030
X016300Y023050
X016350Y021400
X016470Y022220
X016550Y017050
X016850Y019250
X017500Y022750
X017700Y017450
X017700Y019750
X017900Y020100
X018000Y015700
X018000Y023000
X018250Y013300
X018750Y011750
X019180Y022220
X019550Y017450
X019550Y018000
X019650Y023050
X019700Y014800
X020000Y013400
X020030Y016220
X020070Y022220
X020200Y024400
X020200Y027450
X020250Y011750
X020630Y017470
X020750Y013400
X020980Y014720
X021400Y023050
X021500Y013400
X021550Y015500
X021550Y017850
X021550Y022300
X021750Y024750
X021850Y023000
X021900Y011750
X021900Y014250
X022000Y016500
X022650Y013500
X023350Y023850
X023420Y013720
X023500Y016500
X023500Y018450
X023750Y021400
X023750Y023600
X023750Y027050
X023800Y017150
X023950Y014900
X023800Y025250
X024200Y015700
X024450Y013200
X024200Y019300
X025550Y019300
X026050Y014550
X026050Y019000
X026330Y019720
X026464Y016285
X027470Y026780
X028035Y016285
X028270Y013720
X028500Y017500
X029030Y016220
X029300Y013300
X029970Y022970
X030030Y026030
X030200Y016300
X031785Y016285
X032000Y014500
X032550Y024500
X032750Y012500
X032950Y013950
X032750Y017000
X033635Y016285
X034000Y016750
X034630Y022780
X034750Y015550
X036250Y015550
X037750Y013850
T3C0.0394F200S100
X-000750Y021500
X014500Y015000
X017250Y015000
X021000Y020500
X022500Y-001000
X023500Y011000
X025000Y018250
X026500Y011000
X028500Y011000
X031500Y011000
X033500Y011000
X036500Y011000
X040345Y002933
X040345Y004311
X040345Y005689
X040345Y007067
X041250Y012750
X042155Y002933
X042155Y004311
X042155Y005689
X042155Y007067
T2C0.0315F200S100
X018750Y000000
X020250Y000000
X020250Y003500
X018750Y003500
T5C0.0472F200S100
X023500Y004000
X023500Y007000
X026500Y004000
X028500Y004000
X028500Y007000
X031500Y004000
X033258Y025258
X033258Y026242
X033500Y004000
X033500Y007000
X034242Y025258
X034242Y026242
X035766Y019766
X035766Y021734
X036500Y004000
X036750Y018781
X036750Y020750
X037258Y025258
X037258Y026242
X037734Y019766
X037734Y021734
X038242Y025258
X038242Y026242
T6C0.0551F200S100
X040667Y022000
X042833Y022000
T4C0.0433F200S100
X004250Y025500
X004250Y026500
X005250Y025500
X005250Y026500
X006250Y025500
X006250Y026500
X009500Y002250
X010500Y002250
X011500Y002250
X027500Y021250
X028500Y021250
X029500Y021250
X038000Y008500
X038000Y009500
X038000Y011500
X038000Y012500
T7C0.0630F200S100
X034128Y024403
X034128Y027096
X038128Y024403
X038128Y027096
T8C0.1063F200S100
X005499Y000750
X015504Y000750
M30
